<svg width="59" height="50" viewBox="0 0 59 50" fill="none" xmlns="http://www.w3.org/2000/svg">
<g clip-path="url(#clip0_3493:16577)">
<path d="M22.4987 19.166H7.49873C6.57861 19.1669 5.83301 19.9126 5.83203 20.8327H4.99873C4.07861 20.8336 3.33301 21.5793 3.33203 22.4994V24.1661C3.33291 25.0862 4.07861 25.8318 4.99873 25.8328H5.83203V30.8327H4.99873C4.07861 30.8336 3.33301 31.5793 3.33203 32.4994V34.1661C3.33291 35.0862 4.07861 35.8318 4.99873 35.8328H5.83203C5.83291 36.7529 6.57861 37.4985 7.49873 37.4995H22.4987C23.4188 37.4986 24.1645 36.7529 24.1654 35.8328V20.8327C24.1645 19.9126 23.4188 19.167 22.4987 19.166ZM5.83203 34.166H4.99873V32.4993H5.83203V34.166ZM5.83203 24.166H4.99873V22.4993H5.83203V24.166ZM7.49873 35.8327V20.8327H22.4987L22.4999 35.8327H7.49873Z" fill="#8496B6"/>
<path d="M13.3346 30H10.0013C9.54102 30 9.16797 30.373 9.16797 30.8333C9.16797 31.2936 9.54102 31.6666 10.0013 31.6666H13.3346C13.7948 31.6666 14.1679 31.2936 14.1679 30.8333C14.1679 30.373 13.7948 30 13.3346 30Z" fill="#8496B6"/>
<path d="M13.3346 32.5H10.0013C9.54102 32.5 9.16797 32.8731 9.16797 33.3333C9.16797 33.7936 9.54102 34.1666 10.0013 34.1666H13.3346C13.7948 34.1666 14.1679 33.7935 14.1679 33.3333C14.168 32.873 13.7948 32.5 13.3346 32.5Z" fill="#8496B6"/>
<path d="M20.0013 26.668C19.541 26.668 19.168 27.0411 19.168 27.5013V29.168C19.168 29.6282 19.541 30.0013 20.0013 30.0013C20.4615 30.0013 20.8346 29.6282 20.8346 29.168V27.5013C20.8346 27.0411 20.4615 26.668 20.0013 26.668Z" fill="#8496B6"/>
<path d="M39.9987 17.5H27.4987C26.5786 17.5009 25.833 18.2466 25.832 19.1667V25.8333C25.8329 26.7534 26.5786 27.499 27.4987 27.5H39.9987C40.9189 27.4991 41.6645 26.7534 41.6654 25.8333V19.1666C41.6645 18.2466 40.9189 17.5009 39.9987 17.5ZM27.4987 25.8333V19.1666H39.9987L39.9999 25.8333H27.4987Z" fill="#8496B6"/>
<path d="M39.9987 29.166H27.4987C26.5786 29.1669 25.833 29.9126 25.832 30.8327V37.4994C25.8329 38.4195 26.5786 39.1651 27.4987 39.1661H39.9987C40.9189 39.1652 41.6645 38.4195 41.6654 37.4994V30.8327C41.6645 29.9126 40.9189 29.167 39.9987 29.166ZM27.4987 37.4994V30.8327H39.9987L39.9999 37.4994H27.4987Z" fill="#8496B6"/>
<path d="M35.0013 32.5H32.5013C32.041 32.5 31.668 32.8731 31.668 33.3333C31.668 33.7936 32.0411 34.1666 32.5013 34.1666H35.0013C35.4615 34.1666 35.8346 33.7935 35.8346 33.3333C35.8346 32.873 35.4615 32.5 35.0013 32.5Z" fill="#8496B6"/>
<path d="M45.0001 44.9999H43.3334V42.4999C44.2535 42.499 44.9991 41.7533 45.0001 40.8332V12.4999H47.5001C47.8973 12.4999 48.2393 12.2196 48.3172 11.8302L49.9839 3.49687C50.0329 3.25205 49.9695 2.99814 49.8113 2.80508C49.6531 2.61201 49.4165 2.5 49.1669 2.5H43.3336C39.1935 2.50479 35.8384 5.85986 35.8336 10V14.1667H27.5V12.5C27.4964 9.27988 24.8868 6.67031 21.6667 6.6667H20.8334C20.8334 6.20645 20.4603 5.8334 20.0001 5.8334H10C9.53975 5.8334 9.1667 6.20645 9.1667 6.6667H0.833301C0.373047 6.6665 0 7.03965 0 7.4999V10.8332C0 11.2935 0.373047 11.6665 0.833301 11.6665H3.3333V14.1665H1.6667C0.746582 14.1675 0.000878906 14.9131 0 15.8332V40.8332C0.000878906 41.7533 0.746582 42.4989 1.6667 42.4999V44.9999H0.833301C0.373047 44.9999 0 45.3729 0 45.8332C0 46.2935 0.373047 46.6665 0.833301 46.6665H45C45.4603 46.6665 45.8333 46.2934 45.8333 45.8332C45.8334 45.3729 45.4604 44.9999 45.0001 44.9999ZM45 4.1665H48.1502L46.8168 10.8332H45V4.1665ZM37.5 9.9999C37.5036 6.77979 40.1132 4.17021 43.3333 4.1666V10.8332H37.5V9.9999ZM37.5 12.4999H43.3333V14.1666H37.5V12.4999ZM20.8333 8.3332H21.6666C23.9667 8.33594 25.8306 10.1998 25.8333 12.4999V14.1666H20.8333V8.3332ZM10.8333 7.4999H19.1666V10.8332H10.8333V7.4999ZM10 12.4999H19.1667V14.1666H5V11.6666H9.1667C9.1667 12.1268 9.53975 12.4999 10 12.4999ZM1.6667 9.9999V8.3332H9.1667V9.9999H1.6667ZM1.6667 15.8332H43.3334L43.3347 40.8332H1.6667V15.8332ZM41.6667 44.9999H3.3333V42.4999H41.6666L41.6667 44.9999Z" fill="#8496B6"/>
</g>
<path d="M58.332 37.5C58.332 44.4036 52.7356 50 45.832 50C38.9285 50 33.332 44.4036 33.332 37.5C33.332 30.5964 38.9285 25 45.832 25C52.7356 25 58.332 30.5964 58.332 37.5Z" fill="white"/>
<path fill-rule="evenodd" clip-rule="evenodd" d="M45.832 48.3333C51.8151 48.3333 56.6654 43.4831 56.6654 37.5C56.6654 31.5169 51.8151 26.6667 45.832 26.6667C39.8489 26.6667 34.9987 31.5169 34.9987 37.5C34.9987 43.4831 39.8489 48.3333 45.832 48.3333ZM45.832 50C52.7356 50 58.332 44.4036 58.332 37.5C58.332 30.5964 52.7356 25 45.832 25C38.9285 25 33.332 30.5964 33.332 37.5C33.332 44.4036 38.9285 50 45.832 50Z" fill="#8496B6"/>
<path d="M44.1647 39.655L41.4205 36.9108L40.2422 38.0891L44.1647 42.0116L52.2539 33.9225L51.0755 32.7441L44.1647 39.655Z" fill="#8496B6"/>
<defs>
<clipPath id="clip0_3493:16577">
<rect width="50" height="50" fill="white"/>
</clipPath>
</defs>
</svg>
