<svg width="55" height="50" viewBox="0 0 55 50" fill="none" xmlns="http://www.w3.org/2000/svg">
<g clip-path="url(#clip0_3493:16536)">
<path d="M38.5072 14.5691H34.963L29.0271 8.63487C28.8639 8.4627 28.6371 8.36317 28.4 8.36773C28.3891 8.36791 28.3827 8.36809 28.3827 8.36809H23.9192V5.11118C23.9192 4.62573 23.5529 4.20191 23.0686 4.17046C22.5377 4.13601 22.0963 4.55646 22.0963 5.07991V8.368H20.8257V4.48245C20.8257 2.06855 18.9161 0.0466581 16.5025 0.000811707C14.0327 -0.0461284 12.0087 1.94887 12.0087 4.40753V8.368H8.15893C7.09763 8.368 6.2373 9.22832 6.2373 10.2896V39.6415C6.2373 40.7026 7.09754 41.5629 8.15866 41.5629H11.1689V44.7454C11.1689 45.8065 12.0292 46.6668 13.0903 46.6668H38.5073C39.5684 46.6668 40.4287 45.8065 40.4287 44.7454V16.4905C40.4285 15.4293 39.5683 14.5691 38.5072 14.5691ZM29.2941 11.4795L32.3846 14.5691H29.2941V11.4795ZM13.8315 4.40762C13.8315 2.98247 14.9914 1.823 16.4171 1.823C17.8428 1.823 19.0027 2.98247 19.0027 4.40762V8.36809H17.2702V6.15571C17.2702 5.65231 16.8621 5.24425 16.3588 5.24425C15.8555 5.24425 15.4473 5.65231 15.4473 6.15571V8.36809H13.8314L13.8315 4.40762ZM17.2702 10.191H19.0027V11.433C19.0027 11.9103 18.6141 12.2988 18.1365 12.2988C17.6589 12.2988 17.2702 11.9104 17.2702 11.433V10.191ZM8.06022 39.6416V10.2894C8.06022 10.2351 8.10443 10.1909 8.15893 10.1909H15.4474V11.4329C15.4474 12.9154 16.6537 14.1216 18.1366 14.1216C19.6194 14.1216 20.8257 12.9154 20.8257 11.4329V10.1909H27.4713V15.4806C27.4713 15.984 27.8794 16.392 28.3827 16.392H33.6741V39.6416C33.6741 39.6958 33.6299 39.74 33.5754 39.74H8.15893C8.10443 39.7399 8.06022 39.6958 8.06022 39.6416ZM38.6056 44.7454C38.6056 44.7996 38.5614 44.8438 38.5069 44.8438H13.0905C13.036 44.8438 12.9918 44.7997 12.9918 44.7454V41.5629H33.5753C34.6349 41.5629 35.4969 40.701 35.4969 39.6415V16.392H38.5069C38.5614 16.392 38.6056 16.4361 38.6056 16.4905V44.7454Z" fill="#8496B6"/>
<path d="M12.9193 14.707C11.3995 14.707 10.1631 15.9432 10.1631 17.4628C10.1631 18.9824 11.3995 20.2186 12.9193 20.2186C14.4392 20.2186 15.6757 18.9824 15.6757 17.4628C15.6757 15.9432 14.4392 14.707 12.9193 14.707ZM12.9193 18.3958C12.4047 18.3958 11.986 17.9773 11.986 17.4629C11.986 16.9486 12.4047 16.53 12.9193 16.53C13.434 16.53 13.8528 16.9486 13.8528 17.4629C13.8528 17.9773 13.434 18.3958 12.9193 18.3958Z" fill="#8496B6"/>
<path d="M12.9193 23.041C11.3995 23.041 10.1631 24.2772 10.1631 25.7968C10.1631 27.3164 11.3995 28.5526 12.9193 28.5526C14.4392 28.5526 15.6757 27.3164 15.6757 25.7968C15.6757 24.2772 14.4392 23.041 12.9193 23.041ZM12.9193 26.7298C12.4047 26.7298 11.986 26.3112 11.986 25.7969C11.986 25.2826 12.4047 24.864 12.9193 24.864C13.434 24.864 13.8528 25.2826 13.8528 25.7969C13.8528 26.3112 13.434 26.7298 12.9193 26.7298Z" fill="#8496B6"/>
<path d="M12.9193 31.375C11.3995 31.375 10.1631 32.6112 10.1631 34.1308C10.1631 35.6504 11.3995 36.8866 12.9193 36.8866C14.4392 36.8866 15.6757 35.6504 15.6757 34.1308C15.6757 32.6112 14.4392 31.375 12.9193 31.375ZM12.9193 35.0638C12.4047 35.0638 11.986 34.6452 11.986 34.1309C11.986 33.6165 12.4047 33.198 12.9193 33.198C13.434 33.198 13.8528 33.6165 13.8528 34.1309C13.8528 34.6452 13.434 35.0638 12.9193 35.0638Z" fill="#8496B6"/>
<path d="M28.3842 33.2188H18.805C18.3017 33.2188 17.8936 33.6268 17.8936 34.1302C17.8936 34.6336 18.3017 35.0417 18.805 35.0417H28.3843C28.8876 35.0417 29.2957 34.6336 29.2957 34.1302C29.2957 33.6268 28.8876 33.2188 28.3842 33.2188Z" fill="#8496B6"/>
<path d="M28.3842 24.8867H18.805C18.3017 24.8867 17.8936 25.2948 17.8936 25.7982C17.8936 26.3016 18.3017 26.7096 18.805 26.7096H28.3843C28.8876 26.7096 29.2957 26.3016 29.2957 25.7982C29.2957 25.2948 28.8876 24.8867 28.3842 24.8867Z" fill="#8496B6"/>
<path d="M18.805 18.3737H23.5946C24.0979 18.3737 24.5061 17.9656 24.5061 17.4622C24.5061 16.9588 24.0979 16.5508 23.5946 16.5508H18.805C18.3017 16.5508 17.8936 16.9588 17.8936 17.4622C17.8936 17.9656 18.3016 18.3737 18.805 18.3737Z" fill="#8496B6"/>
</g>
<path d="M55 37.5C55 44.4036 49.4036 50 42.5 50C35.5964 50 30 44.4036 30 37.5C30 30.5964 35.5964 25 42.5 25C49.4036 25 55 30.5964 55 37.5Z" fill="white"/>
<path fill-rule="evenodd" clip-rule="evenodd" d="M42.5 48.3333C48.4831 48.3333 53.3333 43.4831 53.3333 37.5C53.3333 31.5169 48.4831 26.6667 42.5 26.6667C36.5169 26.6667 31.6667 31.5169 31.6667 37.5C31.6667 43.4831 36.5169 48.3333 42.5 48.3333ZM42.5 50C49.4036 50 55 44.4036 55 37.5C55 30.5964 49.4036 25 42.5 25C35.5964 25 30 30.5964 30 37.5C30 44.4036 35.5964 50 42.5 50Z" fill="#8496B6"/>
<rect x="49.168" y="36.668" width="1.66667" height="7.5" transform="rotate(90 49.168 36.668)" fill="#8496B6"/>
<rect x="41.668" y="30.832" width="1.66667" height="7.5" fill="#8496B6"/>
<defs>
<clipPath id="clip0_3493:16536">
<rect width="46.6667" height="46.6667" fill="white"/>
</clipPath>
</defs>
</svg>
