<svg width="63" height="50" viewBox="0 0 63 50" fill="none" xmlns="http://www.w3.org/2000/svg">
<g clip-path="url(#clip0_3493:16601)">
<path d="M47.0703 3.51562H2.92958C1.31416 3.51562 0 4.82988 0 6.44531V35.7422C0 37.3576 1.31416 38.6719 2.92958 38.6719H19.9614L18.3913 44.5316H17.1875C15.8918 44.5832 15.8927 46.4335 17.1875 46.4847H32.8124C34.1081 46.433 34.1072 44.5827 32.8124 44.5316H31.6085L30.0385 38.6719H47.0703C48.6857 38.6719 50 37.3576 50 35.7422V6.44531C50 4.82988 48.6857 3.51562 47.0703 3.51562ZM2.92958 5.46875H47.0703C47.6088 5.46875 48.0469 5.90683 48.0469 6.44531V32.8124H46.0938V8.39843C46.0938 7.85917 45.6565 7.42187 45.1172 7.42187H4.8828C4.34355 7.42187 3.90624 7.85917 3.90624 8.39843V32.8124H1.95312V6.44531C1.95312 5.90683 2.39111 5.46875 2.92958 5.46875ZM5.85936 32.8124V9.37499H44.1406V32.8124H5.85936ZM29.5866 44.5315H20.4132L21.9835 38.6719H28.0166L29.5866 44.5315ZM47.0703 36.7188H2.92958C2.39111 36.7188 1.95312 36.2806 1.95312 35.7422V34.7656H48.0469V35.7422C48.0469 36.2806 47.6088 36.7188 47.0703 36.7188Z" fill="#8496B6"/>
<path d="M28.1 15H23.2249C22.6867 15 22.2499 15.4368 22.2499 15.975V24.1H19.975C19.4368 24.1 19 24.5368 19 25.075C19 25.6132 19.4368 26.05 19.975 26.05H22.2499V27.025C22.2499 27.5632 22.6867 28 23.2249 28C23.7632 28 24.2 27.5632 24.2 27.025V26.05H27.125C27.6632 26.05 28.1 25.6132 28.1 25.075C28.1 24.5368 27.6632 24.1 27.125 24.1H24.2V22.8H28.1C30.2502 22.8 32 21.0502 32 18.9C32 16.7498 30.2502 15 28.1 15ZM28.1 20.85H24.2V16.95H28.1C29.1752 16.95 30.05 17.8248 30.05 18.9C30.05 19.9752 29.1752 20.85 28.1 20.85Z" fill="#8496B6"/>
</g>
<path d="M49 25C44.0373 25 40 29.0107 40 33.9404V41.0599C40 45.9895 44.0373 50 49 50C53.9624 50 58 46.0017 58 41.0872V33.9404C58 29.0107 53.9624 25 49 25Z" fill="white"/>
<path d="M49 25C44.0373 25 40 29.0107 40 33.9404V41.0599C40 45.9895 44.0373 50 49 50C53.9624 50 58 46.0017 58 41.0872V33.9404C58 29.0107 53.9624 25 49 25ZM56.3072 41.0872C56.3072 45.0889 53.0294 48.3444 49 48.3444C44.9709 48.3444 41.6928 45.0765 41.6928 41.0596V33.9404C41.6928 29.9235 44.9709 26.6556 49 26.6556C53.0294 26.6556 56.3072 29.9235 56.3072 33.9404V41.0872Z" fill="#8496B6"/>
<path d="M48.999 32C48.4467 32 47.999 32.3256 47.999 32.7273V35.2727C47.999 35.6744 48.4467 36 48.999 36C49.5513 36 49.999 35.6744 49.999 35.2727V32.7273C49.999 32.3256 49.5513 32 48.999 32Z" fill="#8496B6"/>
<defs>
<clipPath id="clip0_3493:16601">
<rect width="50" height="50" fill="white"/>
</clipPath>
</defs>
</svg>
