<svg width="50" height="50" viewBox="0 0 50 50" fill="none" xmlns="http://www.w3.org/2000/svg">
<g clip-path="url(#clip0_3493:16528)">
<path d="M41.6286 37.1697C39.5653 37.1697 37.8867 35.4923 37.8867 33.4306C37.8867 31.3688 39.5653 29.6914 41.6286 29.6914C43.6903 29.6914 45.3678 31.3688 45.3678 33.4306C45.3678 35.4923 43.6903 37.1697 41.6286 37.1697ZM41.6286 31.6445C40.6422 31.6445 39.8398 32.4457 39.8398 33.4306C39.8398 34.4154 40.6423 35.2166 41.6286 35.2166C42.6135 35.2166 43.4147 34.4154 43.4147 33.4306C43.4147 32.4457 42.6135 31.6445 41.6286 31.6445Z" fill="#8496B6"/>
<path d="M17.6846 16.708V9.82021H34.0588C37.1287 9.82021 39.6262 12.3165 39.6262 15.3848C39.6262 18.4547 37.1287 20.9521 34.0588 20.9521H27.3295C26.7902 20.9521 26.3529 21.3895 26.3529 21.9287C26.3529 22.468 26.7902 22.9053 27.3295 22.9053H34.0588C38.2056 22.9053 41.5793 19.5315 41.5793 15.3848C41.5793 11.2396 38.2056 7.86709 34.0588 7.86709H17.6846V0.976562C17.6846 0.437305 17.2473 0 16.708 0H0.976562C0.437305 0 0 0.437305 0 0.976562V16.708C0 17.2473 0.437305 17.6846 0.976562 17.6846H16.708C17.2473 17.6846 17.6846 17.2473 17.6846 16.708ZM7.01055 1.95312H10.674V5.65234L9.35605 4.84004C9.04209 4.64658 8.6458 4.64639 8.33164 4.83984L7.01064 5.65322V1.95312H7.01055ZM15.7314 15.7314H1.95312V1.95312H5.05742V7.40146C5.05742 7.75527 5.24883 8.08145 5.55771 8.254C5.8667 8.42656 6.24492 8.41865 6.546 8.23291L8.84326 6.81826L11.1381 8.23271C11.2949 8.32939 11.4727 8.37793 11.6505 8.37793C11.8144 8.37793 11.9784 8.33672 12.1266 8.254C12.4355 8.08145 12.6271 7.75527 12.6271 7.40137V1.95312H15.7313V15.7314H15.7314Z" fill="#8496B6"/>
<path d="M45.9695 42.3568C47.9676 39.7314 49.8147 37.2146 49.7763 33.4259C49.7736 28.9333 46.119 25.2796 41.6274 25.2796C37.1343 25.2796 33.4785 28.9338 33.4758 33.4264C33.4376 37.2147 35.2849 39.7321 37.2844 42.3568C35.3144 42.9074 33.9625 43.8178 33.4643 44.9253H9.11543C7.4498 44.9253 6.09473 43.5716 6.09473 41.9075C6.09473 40.2419 7.4498 38.8868 9.11543 38.8868H22.361C25.1036 38.8868 27.3349 36.6568 27.3349 33.9158C27.3349 31.1732 25.1036 28.942 22.361 28.942H9.98184C8.31777 28.942 6.96396 27.5882 6.96396 25.9241C6.96396 24.2601 8.31777 22.9062 9.98184 22.9062H18.5604C19.0997 22.9062 19.537 22.4689 19.537 21.9297C19.537 21.3904 19.0997 20.9531 18.5604 20.9531H9.98184C7.24082 20.9531 5.01084 23.1831 5.01084 25.9241C5.01084 28.6651 7.24082 30.8951 9.98184 30.8951H22.361C24.0267 30.8951 25.3817 32.2502 25.3817 33.9158C25.3817 35.5799 24.0267 36.9337 22.361 36.9337H9.11543C6.37285 36.9337 4.1416 39.1649 4.1416 41.9075C4.1416 44.6484 6.37285 46.8784 9.11543 46.8784H33.463C33.8401 47.7234 34.7142 48.4604 36.0159 49.0096C37.531 49.6487 39.5238 50.0008 41.6274 50.0008C43.7299 50.0008 45.722 49.6487 47.2366 49.0095C49.0188 48.2571 50.0005 47.1535 50.0005 45.9017C50.0005 44.3577 48.492 43.0621 45.9695 42.3568ZM35.4288 33.4415C35.4289 33.4381 35.4289 33.4347 35.4289 33.4312C35.4289 30.0134 38.2096 27.2327 41.6274 27.2327C45.0437 27.2327 47.8231 30.0134 47.8231 33.4312C47.8231 33.4347 47.8231 33.4381 47.8232 33.4415C47.8572 36.6553 46.1942 38.8386 44.2688 41.3664C44.068 41.6301 42.1099 43.9645 42.1099 43.9645C41.941 44.1595 41.7656 44.2731 41.6273 44.2773C41.4365 44.2718 41.242 44.0795 41.1437 43.966C41.1437 43.966 39.1891 41.6336 38.9893 41.3717C37.0604 38.842 35.3948 36.6575 35.4288 33.4415ZM41.6274 48.0477C37.4717 48.0477 35.2047 46.63 35.2047 45.9017C35.2047 45.4052 36.2974 44.5116 38.6304 44.0416L39.6653 45.2425C40.367 46.0531 41.116 46.2271 41.621 46.2305H41.6272C41.6272 46.2305 41.6315 46.2305 41.6336 46.2305C42.1372 46.2271 42.8848 46.0531 43.5872 45.2416L44.6233 44.0415C46.9551 44.5116 48.0472 45.4053 48.0472 45.9017C48.0474 46.63 45.7813 48.0477 41.6274 48.0477Z" fill="#8496B6"/>
<path d="M21.9678 21.9297C21.9678 22.4689 22.4051 22.9062 22.9443 22.9062H22.9471C23.4863 22.9062 23.9223 22.4689 23.9223 21.9297C23.9223 21.3904 23.4836 20.9531 22.9442 20.9531C22.4049 20.9531 21.9678 21.3903 21.9678 21.9297Z" fill="#8496B6"/>
</g>
<defs>
<clipPath id="clip0_3493:16528">
<rect width="50" height="50" fill="white"/>
</clipPath>
</defs>
</svg>
