<svg width="60" height="50" viewBox="0 0 60 50" fill="none" xmlns="http://www.w3.org/2000/svg">
<g clip-path="url(#clip0_3493:16551)">
<path d="M45.7031 25.8859C45.1281 25.8859 44.6615 25.8424 44.6615 25.2674V14.8484L7.16146 8.92761V24.5838C7.16146 25.1588 6.69479 25.2674 6.11979 25.2674C5.54479 25.2674 5.07812 25.1588 5.07812 24.5838L5.07813 7.70886C5.07813 7.40469 5.21146 7.11511 5.44271 6.91719C5.67396 6.71927 5.97813 6.63177 6.28229 6.68177L45.8656 12.9318C46.3719 13.0089 46.7448 13.4464 46.7448 13.9589V25.2674C46.7448 25.8424 46.2781 25.8859 45.7031 25.8859Z" fill="#8496B6"/>
<path d="M39.4531 22.0827H37.3698C36.7948 22.0827 36.3281 21.616 36.3281 21.041V18.9577C36.3281 18.3827 36.7948 17.916 37.3698 17.916H39.4531C40.0281 17.916 40.4948 18.3827 40.4948 18.9577V21.041C40.4948 21.616 40.0281 22.0827 39.4531 22.0827Z" fill="#8496B6"/>
<path d="M31.1211 22.0827H29.0378C28.4628 22.0827 27.9961 21.616 27.9961 21.041V18.9577C27.9961 18.3827 28.4628 17.916 29.0378 17.916H31.1211C31.6961 17.916 32.1627 18.3827 32.1627 18.9577V21.041C32.1627 21.616 31.6961 22.0827 31.1211 22.0827Z" fill="#8496B6"/>
<path d="M22.7852 22.0827H20.7018C20.1268 22.0827 19.6602 21.616 19.6602 21.041V18.9577C19.6602 18.3827 20.1268 17.916 20.7018 17.916H22.7852C23.3602 17.916 23.8268 18.3827 23.8268 18.9577V21.041C23.8268 21.616 23.3602 22.0827 22.7852 22.0827Z" fill="#8496B6"/>
<path d="M14.4531 22.0827H12.3698C11.7948 22.0827 11.3281 21.616 11.3281 21.041V18.9577C11.3281 18.3827 11.7948 17.916 12.3698 17.916H14.4531C15.0281 17.916 15.4948 18.3827 15.4948 18.9577V21.041C15.4948 21.616 15.0281 22.0827 14.4531 22.0827Z" fill="#8496B6"/>
<path d="M41.5378 13.9583C40.9628 13.9583 40.4961 13.4917 40.4961 12.9167V2.08333H36.3294V11.6667C36.3294 12.2417 35.8628 12.7083 35.2878 12.7083C34.7128 12.7083 34.2461 12.2417 34.2461 11.6667V1.04167C34.2461 0.466667 34.7128 0 35.2878 0H41.5378C42.1128 0 42.5794 0.466667 42.5794 1.04167V12.9167C42.5794 13.4917 42.1128 13.9583 41.5378 13.9583Z" fill="#8496B6"/>
<path d="M44.1068 2.08333H32.7787C32.2037 2.08333 32.1602 1.61667 32.1602 1.04167C32.1602 0.466667 32.2037 0 32.7787 0H44.1068C44.6818 0 44.6602 0.466667 44.6602 1.04167C44.6602 1.61667 44.6818 2.08333 44.1068 2.08333Z" fill="#8496B6"/>
<path d="M3.90625 41.666H5.95703V45.2793H3.90625V41.666Z" fill="#8496B6"/>
<path d="M29.3182 45C29.6947 45 30 45.2487 30 45.5556L30 46.1111C30 46.4179 29.6947 46.6667 29.3182 46.6667L0.681818 46.6667C0.305262 46.6667 -6.19793e-08 46.4179 -4.85677e-08 46.1111L-2.42839e-08 45.5556C-1.08723e-08 45.2487 0.305262 45 0.681818 45L29.3182 45Z" fill="#8496B6"/>
<path d="M24.1211 41.4512H26.1719V45.0645H24.1211V41.4512Z" fill="#8496B6"/>
<path fill-rule="evenodd" clip-rule="evenodd" d="M5.66406 29.6348V37.3496H12.9883V29.6348H5.66406ZM4.58984 27.877C4.21231 27.877 3.90625 28.183 3.90625 28.5605V38.4238C3.90625 38.8014 4.21231 39.1074 4.58984 39.1074H14.0625C14.44 39.1074 14.7461 38.8014 14.7461 38.4238V28.5605C14.7461 28.183 14.44 27.877 14.0625 27.877H4.58984Z" fill="#8496B6"/>
<path fill-rule="evenodd" clip-rule="evenodd" d="M1.85547 26.0215V41.0605H28.2227V26.0215H1.85547ZM0.683594 24.166C0.306055 24.166 0 24.4721 0 24.8496V42.2324C0 42.61 0.306055 42.916 0.683593 42.916H29.3945C29.7721 42.916 30.0781 42.61 30.0781 42.2324V24.8496C30.0781 24.4721 29.7721 24.166 29.3945 24.166H0.683594Z" fill="#8496B6"/>
<path fill-rule="evenodd" clip-rule="evenodd" d="M18.3594 29.6348V30.9043H24.4141V29.6348H18.3594ZM17.2852 27.877C16.9076 27.877 16.6016 28.183 16.6016 28.5605V31.9785C16.6016 32.3561 16.9076 32.6621 17.2852 32.6621H25.4883C25.8658 32.6621 26.1719 32.3561 26.1719 31.9785V28.5605C26.1719 28.183 25.8658 27.877 25.4883 27.877H17.2852Z" fill="#8496B6"/>
<path fill-rule="evenodd" clip-rule="evenodd" d="M18.3594 35.8848V37.1543H24.4141V35.8848H18.3594ZM17.2852 34.127C16.9076 34.127 16.6016 34.433 16.6016 34.8105V38.2285C16.6016 38.6061 16.9076 38.9121 17.2852 38.9121H25.4883C25.8658 38.9121 26.1719 38.6061 26.1719 38.2285V34.8105C26.1719 34.433 25.8658 34.127 25.4883 34.127H17.2852Z" fill="#8496B6"/>
<path d="M45.7656 47.9167C42.3198 47.9167 39.5156 45.1125 39.5156 41.6667V38.5417C39.5156 37.9667 39.9823 37.5 40.5573 37.5H50.974C51.549 37.5 52.0156 37.9667 52.0156 38.5417V41.6667C52.0156 45.1125 49.2115 47.9167 45.7656 47.9167ZM41.599 39.5833V41.6667C41.599 43.9646 43.4677 45.8333 45.7656 45.8333C48.0635 45.8333 49.9323 43.9646 49.9323 41.6667V39.5833H41.599Z" fill="#8496B6"/>
<path d="M53.5478 39.5833H38.0205C37.4455 39.5833 37.4346 39.1167 37.4346 38.5417C37.4346 37.9667 37.4455 37.5 38.0205 37.5H53.5478C54.1228 37.5 54.1012 37.9667 54.1012 38.5417C54.1012 39.1167 54.1228 39.5833 53.5478 39.5833Z" fill="#8496B6"/>
<path d="M50.974 39.5833H40.5573C39.9823 39.5833 39.5156 39.1167 39.5156 38.5417V36.4583C39.5156 33.5875 41.8531 31.25 44.724 31.25H46.8073C49.6781 31.25 52.0156 33.5875 52.0156 36.4583V38.5417C52.0156 39.1167 51.549 39.5833 50.974 39.5833ZM41.599 37.5H49.9323V36.4583C49.9323 34.7354 48.5302 33.3333 46.8073 33.3333H44.724C43.001 33.3333 41.599 34.7354 41.599 36.4583V37.5Z" fill="#8496B6"/>
<path d="M55.1424 50C54.759 50 54.3924 49.7896 54.209 49.425L53.2778 47.5604C52.7465 46.4958 51.6736 45.8333 50.484 45.8333C49.909 45.8333 49.4424 45.3667 49.4424 44.7917C49.4424 44.2167 49.909 43.75 50.484 43.75C52.4695 43.75 54.2528 44.8521 55.1424 46.6292L56.0736 48.4938C56.332 49.0083 56.1215 49.6333 55.607 49.8917C55.459 49.9646 55.3007 50 55.1424 50Z" fill="#8496B6"/>
<path d="M36.3924 50C36.2361 50 36.0778 49.9646 35.9278 49.8896C35.4132 49.6313 35.2049 49.0062 35.4611 48.4917L36.3924 46.6271C37.282 44.8521 39.0653 43.75 41.0507 43.75C41.6257 43.75 42.0924 44.2167 42.0924 44.7917C42.0924 45.3667 41.6257 45.8333 41.0507 45.8333C39.8611 45.8333 38.7903 46.4958 38.257 47.5604L37.3257 49.425C37.1403 49.7896 36.7736 50 36.3924 50Z" fill="#8496B6"/>
<path fill-rule="evenodd" clip-rule="evenodd" d="M46.7422 34.2773L46.7422 29.9805C46.7422 29.4055 46.2755 29.3945 45.7005 29.3945C45.1255 29.3945 44.6588 29.4055 44.6588 29.9805L44.6588 34.2773L46.7422 34.2773Z" fill="#8496B6"/>
<path fill-rule="evenodd" clip-rule="evenodd" d="M44.6611 30.3066L44.6611 34.6035C44.6611 35.1785 45.1278 35.1895 45.7028 35.1895C46.2778 35.1895 46.7445 35.1785 46.7445 34.6035L46.7445 30.3066L44.6611 30.3066Z" fill="#8496B6"/>
</g>
<defs>
<clipPath id="clip0_3493:16551">
<rect width="59.375" height="50" fill="white"/>
</clipPath>
</defs>
</svg>
