<svg width="17" height="9" viewBox="0 0 17 9" fill="none" xmlns="http://www.w3.org/2000/svg">
<path d="M15.5351 0.267578C14.7273 0.267578 14.0702 0.924735 14.0702 1.73247C14.0702 1.97804 14.1312 2.2095 14.2385 2.41297L11.3136 5.88296C11.0179 5.77997 10.687 5.77127 10.3706 5.87682L7.45882 2.42246C7.56918 2.21674 7.63194 1.98182 7.63194 1.73247C7.63194 0.924702 6.97478 0.267578 6.16705 0.267578C5.35928 0.267578 4.70216 0.924735 4.70216 1.73247C4.70216 1.97492 4.76173 2.20362 4.86645 2.40523L1.93727 5.88021C0.986465 5.55528 0 6.26722 0 7.26651C0 8.07427 0.657156 8.7314 1.46489 8.7314C2.27265 8.7314 2.92978 8.07424 2.92978 7.26651C2.92978 7.02094 2.86875 6.78948 2.7615 6.58601L5.68643 3.11601C5.98201 3.21897 6.31291 3.22777 6.6294 3.12215L9.54118 6.57651C9.43085 6.78224 9.36806 7.01715 9.36806 7.26651C9.36806 8.07427 10.0252 8.7314 10.833 8.7314C11.6407 8.7314 12.2978 8.07424 12.2978 7.26651C12.2978 7.02406 12.2383 6.79535 12.1336 6.59375L15.0627 3.11877C16.0136 3.44369 17 2.73175 17 1.73247C17 0.924702 16.3428 0.267578 15.5351 0.267578ZM1.46489 7.64629C1.25548 7.64629 1.08511 7.47592 1.08511 7.26651C1.08511 7.0571 1.25548 6.88673 1.46489 6.88673C1.6743 6.88673 1.84467 7.0571 1.84467 7.26651C1.84467 7.47592 1.67433 7.64629 1.46489 7.64629ZM6.16702 2.11225C5.9576 2.11225 5.78724 1.94188 5.78724 1.73247C5.78724 1.52306 5.9576 1.35269 6.16702 1.35269C6.37643 1.35269 6.54679 1.52306 6.54679 1.73247C6.54679 1.94188 6.37646 2.11225 6.16702 2.11225ZM10.833 7.64629C10.6236 7.64629 10.4532 7.47592 10.4532 7.26651C10.4532 7.0571 10.6236 6.88673 10.833 6.88673C11.0424 6.88673 11.2128 7.0571 11.2128 7.26651C11.2128 7.47592 11.0424 7.64629 10.833 7.64629ZM15.5351 2.11225C15.3257 2.11225 15.1553 1.94188 15.1553 1.73247C15.1553 1.52306 15.3257 1.35269 15.5351 1.35269C15.7445 1.35269 15.9149 1.52306 15.9149 1.73247C15.9149 1.94188 15.7445 2.11225 15.5351 2.11225Z" fill="#BFC9DF"/>
</svg>
