<svg width="20" height="20" viewBox="0 0 20 20" fill="none" xmlns="http://www.w3.org/2000/svg">
<path d="M3.75004 5.7041V0.625H2.50004V5.7041C1.96338 5.84272 1.48799 6.15573 1.14858 6.59394C0.809176 7.03216 0.625 7.57072 0.625 8.125C0.625 8.67928 0.809176 9.21785 1.14858 9.65606C1.48799 10.0943 1.96338 10.4073 2.50004 10.5459V19.375H3.75004V10.5459C4.28671 10.4073 4.7621 10.0943 5.10151 9.65606C5.44091 9.21785 5.62509 8.67928 5.62509 8.125C5.62509 7.57072 5.44091 7.03216 5.10151 6.59394C4.7621 6.15573 4.28671 5.84272 3.75004 5.7041ZM3.12504 9.375C2.87782 9.375 2.63614 9.30169 2.43058 9.16434C2.22502 9.02699 2.0648 8.83176 1.9702 8.60335C1.87559 8.37495 1.85083 8.12361 1.89906 7.88114C1.94729 7.63866 2.06635 7.41593 2.24116 7.24112C2.41598 7.0663 2.63871 6.94725 2.88118 6.89902C3.12366 6.85079 3.37499 6.87554 3.6034 6.97015C3.83181 7.06476 4.02703 7.22498 4.16438 7.43054C4.30173 7.6361 4.37504 7.87777 4.37504 8.125C4.37467 8.45641 4.24286 8.77413 4.00852 9.00847C3.77418 9.24281 3.45645 9.37463 3.12504 9.375Z" fill="#8E99AF"/>
<path d="M10.6241 11.3291V0.625H9.37411V11.3291C8.83744 11.4677 8.36205 11.7807 8.02264 12.2189C7.68324 12.6572 7.49906 13.1957 7.49906 13.75C7.49906 14.3043 7.68324 14.8428 8.02264 15.2811C8.36205 15.7193 8.83744 16.0323 9.37411 16.1709V19.375H10.6241V16.1709C11.1608 16.0323 11.6362 15.7193 11.9756 15.2811C12.315 14.8428 12.4992 14.3043 12.4992 13.75C12.4992 13.1957 12.315 12.6572 11.9756 12.2189C11.6362 11.7807 11.1608 11.4677 10.6241 11.3291ZM9.99911 15C9.75188 15 9.51021 14.9267 9.30465 14.7893C9.09908 14.652 8.93887 14.4568 8.84426 14.2284C8.74965 13.9999 8.72489 13.7486 8.77313 13.5061C8.82136 13.2637 8.94041 13.0409 9.11522 12.8661C9.29004 12.6913 9.51277 12.5723 9.75525 12.524C9.99772 12.4758 10.2491 12.5005 10.4775 12.5952C10.7059 12.6898 10.9011 12.85 11.0384 13.0555C11.1758 13.2611 11.2491 13.5028 11.2491 13.75C11.2487 14.0814 11.1169 14.3991 10.8826 14.6335C10.6482 14.8678 10.3305 14.9996 9.99911 15Z" fill="#8E99AF"/>
<path d="M17.5002 3.2041V0.625H16.2502V3.2041C15.7136 3.34272 15.2382 3.65573 14.8988 4.09394C14.5594 4.53215 14.3752 5.07072 14.3752 5.625C14.3752 6.17928 14.5594 6.71785 14.8988 7.15606C15.2382 7.59427 15.7136 7.90728 16.2502 8.0459V19.375H17.5002V8.0459C18.0369 7.90728 18.5123 7.59427 18.8517 7.15606C19.1911 6.71785 19.3753 6.17928 19.3753 5.625C19.3753 5.07072 19.1911 4.53215 18.8517 4.09394C18.5123 3.65573 18.0369 3.34272 17.5002 3.2041ZM16.8752 6.875C16.628 6.875 16.3863 6.80169 16.1808 6.66434C15.9752 6.52699 15.815 6.33176 15.7204 6.10335C15.6258 5.87495 15.601 5.62361 15.6492 5.38114C15.6975 5.13866 15.8165 4.91593 15.9913 4.74112C16.1662 4.5663 16.3889 4.44725 16.6314 4.39902C16.8738 4.35079 17.1252 4.37554 17.3536 4.47015C17.582 4.56476 17.7772 4.72498 17.9146 4.93054C18.0519 5.1361 18.1252 5.37777 18.1252 5.625C18.1249 5.95641 17.993 6.27413 17.7587 6.50847C17.5244 6.74281 17.2066 6.87463 16.8752 6.875Z" fill="#8E99AF"/>
</svg>
