<svg width="22" height="20" viewBox="0 0 22 20" fill="none" xmlns="http://www.w3.org/2000/svg">
<path d="M21.9113 7.78597L18.0012 1.1231C17.8219 0.817639 17.4298 0.714041 17.1231 0.891158L14.7797 2.24412L12.6688 1.46771C12.0087 1.2249 11.2806 1.28733 10.6714 1.63907L7.46608 3.48969L4.62443 1.84902C4.47335 1.76179 4.29344 1.73958 4.12561 1.78731C3.95786 1.8351 3.81662 1.94879 3.73416 2.10258L0.0766187 8.92176C-0.0878657 9.22851 0.0208882 9.61055 0.322357 9.78457L1.77371 10.6225L1.04586 11.8832C0.512752 12.8066 0.830248 13.9914 1.7536 14.5245C2.18217 14.772 2.66699 14.8359 3.11692 14.7413C3.25996 15.1782 3.55773 15.5662 3.9863 15.8136C4.41487 16.061 4.89969 16.125 5.34962 16.0304C5.49266 16.4673 5.79043 16.8553 6.219 17.1027C6.64757 17.3501 7.13239 17.414 7.58231 17.3194C7.7254 17.7564 8.02317 18.1443 8.45174 18.3917C9.3751 18.9248 10.56 18.6073 11.0931 17.684L11.1763 17.5397L13.5951 18.9362C14.5185 19.4693 15.7033 19.1518 16.2364 18.2285C16.3622 18.0106 16.4401 17.778 16.4744 17.543C17.2968 17.7596 18.1966 17.4115 18.6418 16.6403C18.7951 16.3748 18.8777 16.0876 18.8962 15.8005C19.5997 15.8374 20.2993 15.4881 20.6751 14.8373C21.0509 14.1864 21.0036 13.4059 20.6198 12.815C20.8592 12.6555 21.0666 12.4404 21.22 12.1748C21.7383 11.277 21.4523 10.1321 20.5872 9.57935L21.765 8.60976C22.0097 8.40841 22.0717 8.05916 21.9113 7.78597ZM11.316 2.75544C11.5928 2.59551 11.9237 2.5672 12.2239 2.67758L14.618 3.55819C14.7976 3.62423 14.9971 3.60708 15.1628 3.51144L17.2134 2.32752L20.5212 7.96411L19.397 8.88962L11.6555 4.42001C11.4561 4.30485 11.2104 4.30485 11.011 4.42001L7.44795 6.4771C7.15142 6.65649 6.73454 6.54481 6.56752 6.2412C6.38813 5.94476 6.49985 5.52774 6.80342 5.36077L11.316 2.75544ZM2.39818 13.4082C2.09039 13.2305 1.98456 12.8355 2.16228 12.5277L3.2365 10.6672C3.41422 10.3594 3.80914 10.2535 4.11693 10.4313C4.42471 10.609 4.53054 11.0039 4.35283 11.3117L3.27861 13.1723C3.10093 13.4801 2.70596 13.5859 2.39818 13.4082ZM4.63088 14.6972C4.32309 14.5195 4.21726 14.1246 4.39498 13.8168L5.89888 11.212C6.0766 10.9041 6.47153 10.7983 6.77931 10.9761C7.0871 11.1538 7.19293 11.5487 7.01521 11.8565L5.51131 14.4613C5.33363 14.7691 4.93866 14.875 4.63088 14.6972ZM6.86358 15.9863C6.55579 15.8086 6.44996 15.4137 6.62768 15.1059L7.7019 13.2453C7.87961 12.9375 8.27454 12.8317 8.58232 13.0094C8.89011 13.1871 8.99594 13.582 8.81822 13.8898L7.74401 15.7504C7.56633 16.0582 7.1714 16.164 6.86358 15.9863ZM9.09632 17.2754C8.78853 17.0977 8.68266 16.7027 8.86038 16.3949L9.50491 15.2786C9.68263 14.9708 10.0776 14.8649 10.3854 15.0427C10.6932 15.2204 10.799 15.6153 10.6213 15.9231L9.97675 17.0395C9.79907 17.3473 9.40415 17.4531 9.09632 17.2754ZM19.5589 14.1927C19.3811 14.5005 18.9862 14.6064 18.6784 14.4286L15.3294 12.495C15.0211 12.3171 14.6269 12.4227 14.4489 12.7309C14.271 13.0392 14.3766 13.4334 14.6848 13.6114L17.2896 15.1153C17.5974 15.293 17.7033 15.6879 17.5255 15.9957C17.3478 16.3035 16.9529 16.4093 16.6451 16.2316L14.0403 14.7277C13.732 14.5497 13.3378 14.6553 13.1599 14.9636C12.9819 15.2719 13.0875 15.666 13.3958 15.844L14.8843 16.7034C15.192 16.8811 15.2979 17.276 15.1201 17.5838C14.9424 17.8916 14.5475 17.9974 14.2397 17.8197L11.8143 16.4194C12.2351 15.521 11.9047 14.4312 11.03 13.9262C10.7644 13.7729 10.4772 13.6903 10.1901 13.6718C10.227 12.9683 9.87775 12.2686 9.2269 11.8928C8.96135 11.7395 8.67415 11.6569 8.38708 11.6385C8.42399 10.9349 8.07469 10.2353 7.42384 9.85955C6.773 9.48379 5.99251 9.5311 5.40165 9.91485C5.24215 9.67543 5.02701 9.46802 4.76146 9.31471C4.01827 8.88562 3.10596 9.00795 2.50014 9.55331L1.50791 8.98058L4.55581 3.29792L6.17702 4.23396L6.15889 4.24444C5.71163 4.50268 5.39168 4.91965 5.25796 5.41852C5.12433 5.91738 5.19291 6.43847 5.45115 6.88573C5.70939 7.33299 6.12636 7.65294 6.62523 7.78665C7.12409 7.92024 7.64518 7.85171 8.09244 7.59347L11.3332 5.72243L19.8677 10.6499C20.1755 10.8276 20.2813 11.2226 20.1036 11.5303C19.9259 11.8381 19.531 11.944 19.2232 11.7662L16.6184 10.2623C16.3101 10.0844 15.9159 10.19 15.738 10.4982C15.56 10.8065 15.6656 11.2007 15.9739 11.3787L19.3229 13.3123C19.6308 13.49 19.7366 13.885 19.5589 14.1927Z" fill="white"/>
</svg>
