<svg width="14" height="19" viewBox="0 0 14 19" fill="none" xmlns="http://www.w3.org/2000/svg">
<path d="M6.91699 4.98419C6.42253 4.98419 5.93918 5.13081 5.52806 5.40551C5.11694 5.68022 4.79651 6.07066 4.60729 6.52748C4.41807 6.98429 4.36856 7.48696 4.46502 7.97191C4.56149 8.45687 4.79959 8.90232 5.14922 9.25195C5.49885 9.60159 5.94431 9.83969 6.42926 9.93615C6.91421 10.0326 7.41688 9.98311 7.87369 9.79389C8.33051 9.60467 8.72096 9.28424 8.99566 8.87311C9.27036 8.46199 9.41699 7.97864 9.41699 7.48419C9.41623 6.82138 9.1526 6.18593 8.68392 5.71725C8.21524 5.24858 7.57979 4.98494 6.91699 4.98419ZM6.91699 8.73419C6.66976 8.73419 6.42808 8.66088 6.22252 8.52352C6.01696 8.38617 5.85675 8.19095 5.76214 7.96254C5.66753 7.73413 5.64277 7.4828 5.691 7.24032C5.73923 6.99785 5.85829 6.77512 6.0331 6.6003C6.20792 6.42549 6.43065 6.30644 6.67312 6.25821C6.9156 6.20997 7.16693 6.23473 7.39534 6.32934C7.62375 6.42395 7.81897 6.58416 7.95632 6.78972C8.09367 6.99529 8.16699 7.23696 8.16699 7.48419C8.1666 7.81559 8.03478 8.13331 7.80045 8.36765C7.56611 8.60199 7.24839 8.7338 6.91699 8.73419Z" fill="white"/>
<path d="M11.7222 2.67579C10.5344 1.4883 8.94886 0.78289 7.27156 0.695692C5.59426 0.608494 3.94411 1.14569 2.63959 2.20361C1.33508 3.26153 0.468672 4.76516 0.207597 6.42432C-0.0534771 8.08347 0.309285 9.78052 1.22587 11.1879L5.9488 18.4384C6.0539 18.5998 6.19761 18.7323 6.36689 18.8241C6.53618 18.9158 6.72568 18.9639 6.91823 18.9639C7.11079 18.9639 7.30029 18.9158 7.46958 18.8241C7.63886 18.7323 7.78257 18.5998 7.88767 18.4384L12.6108 11.1879C13.4612 9.88235 13.8371 8.3241 13.6753 6.77436C13.5136 5.22462 12.824 3.77758 11.7222 2.67579ZM11.5634 10.5056L6.91825 17.6365L2.27306 10.5056C0.851184 8.32286 1.15614 5.40176 2.99818 3.55965C3.51296 3.04485 4.12411 2.63649 4.79672 2.35788C5.46933 2.07927 6.19023 1.93587 6.91825 1.93587C7.64628 1.93587 8.36718 2.07927 9.03979 2.35788C9.7124 2.63649 10.3235 3.04485 10.8383 3.55965C12.6804 5.40176 12.9853 8.32286 11.5634 10.5056Z" fill="white"/>
</svg>
