<svg width="62" height="62" viewBox="0 0 62 62" fill="none" xmlns="http://www.w3.org/2000/svg">
<path d="M3.47045 28.0491L3.37856 28.7571C3.25125 28.7229 3.12926 28.6658 3.01258 28.5858C2.89188 28.5007 2.77709 28.388 2.66822 28.2479C2.55996 28.1031 2.48348 27.9129 2.43878 27.6771C2.39006 27.4362 2.38461 27.1699 2.42245 26.8784C2.48551 26.3924 2.64221 26.0189 2.89255 25.7579C3.13826 25.4962 3.42094 25.3848 3.7406 25.4236C3.9398 25.4478 4.1025 25.5357 4.2287 25.6873C4.3555 25.8343 4.42683 26.0098 4.4427 26.2139C4.68635 25.6418 5.04213 25.3841 5.51003 25.4408C5.83895 25.4808 6.08371 25.6797 6.24431 26.0376C6.4055 26.3909 6.45367 26.8175 6.38881 27.3173C6.35217 27.5996 6.29396 27.8487 6.21417 28.0647C6.13962 28.2766 6.05395 28.4471 5.95718 28.5764C5.85637 28.7005 5.74206 28.8018 5.61423 28.8803C5.4864 28.9588 5.36187 29.0119 5.24065 29.0395C5.11943 29.0671 4.98812 29.0817 4.84674 29.0833L4.94133 28.3545C5.20094 28.3483 5.40006 28.2644 5.5387 28.1026C5.6733 27.9356 5.76553 27.66 5.81538 27.2759C5.85442 26.9751 5.83679 26.7121 5.7625 26.4868C5.68881 26.257 5.55236 26.1299 5.35315 26.1058C4.95011 26.0569 4.70384 26.3772 4.61436 27.0667L4.5558 27.518L4.03462 27.4547L4.08777 27.0452C4.12921 26.7258 4.11695 26.494 4.05098 26.3497C3.985 26.2054 3.85937 26.122 3.67406 26.0995C3.49338 26.0776 3.34239 26.1533 3.22108 26.3266C3.09977 26.4999 3.0238 26.7045 2.99317 26.9406C2.95233 27.2553 2.97004 27.4995 3.04631 27.6733C3.12257 27.8471 3.26396 27.9723 3.47045 28.0491Z" fill="#13B165"/>
<path d="M5.76377 21.4168C5.81095 21.6169 5.77466 22.0036 5.65491 22.5771C5.56688 22.9943 5.5323 23.2937 5.55118 23.4753C5.57006 23.6569 5.67983 23.7787 5.88049 23.8406C6.05439 23.8943 6.21522 23.8682 6.36296 23.7624C6.51215 23.6522 6.62756 23.473 6.70918 23.2247C6.84034 22.8257 6.86347 22.4715 6.77855 22.1621C6.69509 21.8482 6.5352 21.6548 6.29886 21.5819L5.76377 21.4168ZM7.06124 21.7952C7.38602 22.2715 7.43983 22.8398 7.22267 23.5004C7.07693 23.9437 6.86956 24.2533 6.60058 24.4291C6.33159 24.6048 6.02765 24.6404 5.68876 24.5358C5.52377 24.4849 5.3891 24.4165 5.28473 24.3306C5.18183 24.2402 5.10631 24.1412 5.0582 24.0336C5.01154 23.9215 4.98551 23.7841 4.98009 23.6213C4.97168 23.4527 4.97887 23.2889 5.00167 23.1299C5.02446 22.9709 5.05965 22.7742 5.10722 22.5399C5.11871 22.4751 5.13675 22.3903 5.16135 22.2856C5.18596 22.1809 5.20404 22.1034 5.21562 22.0533C5.22719 22.0031 5.2409 21.939 5.25676 21.8609C5.26962 21.777 5.27742 21.7159 5.28016 21.6777C5.2829 21.6395 5.28337 21.5932 5.28156 21.5389C5.28121 21.4802 5.27577 21.437 5.26522 21.4094C5.25021 21.3803 5.23297 21.3506 5.2135 21.3202C5.19103 21.2839 5.16342 21.2559 5.13066 21.236C5.09344 21.2148 5.05031 21.1966 5.00126 21.1814C4.80952 21.1222 4.64355 21.1565 4.50336 21.2841C4.36462 21.4073 4.24206 21.6307 4.13567 21.9544C4.01616 22.3179 3.98523 22.6062 4.04287 22.8193C4.09751 23.0266 4.249 23.1784 4.49734 23.2745L4.27654 23.9462C3.44388 23.6404 3.209 22.9355 3.57189 21.8316C3.76865 21.2331 3.99628 20.8395 4.25481 20.6507C4.51479 20.4575 4.86327 20.4283 5.30027 20.5632L6.7584 21.0132C6.9546 21.0738 7.10458 21.0957 7.20834 21.0789C7.30909 21.0562 7.37915 20.9851 7.4185 20.8654C7.43453 20.8166 7.44897 20.7503 7.46183 20.6663L7.98354 20.8274C7.95209 21.0276 7.91159 21.2031 7.86203 21.3539C7.7469 21.7041 7.47997 21.8512 7.06124 21.7952Z" fill="#13B165"/>
<path d="M5.2084 15.3987L5.54419 14.7925C5.78086 15.068 5.89744 15.3101 5.89394 15.5186C5.89044 15.7271 5.79556 16.0668 5.60932 16.5379C5.39253 17.0929 5.3087 17.5331 5.35785 17.8583C5.40285 18.1814 5.58248 18.4589 5.89673 18.6907C5.79408 18.4427 5.75696 18.1632 5.78537 17.8519C5.81603 17.5366 5.90373 17.2483 6.04844 16.9871C6.32205 16.4931 6.68875 16.1632 7.14855 15.9975C7.6106 15.8276 8.08591 15.8697 8.57447 16.1238C9.092 16.3929 9.40372 16.7785 9.50962 17.2805C9.61552 17.7825 9.51471 18.3111 9.20719 18.8663C8.89062 19.4378 8.47872 19.7915 7.97151 19.9273C7.46429 20.0632 6.90844 19.9739 6.30395 19.6596C5.62494 19.3065 5.16716 18.8765 4.93062 18.3697C4.6922 17.8566 4.71513 17.2375 4.9994 16.5125C5.15511 16.1255 5.24485 15.8672 5.26864 15.7376C5.29243 15.608 5.27235 15.495 5.2084 15.3987ZM7.21429 16.6153C6.89345 16.7324 6.63127 16.9747 6.42776 17.3421C6.22425 17.7095 6.16476 18.0624 6.24929 18.4008C6.33608 18.7351 6.55337 18.9927 6.90115 19.1735C7.29034 19.3759 7.65044 19.4239 7.98144 19.3173C8.3083 19.2086 8.57913 18.9603 8.79395 18.5725C8.99746 18.2051 9.04434 17.8509 8.93458 17.5099C8.82295 17.1627 8.59325 16.8986 8.24546 16.7177C7.88111 16.5283 7.53739 16.4941 7.21429 16.6153Z" fill="#13B165"/>
<path d="M8.16124 14.1065C8.11524 13.5854 8.29808 13.0773 8.70978 12.582C9.12147 12.0868 9.59346 11.8073 10.1257 11.7434C10.6543 11.6767 11.1578 11.83 11.636 12.2032C12.1143 12.5765 12.3742 13.019 12.4158 13.5308C12.4538 14.0396 12.2669 14.5417 11.8552 15.0369C11.4405 15.5357 10.9726 15.8214 10.4513 15.8938C9.9264 15.9634 9.42482 15.8116 8.94657 15.4383C8.46832 15.0651 8.20654 14.6211 8.16124 14.1065ZM10.1378 12.4185C9.79133 12.4558 9.48088 12.6395 9.20642 12.9696C8.93196 13.2998 8.81132 13.6346 8.84451 13.9741C8.87769 14.3136 9.06167 14.614 9.39645 14.8753C9.73123 15.1366 10.0733 15.2468 10.4227 15.2059C10.7721 15.165 11.0841 14.9795 11.3586 14.6493C11.633 14.3192 11.7522 13.9861 11.716 13.6502C11.6828 13.3107 11.4988 13.0103 11.164 12.7491C10.8293 12.4878 10.4872 12.3776 10.1378 12.4185Z" fill="#13B165"/>
<path d="M10.7374 10.4776L13.5775 8.03656L13.9651 8.45994L12.8025 9.45917L14.9579 11.8135L14.443 12.2561L12.2876 9.90175L11.125 10.901L10.7374 10.4776Z" fill="#13B165"/>
<path d="M17.9054 7.47134C17.8116 7.65321 17.5325 7.92224 17.0683 8.27842C16.7298 8.53696 16.5088 8.74102 16.4053 8.89059C16.3018 9.04016 16.3068 9.2033 16.4202 9.38C16.5186 9.53313 16.6587 9.61751 16.8406 9.63312C17.0265 9.64632 17.2313 9.58545 17.4551 9.45051C17.8148 9.23365 18.0626 8.98073 18.1986 8.69176C18.3386 8.40038 18.3417 8.15064 18.208 7.94253L17.9054 7.47134ZM18.6535 8.59724C18.5929 9.16759 18.2649 9.63228 17.6694 9.99132C17.2698 10.2323 16.9098 10.3322 16.5896 10.2911C16.2693 10.2499 16.0134 10.0802 15.8217 9.78173C15.7284 9.63645 15.6697 9.49755 15.6455 9.36502C15.6254 9.23009 15.6319 9.10636 15.6649 8.99382C15.702 8.87888 15.7713 8.75808 15.873 8.63145C15.9761 8.49847 16.088 8.37924 16.2087 8.27376C16.3295 8.16827 16.4842 8.0423 16.6729 7.89585C16.7238 7.85426 16.7927 7.80183 16.8795 7.73855C16.9664 7.67528 17.0306 7.62842 17.072 7.59799C17.1134 7.56756 17.1656 7.52793 17.2285 7.47912C17.2929 7.42396 17.3385 7.38282 17.3655 7.35569C17.3924 7.32856 17.4228 7.29389 17.4567 7.25168C17.4945 7.20706 17.5184 7.17087 17.5283 7.14311C17.5357 7.11143 17.5418 7.07779 17.5466 7.04218C17.553 7.00024 17.55 6.96115 17.5379 6.92492C17.5232 6.88476 17.5019 6.84308 17.4742 6.79989C17.3658 6.63105 17.2164 6.54953 17.0261 6.55533C16.8398 6.55873 16.6007 6.64838 16.309 6.82428C15.9813 7.02187 15.7703 7.21991 15.676 7.41838C15.5832 7.61052 15.6006 7.82332 15.7284 8.05678L15.123 8.42184C14.6838 7.65169 14.9617 6.96661 15.9568 6.36661C16.4964 6.04131 16.9265 5.89093 17.2471 5.91546C17.5718 5.93758 17.8577 6.14105 18.1048 6.52585L18.9295 7.80985C19.0405 7.98262 19.1411 8.09622 19.2315 8.15066C19.3234 8.19876 19.4233 8.19028 19.5312 8.12521C19.5752 8.09871 19.6293 8.05788 19.6937 8.00273L19.9888 8.46214C19.8346 8.59324 19.6895 8.69975 19.5536 8.78168C19.2379 8.97204 18.9379 8.91056 18.6535 8.59724Z" fill="#13B165"/>
<path d="M21.5842 4.29379C21.8439 3.8355 22.2832 3.51732 22.9021 3.33926C23.521 3.1612 24.0661 3.19615 24.5374 3.44412C25.0073 3.68763 25.3311 4.0994 25.5089 4.67944C25.6866 5.25948 25.6465 5.77354 25.3886 6.22162C25.1292 6.66523 24.6901 6.97607 24.0712 7.15413C23.4478 7.33349 22.9025 7.30587 22.4354 7.07128C21.9668 6.83224 21.6436 6.42269 21.4659 5.84265C21.2881 5.26261 21.3275 4.74633 21.5842 4.29379ZM24.162 4.01092C23.8577 3.846 23.4993 3.8229 23.0867 3.94161C22.6741 4.06031 22.3845 4.26987 22.2179 4.57027C22.0513 4.87067 22.0302 5.22389 22.1547 5.62992C22.2791 6.03594 22.4957 6.32077 22.8045 6.4844C23.1133 6.64803 23.474 6.67049 23.8866 6.55178C24.2992 6.43308 24.5865 6.22417 24.7487 5.92505C24.9152 5.62465 24.9363 5.27144 24.8119 4.86541C24.6875 4.45938 24.4708 4.17455 24.162 4.01092Z" fill="#13B165"/>
<path d="M29.165 1.04883L29.8548 0.982885C29.7545 1.33469 29.6164 1.56822 29.4405 1.68348C29.2646 1.79875 28.929 1.91286 28.4339 2.02582C27.852 2.16115 27.4387 2.34129 27.1942 2.56625C26.9492 2.78656 26.8161 3.09228 26.7948 3.48341C26.9455 3.25805 27.1585 3.06892 27.4337 2.91603C27.7137 2.7627 28.0023 2.67182 28.2996 2.6434C28.8617 2.58966 29.3379 2.70587 29.7281 2.99203C30.123 3.27774 30.3482 3.69452 30.4039 4.24237C30.4628 4.82272 30.3118 5.29891 29.9509 5.67094C29.5899 6.04297 29.0936 6.25918 28.4618 6.31958C27.8114 6.38176 27.2906 6.24169 26.8994 5.89938C26.5082 5.55706 26.2781 5.04698 26.2093 4.36913C26.132 3.60771 26.24 2.98562 26.5334 2.50285C26.831 2.01499 27.3602 1.68313 28.1209 1.50726C28.5292 1.41667 28.7939 1.34448 28.9151 1.29071C29.0363 1.23693 29.1196 1.15631 29.165 1.04883ZM29.2485 3.3965C28.9751 3.19762 28.6293 3.11817 28.2112 3.15814C27.7931 3.19811 27.466 3.34892 27.2299 3.61058C26.9984 3.87178 26.9025 4.19739 26.9421 4.58738C26.9864 5.0238 27.1437 5.34864 27.4139 5.56188C27.6837 5.77048 28.0393 5.85369 28.4806 5.8115C28.8987 5.77153 29.2199 5.60956 29.4444 5.32558C29.673 5.03651 29.7676 4.69698 29.728 4.30699C29.6865 3.89842 29.5267 3.59492 29.2485 3.3965Z" fill="#13B165"/>
<path d="M34.3383 3.7404L33.6412 3.62256C33.7936 3.22239 34.0573 2.92859 34.4323 2.74115C34.8073 2.55371 35.2387 2.50122 35.7265 2.58367C36.3246 2.68479 36.7771 2.95058 37.0838 3.38104C37.3914 3.80691 37.4924 4.31381 37.3869 4.90174C37.2813 5.48967 37.01 5.93127 36.573 6.22654C36.1414 6.518 35.6288 6.61355 35.0352 6.51321C34.5244 6.42687 34.1246 6.22441 33.8357 5.90581C33.5514 5.58799 33.4122 5.18822 33.4181 4.70649L34.1221 4.82549C34.1195 5.10427 34.2077 5.33925 34.3867 5.53042C34.5665 5.717 34.8106 5.83635 35.1189 5.88846C35.4824 5.94991 35.8019 5.8998 36.0775 5.73815C36.3577 5.57727 36.5483 5.32081 36.6494 4.96876L34.9446 4.68058L35.0461 4.11561L36.7164 4.39796C36.698 4.07777 36.5867 3.81286 36.3826 3.60324C36.1792 3.38903 35.9027 3.25237 35.553 3.19325C35.2815 3.14736 35.0376 3.17239 34.8213 3.26833C34.6049 3.36427 34.4439 3.52163 34.3383 3.7404Z" fill="#13B165"/>
<path d="M40.0864 3.74377L39.4826 5.27397L41.944 4.43189L42.8893 4.78202L40.6887 5.49684L41.6318 8.33139L40.7719 8.01286L40.0645 5.70595L39.2026 5.98372L38.7042 7.24694L38.0674 7.01109L39.4497 3.50792L40.0864 3.74377Z" fill="#13B165"/>
<path d="M44.3216 5.9745C44.8485 5.86189 45.3877 5.97185 45.9392 6.30438C46.4907 6.63691 46.8287 7.05587 46.9532 7.56125C47.0802 8.0627 46.9798 8.56866 46.652 9.07911C46.3241 9.58957 45.9013 9.89838 45.3834 10.0055C44.868 10.1088 44.3346 9.99414 43.783 9.66161C43.2275 9.32667 42.8838 8.9124 42.7517 8.4188C42.6222 7.92127 42.7213 7.41728 43.0492 6.90682C43.377 6.39636 43.8011 6.08559 44.3216 5.9745ZM46.2653 7.66122C46.1886 7.33174 45.9664 7.05615 45.5988 6.83447C45.2311 6.61278 44.8758 6.54017 44.5328 6.61664C44.1899 6.69312 43.9037 6.91001 43.6742 7.26733C43.4447 7.62465 43.3703 7.96926 43.451 8.30115C43.5316 8.63304 43.7558 8.90983 44.1235 9.13152C44.4912 9.35321 44.8445 9.42461 45.1834 9.34573C45.5264 9.26926 45.8126 9.05236 46.0421 8.69504C46.2716 8.33772 46.346 7.99312 46.2653 7.66122Z" fill="#13B165"/>
<path d="M48.9827 8.48315L51.59 10.8076L48.9967 13.5385L48.4898 13.0866L50.6879 10.772L49.0943 9.35123L47.9422 10.5644C47.2192 11.3257 46.5982 11.4751 46.0791 11.0124C45.9642 10.9099 45.8673 10.7985 45.7885 10.6783L46.1259 10.323C46.1651 10.3766 46.2299 10.4438 46.3205 10.5245C46.4215 10.6146 46.5174 10.6626 46.6082 10.6686C46.699 10.6746 46.821 10.624 46.9742 10.5168C47.1306 10.4063 47.3342 10.2191 47.5848 9.95516L48.9827 8.48315Z" fill="#13B165"/>
<path d="M52.5137 12.4436C53.046 12.5304 53.5088 12.8287 53.9022 13.3386C54.2955 13.8486 54.4583 14.3613 54.3905 14.8768C54.3266 15.3896 54.0489 15.8239 53.5576 16.1798C53.0662 16.5356 52.5595 16.6692 52.0376 16.5806C51.5195 16.4893 51.0638 16.1887 50.6705 15.6788C50.2743 15.1652 50.1044 14.6547 50.1608 14.1474C50.221 13.6373 50.4968 13.2044 50.9881 12.8486C51.4795 12.4928 51.988 12.3578 52.5137 12.4436ZM53.7127 14.7198C53.761 14.3853 53.6541 14.0481 53.3919 13.7081C53.1297 13.3682 52.8248 13.1715 52.4772 13.1179C52.1295 13.0644 51.7838 13.1622 51.4398 13.4113C51.0959 13.6603 50.9011 13.9539 50.8556 14.2921C50.8102 14.6303 50.9185 14.9693 51.1807 15.3093C51.443 15.6493 51.7464 15.8441 52.0912 15.894C52.4388 15.9475 52.7846 15.8497 53.1285 15.6006C53.4725 15.3516 53.6672 15.058 53.7127 14.7198Z" fill="#13B165"/>
<path d="M55.7984 16.2619L57.26 19.0206L56.7461 19.2762L55.6023 17.1175L52.7444 18.5391L52.4265 17.9391L55.7984 16.2619Z" fill="#13B165"/>
<path d="M57.9267 20.6781L55.1242 21.543L58.6438 22.8592L58.8799 23.5774L55.2814 24.688L55.0693 24.043L57.8652 23.1801L54.3501 21.8552L54.1162 21.1436L57.7147 20.033L57.9267 20.6781Z" fill="#13B165"/>
<path d="M59.3149 25.7522L56.4033 26.1062L59.6098 28.0292L59.7069 28.7789L55.9684 29.2334L55.8812 28.56L58.7858 28.2069L55.5854 26.2761L55.4892 25.5333L59.2277 25.0788L59.3149 25.7522Z" fill="#13B165"/>
<g clip-path="url(#clip0)">
<path d="M39.9474 15.9766L38.9183 16.4446C35.7452 17.8449 31.1611 18.3715 27.2552 19.7523C25.3023 20.4427 23.4936 21.3632 22.1409 22.8415C20.7883 24.3198 19.958 26.3559 19.958 28.9576C19.958 31.649 21.5406 33.4939 23.0141 34.5432C23.6417 34.9918 24.2498 35.3155 24.7604 35.5417C24.1446 36.6846 23.6885 37.7143 23.3883 38.5998C22.8426 40.1951 22.7568 41.4433 22.7958 42.3443C22.8348 43.2453 22.9517 43.8616 22.9517 43.8421L24.9476 44.0293C25.0099 43.3077 24.8228 42.9294 24.7916 42.2507C24.7604 41.572 24.8189 40.6397 25.2906 39.2551C26.2339 36.4896 28.8495 31.9376 35.6439 24.6514L34.2094 23.2784C30.1359 27.647 27.5047 31.0522 25.7895 33.7943C25.353 33.6188 24.7682 33.3496 24.1679 32.9206C23.0102 32.0975 21.9538 30.8923 21.9538 28.9576C21.9538 26.7577 22.5814 25.3067 23.6066 24.1833C24.6318 23.06 26.1248 22.2565 27.9101 21.6246C31.1416 20.4817 35.141 19.9044 38.5753 18.6289C38.8949 19.842 39.9162 23.9961 39.9162 30.4866C39.9162 34.1687 39.0547 36.2789 38.0451 37.4452C37.0355 38.6115 35.8193 38.943 34.7395 38.943C33.6637 38.943 32.502 38.393 31.4963 37.6948C30.4906 36.9966 29.7968 36.2672 29.0951 35.8226L28.0348 37.5076C28.2142 37.6207 29.2082 38.5413 30.3737 39.3487C31.5392 40.1561 33.0166 40.9401 34.7395 40.9401C36.2754 40.9401 38.1543 40.3979 39.5732 38.7558C40.9921 37.1136 41.912 34.4769 41.912 30.4866C41.912 22.6777 40.2592 17.0687 40.2592 17.0687L39.9474 15.9766Z" fill="#13B165"/>
</g>
<path d="M58.5295 33.9509L58.6214 33.2429C58.7487 33.2771 58.8707 33.3342 58.9874 33.4142C59.1081 33.4993 59.2229 33.612 59.3318 33.7521C59.44 33.8969 59.5165 34.0871 59.5612 34.3229C59.6099 34.5638 59.6154 34.8301 59.5776 35.1216C59.5145 35.6076 59.3578 35.9811 59.1074 36.2421C58.8617 36.5038 58.5791 36.6152 58.2594 36.5764C58.0602 36.5522 57.8975 36.4643 57.7713 36.3127C57.6445 36.1657 57.5732 35.9902 57.5573 35.7861C57.3136 36.3582 56.9579 36.6159 56.49 36.5592C56.161 36.5192 55.9163 36.3203 55.7557 35.9624C55.5945 35.6091 55.5463 35.1825 55.6112 34.6827C55.6478 34.4004 55.706 34.1513 55.7858 33.9353C55.8604 33.7234 55.946 33.5529 56.0428 33.4236C56.1436 33.2995 56.2579 33.1982 56.3858 33.1197C56.5136 33.0412 56.6381 32.9881 56.7594 32.9605C56.8806 32.9329 57.0119 32.9183 57.1533 32.9167L57.0587 33.6455C56.7991 33.6516 56.5999 33.7356 56.4613 33.8974C56.3267 34.0644 56.2345 34.34 56.1846 34.7241C56.1456 35.0249 56.1632 35.2879 56.2375 35.5132C56.3112 35.743 56.4476 35.8701 56.6468 35.8942C57.0499 35.9431 57.2962 35.6228 57.3856 34.9333L57.4442 34.482L57.9654 34.5453L57.9122 34.9548C57.8708 35.2742 57.8831 35.506 57.949 35.6503C58.015 35.7946 58.1406 35.878 58.3259 35.9005C58.5066 35.9224 58.6576 35.8467 58.7789 35.6734C58.9002 35.5001 58.9762 35.2955 59.0068 35.0594C59.0477 34.7447 59.03 34.5005 58.9537 34.3267C58.8774 34.1529 58.736 34.0277 58.5295 33.9509Z" fill="#13B165"/>
<path d="M56.2362 40.5832C56.1891 40.3831 56.2253 39.9964 56.3451 39.4229C56.4331 39.0057 56.4677 38.7063 56.4488 38.5247C56.4299 38.3431 56.3202 38.2213 56.1195 38.1594C55.9456 38.1057 55.7848 38.1318 55.637 38.2376C55.4878 38.3478 55.3724 38.527 55.2908 38.7753C55.1597 39.1743 55.1365 39.5285 55.2214 39.8379C55.3049 40.1518 55.4648 40.3452 55.7011 40.4181L56.2362 40.5832ZM54.9388 40.2048C54.614 39.7285 54.5602 39.1602 54.7773 38.4996C54.9231 38.0563 55.1304 37.7467 55.3994 37.5709C55.6684 37.3952 55.9723 37.3596 56.3112 37.4642C56.4762 37.5151 56.6109 37.5835 56.7153 37.6694C56.8182 37.7598 56.8937 37.8588 56.9418 37.9664C56.9885 38.0785 57.0145 38.2159 57.0199 38.3787C57.0283 38.5473 57.0211 38.7111 56.9983 38.8701C56.9755 39.0291 56.9404 39.2258 56.8928 39.4601C56.8813 39.5249 56.8632 39.6097 56.8386 39.7144C56.814 39.8191 56.796 39.8966 56.7844 39.9467C56.7728 39.9969 56.7591 40.061 56.7432 40.1391C56.7304 40.223 56.7226 40.2841 56.7198 40.3223C56.7171 40.3605 56.7166 40.4068 56.7184 40.4611C56.7188 40.5198 56.7242 40.563 56.7348 40.5906C56.7498 40.6197 56.767 40.6494 56.7865 40.6798C56.809 40.7161 56.8366 40.7441 56.8693 40.764C56.9066 40.7852 56.9497 40.8034 56.9987 40.8186C57.1905 40.8778 57.3564 40.8435 57.4966 40.7159C57.6354 40.5927 57.7579 40.3693 57.8643 40.0456C57.9838 39.6821 58.0148 39.3938 57.9571 39.1807C57.9025 38.9734 57.751 38.8216 57.5027 38.7255L57.7235 38.0538C58.5561 38.3596 58.791 39.0645 58.4281 40.1684C58.2314 40.7669 58.0037 41.1605 57.7452 41.3493C57.4852 41.5425 57.1367 41.5717 56.6997 41.4368L55.2416 40.9868C55.0454 40.9262 54.8954 40.9043 54.7917 40.9211C54.6909 40.9438 54.6209 41.0149 54.5815 41.1346C54.5655 41.1834 54.551 41.2497 54.5382 41.3337L54.0165 41.1726C54.0479 40.9724 54.0884 40.7969 54.138 40.6461C54.2531 40.2959 54.52 40.1488 54.9388 40.2048Z" fill="#13B165"/>
<path d="M56.7906 46.6013L56.4548 47.2075C56.2182 46.932 56.1016 46.6899 56.1051 46.4814C56.1086 46.2729 56.2035 45.9332 56.3897 45.4621C56.6065 44.9071 56.6903 44.4669 56.6412 44.1417C56.5962 43.8185 56.4165 43.5411 56.1023 43.3093C56.2049 43.5573 56.2421 43.8368 56.2137 44.1481C56.183 44.4634 56.0953 44.7517 55.9506 45.0129C55.677 45.5069 55.3103 45.8368 54.8505 46.0025C54.3884 46.1724 53.9131 46.1303 53.4246 45.8762C52.907 45.6071 52.5953 45.2215 52.4894 44.7195C52.3835 44.2175 52.4843 43.6889 52.7918 43.1337C53.1084 42.5622 53.5203 42.2085 54.0275 42.0727C54.5347 41.9368 55.0906 42.0261 55.6951 42.3404C56.3741 42.6935 56.8319 43.1235 57.0684 43.6303C57.3068 44.1434 57.2839 44.7625 56.9996 45.4875C56.8439 45.8745 56.7542 46.1328 56.7304 46.2624C56.7066 46.392 56.7267 46.505 56.7906 46.6013ZM54.7847 45.3847C55.1056 45.2676 55.3678 45.0253 55.5713 44.6579C55.7748 44.2905 55.8343 43.9376 55.7497 43.5992C55.6629 43.2649 55.4457 43.0073 55.0979 42.8264C54.7087 42.6241 54.3486 42.5761 54.0176 42.6827C53.6907 42.7914 53.4199 43.0397 53.2051 43.4275C53.0016 43.7949 52.9547 44.1491 53.0644 44.4901C53.1761 44.8373 53.4058 45.1014 53.7536 45.2823C54.1179 45.4717 54.4616 45.5059 54.7847 45.3847Z" fill="#13B165"/>
<path d="M53.8388 47.8935C53.8848 48.4146 53.7019 48.9227 53.2902 49.418C52.8785 49.9132 52.4065 50.1927 51.8743 50.2566C51.3457 50.3233 50.8422 50.17 50.364 49.7968C49.8857 49.4235 49.6258 48.981 49.5842 48.4692C49.5462 47.9604 49.7331 47.4583 50.1448 46.9631C50.5595 46.4643 51.0274 46.1786 51.5487 46.1062C52.0736 46.0366 52.5752 46.1884 53.0534 46.5617C53.5317 46.9349 53.7935 47.3789 53.8388 47.8935ZM51.8622 49.5815C52.2087 49.5442 52.5191 49.3605 52.7936 49.0304C53.068 48.7002 53.1887 48.3654 53.1555 48.0259C53.1223 47.6864 52.9383 47.386 52.6035 47.1247C52.2688 46.8634 51.9267 46.7532 51.5773 46.7941C51.2279 46.835 50.9159 47.0205 50.6414 47.3507C50.367 47.6808 50.2478 48.0139 50.284 48.3498C50.3172 48.6893 50.5012 48.9897 50.836 49.2509C51.1707 49.5122 51.5128 49.6224 51.8622 49.5815Z" fill="#13B165"/>
<path d="M51.2616 51.5224L48.4215 53.9634L48.0339 53.5401L49.1965 52.5408L47.0411 50.1865L47.556 49.7439L49.7115 52.0983L50.8741 51.099L51.2616 51.5224Z" fill="#13B165"/>
<path d="M44.0946 54.5287C44.1884 54.3468 44.4675 54.0778 44.9317 53.7216C45.2702 53.463 45.4912 53.259 45.5947 53.1094C45.6982 52.9598 45.6932 52.7967 45.5798 52.62C45.4814 52.4669 45.3413 52.3825 45.1594 52.3669C44.9735 52.3537 44.7687 52.4145 44.5449 52.5495C44.1852 52.7664 43.9374 53.0193 43.8014 53.3082C43.6614 53.5996 43.6583 53.8494 43.792 54.0575L44.0946 54.5287ZM43.3465 53.4028C43.4071 52.8324 43.7351 52.3677 44.3306 52.0087C44.7302 51.7677 45.0902 51.6678 45.4104 51.7089C45.7307 51.7501 45.9866 51.9198 46.1783 52.2183C46.2716 52.3635 46.3303 52.5025 46.3545 52.635C46.3746 52.7699 46.3681 52.8936 46.3351 53.0062C46.298 53.1211 46.2287 53.2419 46.127 53.3686C46.0239 53.5015 45.912 53.6208 45.7913 53.7262C45.6705 53.8317 45.5158 53.9577 45.3271 54.1042C45.2762 54.1457 45.2073 54.1982 45.1205 54.2614C45.0336 54.3247 44.9694 54.3716 44.928 54.402C44.8866 54.4324 44.8344 54.4721 44.7715 54.5209C44.7071 54.576 44.6615 54.6172 44.6345 54.6443C44.6076 54.6714 44.5772 54.7061 44.5433 54.7483C44.5055 54.7929 44.4816 54.8291 44.4717 54.8569C44.4643 54.8886 44.4582 54.9222 44.4534 54.9578C44.447 54.9998 44.45 55.0389 44.4621 55.0751C44.4768 55.1152 44.4981 55.1569 44.5258 55.2001C44.6342 55.369 44.7836 55.4505 44.9739 55.4447C45.1602 55.4413 45.3993 55.3516 45.691 55.1757C46.0187 54.9781 46.2297 54.7801 46.324 54.5816C46.4168 54.3895 46.3994 54.1767 46.2716 53.9432L46.877 53.5782C47.3162 54.3483 47.0383 55.0334 46.0432 55.6334C45.5036 55.9587 45.0735 56.1091 44.7529 56.0845C44.4282 56.0624 44.1423 55.859 43.8952 55.4741L43.0705 54.1902C42.9595 54.0174 42.8589 53.9038 42.7685 53.8493C42.6766 53.8012 42.5767 53.8097 42.4688 53.8748C42.4248 53.9013 42.3707 53.9421 42.3063 53.9973L42.0112 53.5379C42.1654 53.4068 42.3105 53.3002 42.4464 53.2183C42.7621 53.028 43.0621 53.0894 43.3465 53.4028Z" fill="#13B165"/>
<path d="M40.4158 57.7062C40.1561 58.1645 39.7168 58.4827 39.0979 58.6607C38.479 58.8388 37.9339 58.8038 37.4626 58.5559C36.9927 58.3124 36.6689 57.9006 36.4911 57.3206C36.3134 56.7405 36.3535 56.2265 36.6114 55.7784C36.8708 55.3348 37.3099 55.0239 37.9288 54.8459C38.5522 54.6665 39.0975 54.6941 39.5646 54.9287C40.0332 55.1678 40.3564 55.5773 40.5341 56.1573C40.7119 56.7374 40.6725 57.2537 40.4158 57.7062ZM37.838 57.9891C38.1423 58.154 38.5007 58.1771 38.9133 58.0584C39.3259 57.9397 39.6155 57.7301 39.7821 57.4297C39.9487 57.1293 39.9698 56.7761 39.8453 56.3701C39.7209 55.9641 39.5043 55.6792 39.1955 55.5156C38.8867 55.352 38.526 55.3295 38.1134 55.4482C37.7008 55.5669 37.4135 55.7758 37.2513 56.0749C37.0848 56.3753 37.0637 56.7286 37.1881 57.1346C37.3125 57.5406 37.5292 57.8254 37.838 57.9891Z" fill="#13B165"/>
<path d="M32.835 60.9512L32.1452 61.0171C32.2455 60.6653 32.3836 60.4318 32.5595 60.3165C32.7354 60.2013 33.071 60.0871 33.5661 59.9742C34.148 59.8388 34.5613 59.6587 34.8058 59.4338C35.0508 59.2134 35.1839 58.9077 35.2052 58.5166C35.0545 58.742 34.8415 58.9311 34.5663 59.084C34.2863 59.2373 33.9977 59.3282 33.7004 59.3566C33.1383 59.4103 32.6621 59.2941 32.2719 59.008C31.877 58.7223 31.6518 58.3055 31.5961 57.7576C31.5372 57.1773 31.6882 56.7011 32.0491 56.3291C32.4101 55.957 32.9064 55.7408 33.5382 55.6804C34.1886 55.6182 34.7094 55.7583 35.1006 56.1006C35.4918 56.4429 35.7219 56.953 35.7907 57.6309C35.868 58.3923 35.76 59.0144 35.4666 59.4972C35.169 59.985 34.6398 60.3169 33.8791 60.4927C33.4708 60.5833 33.2061 60.6555 33.0849 60.7093C32.9637 60.7631 32.8804 60.8437 32.835 60.9512ZM32.7515 58.6035C33.0249 58.8024 33.3707 58.8818 33.7888 58.8419C34.2069 58.8019 34.534 58.6511 34.7701 58.3894C35.0016 58.1282 35.0975 57.8026 35.0579 57.4126C35.0136 56.9762 34.8563 56.6514 34.5861 56.4381C34.3163 56.2295 33.9607 56.1463 33.5194 56.1885C33.1013 56.2285 32.7801 56.3904 32.5556 56.6744C32.327 56.9635 32.2324 57.303 32.272 57.693C32.3135 58.1016 32.4733 58.4051 32.7515 58.6035Z" fill="#13B165"/>
<path d="M27.6617 58.2596L28.3589 58.3774C28.2064 58.7776 27.9427 59.0714 27.5677 59.2588C27.1927 59.4463 26.7613 59.4988 26.2735 59.4163C25.6754 59.3152 25.2229 59.0494 24.9162 58.619C24.6086 58.1931 24.5076 57.6862 24.6131 57.0983C24.7187 56.5103 24.99 56.0687 25.427 55.7735C25.8586 55.482 26.3712 55.3864 26.9648 55.4868C27.4756 55.5731 27.8754 55.7756 28.1643 56.0942C28.4486 56.412 28.5878 56.8118 28.5819 57.2935L27.8779 57.1745C27.8805 56.8957 27.7923 56.6608 27.6133 56.4696C27.4335 56.283 27.1894 56.1637 26.8811 56.1115C26.5176 56.0501 26.1981 56.1002 25.9225 56.2619C25.6423 56.4227 25.4517 56.6792 25.3506 57.0312L27.0554 57.3194L26.9539 57.8844L25.2836 57.602C25.302 57.9222 25.4133 58.1871 25.6174 58.3968C25.8208 58.611 26.0973 58.7476 26.447 58.8067C26.7185 58.8526 26.9624 58.8276 27.1787 58.7317C27.3951 58.6357 27.5561 58.4784 27.6617 58.2596Z" fill="#13B165"/>
<path d="M21.9136 58.2562L22.5174 56.726L20.056 57.5681L19.1107 57.218L21.3113 56.5032L20.3682 53.6686L21.2281 53.9871L21.9355 56.2941L22.7974 56.0163L23.2958 54.7531L23.9326 54.9889L22.5503 58.4921L21.9136 58.2562Z" fill="#13B165"/>
<path d="M17.6784 56.0255C17.1515 56.1381 16.6123 56.0282 16.0608 55.6956C15.5093 55.3631 15.1713 54.9441 15.0468 54.4388C14.9198 53.9373 15.0202 53.4313 15.348 52.9209C15.6759 52.4104 16.0987 52.1016 16.6166 51.9945C17.132 51.8912 17.6654 52.0059 18.217 52.3384C18.7725 52.6733 19.1162 53.0876 19.2483 53.5812C19.3778 54.0787 19.2787 54.5827 18.9508 55.0932C18.623 55.6036 18.1989 55.9144 17.6784 56.0255ZM15.7347 54.3388C15.8114 54.6683 16.0336 54.9438 16.4012 55.1655C16.7689 55.3872 17.1242 55.4598 17.4672 55.3834C17.8101 55.3069 18.0963 55.09 18.3258 54.7327C18.5553 54.3753 18.6297 54.0307 18.549 53.6988C18.4684 53.367 18.2442 53.0902 17.8765 52.8685C17.5088 52.6468 17.1555 52.5754 16.8166 52.6543C16.4736 52.7307 16.1874 52.9476 15.9579 53.305C15.7284 53.6623 15.654 54.0069 15.7347 54.3388Z" fill="#13B165"/>
<path d="M13.0173 53.5168L10.41 51.1924L13.0033 48.4615L13.5102 48.9134L11.3121 51.228L12.9057 52.6488L14.0578 51.4356C14.7808 50.6743 15.4018 50.5249 15.9209 50.9876C16.0358 51.0901 16.1327 51.2015 16.2115 51.3217L15.8741 51.677C15.8349 51.6234 15.7701 51.5562 15.6795 51.4755C15.5785 51.3854 15.4826 51.3374 15.3918 51.3314C15.301 51.3254 15.179 51.376 15.0258 51.4832C14.8694 51.5937 14.6658 51.7809 14.4152 52.0448L13.0173 53.5168Z" fill="#13B165"/>
<path d="M9.4863 49.5564C8.95399 49.4696 8.49117 49.1713 8.09784 48.6614C7.70452 48.1514 7.54173 47.6387 7.60946 47.1232C7.67342 46.6104 7.95108 46.1761 8.44245 45.8202C8.93381 45.4644 9.44045 45.3308 9.96236 45.4194C10.4805 45.5107 10.9362 45.8113 11.3295 46.3212C11.7257 46.8348 11.8956 47.3453 11.8392 47.8526C11.779 48.3627 11.5032 48.7956 11.0119 49.1514C10.5205 49.5072 10.012 49.6422 9.4863 49.5564ZM8.28729 47.2802C8.23896 47.6147 8.34589 47.9519 8.60811 48.2919C8.87033 48.6318 9.17524 48.8285 9.52284 48.8821C9.87045 48.9356 10.2162 48.8378 10.5602 48.5887C10.9041 48.3397 11.0989 48.0461 11.1444 47.7079C11.1898 47.3697 11.0815 47.0307 10.8193 46.6907C10.557 46.3507 10.2536 46.1559 9.90881 46.106C9.5612 46.0525 9.21542 46.1503 8.87146 46.3994C8.5275 46.6484 8.33278 46.942 8.28729 47.2802Z" fill="#13B165"/>
<path d="M6.20161 45.7381L4.73996 42.9794L5.25389 42.7238L6.39765 44.8825L9.25562 43.4609L9.57351 44.0609L6.20161 45.7381Z" fill="#13B165"/>
<path d="M4.07423 41.3219L6.87679 40.457L3.35718 39.1408L3.12108 38.4226L6.71959 37.312L6.93165 37.957L4.13578 38.8199L7.65088 40.1448L7.8848 40.8564L4.28629 41.967L4.07423 41.3219Z" fill="#13B165"/>
<path d="M2.68511 36.2478L5.59667 35.8938L2.39023 33.9709L2.29314 33.2211L6.03161 32.7666L6.11881 33.44L3.2142 33.7931L6.41459 35.7239L6.51079 36.4667L2.77232 36.9212L2.68511 36.2478Z" fill="#13B165"/>
<defs>
<clipPath id="clip0">
<rect width="31.9331" height="31.9533" fill="white" transform="translate(14.9688 11.9824)"/>
</clipPath>
</defs>
</svg>
