<svg width="60" height="60" viewBox="0 0 60 60" fill="none" xmlns="http://www.w3.org/2000/svg">
<path d="M11.1672 9.10957L12.1189 10.2755L13.9004 8.82713L12.9487 7.66125L13.4756 7.23293L15.8571 10.1504L15.3302 10.5787L14.2634 9.2718L12.4818 10.7201L13.5486 12.027L13.0218 12.4553L10.6403 9.53788L11.1672 9.10957Z" fill="#1D2027"/>
<path d="M18.335 6.55261C18.2276 6.72973 17.9306 6.98219 17.4438 7.30999C17.089 7.54783 16.8544 7.73869 16.7402 7.88256C16.6259 8.02643 16.6175 8.19137 16.715 8.37737C16.7995 8.53857 16.9308 8.63323 17.1088 8.66136C17.291 8.68732 17.498 8.63984 17.7297 8.51891C18.102 8.32456 18.367 8.08623 18.5246 7.80392C18.6863 7.51945 18.7098 7.26768 18.595 7.04861L18.335 6.55261ZM18.9808 7.73949C18.8746 8.31084 18.5132 8.75739 17.8968 9.07914C17.4831 9.29508 17.1201 9.37141 16.8077 9.30813C16.4953 9.24485 16.2567 9.05614 16.0921 8.742C16.0119 8.58907 15.9653 8.44493 15.9524 8.30957C15.9435 8.17206 15.96 8.04765 16.0017 7.93636C16.0477 7.8229 16.1259 7.70574 16.2364 7.58488C16.3489 7.45773 16.469 7.34504 16.5966 7.24682C16.7243 7.1486 16.8871 7.03202 17.0851 6.89709C17.1387 6.85859 17.2109 6.81038 17.3017 6.75244C17.3925 6.69451 17.4596 6.6516 17.5029 6.62371C17.5463 6.59583 17.601 6.55939 17.6669 6.51442C17.7349 6.46315 17.7833 6.42474 17.812 6.3992C17.8408 6.37366 17.8736 6.34074 17.9104 6.30045C17.9514 6.25801 17.9779 6.22312 17.9899 6.19579C17.9998 6.16433 18.0086 6.13079 18.0163 6.0952C18.0259 6.05331 18.0262 6.01367 18.0172 5.97628C18.0059 5.93476 17.9884 5.89127 17.9646 5.84581C17.8714 5.66807 17.7308 5.57566 17.5427 5.56857C17.3587 5.55933 17.1157 5.63353 16.8137 5.79116C16.4744 5.96824 16.2503 6.1537 16.1411 6.34754C16.0339 6.53509 16.0338 6.75099 16.1407 6.99523L15.514 7.32238C15.1437 6.51545 15.4737 5.84314 16.5038 5.30544C17.0623 5.01391 17.4986 4.89143 17.8128 4.938C18.1311 4.9824 18.3964 5.20714 18.6087 5.61221L19.3172 6.96381C19.4125 7.14568 19.5025 7.26715 19.5872 7.32822C19.6739 7.383 19.773 7.38124 19.8847 7.32293C19.9302 7.29918 19.987 7.26167 20.0549 7.2104L20.3084 7.694C20.1457 7.81579 19.994 7.91339 19.8533 7.98681C19.5265 8.15741 19.2357 8.07497 18.9808 7.73949Z" fill="#1D2027"/>
<path d="M22.3799 3.14762L22.4927 3.70328C22.7356 3.18757 23.1658 2.86728 23.7833 2.7424C24.3642 2.62493 24.8753 2.71441 25.3164 3.01085C25.7612 3.30179 26.0421 3.73539 26.1591 4.31163C26.2752 4.88329 26.1847 5.38723 25.8875 5.82345C25.595 6.25875 25.1559 6.53559 24.5705 6.65399C23.9987 6.76962 23.4816 6.65041 23.0193 6.29637L23.3954 8.14857L22.7298 8.28315L21.7144 3.28221L22.3799 3.14762ZM24.8882 3.54024C24.6011 3.34595 24.2495 3.29089 23.8332 3.37507C23.417 3.45924 23.1127 3.64932 22.9204 3.94531C22.7272 4.23672 22.6724 4.58823 22.756 4.99983C22.8387 5.40685 23.0253 5.70476 23.3161 5.89355C23.6068 6.08234 23.9602 6.13464 24.3765 6.05047C24.7927 5.96629 25.0961 5.78354 25.2866 5.5022C25.4807 5.21536 25.536 4.86614 25.4524 4.45454C25.3679 4.03836 25.1798 3.7336 24.8882 3.54024Z" fill="#1D2027"/>
<path d="M27.5539 2.27107L28.2322 2.29989L28.1684 3.80353L29.651 3.86651C30.5882 3.90632 31.0408 4.30155 31.0089 5.0522C30.9933 5.42054 30.8578 5.69737 30.6023 5.8827C30.3518 6.06356 30.0027 6.14448 29.5551 6.12547L27.394 6.03368L27.5539 2.27107ZM28.144 4.37701L28.0968 5.48901L29.5235 5.54961C29.7799 5.56051 29.9683 5.52413 30.0886 5.4405C30.2138 5.3524 30.2805 5.21277 30.2886 5.02161C30.2971 4.82112 30.2472 4.67654 30.1389 4.58786C30.0305 4.49918 29.8388 4.449 29.5637 4.43732L28.144 4.37701ZM31.87 6.2238L32.0298 2.46119L32.7082 2.49001L32.5484 6.25262L31.87 6.2238Z" fill="#1D2027"/>
<path d="M35.3971 3.1L34.9752 4.54465L37.1799 5.18586L37.6018 3.7412L38.2537 3.93083L37.198 7.54583L36.546 7.3562L37.0189 5.73685L34.8143 5.09564L34.3414 6.715L33.6894 6.52537L34.7451 2.91037L35.3971 3.1Z" fill="#1D2027"/>
<path d="M40.4754 4.90793L39.7118 6.36494L42.2316 5.82461L43.1252 6.29105L40.8766 6.73607L41.4948 9.6882L40.6819 9.26387L40.2381 6.86865L39.3576 7.04074L38.7271 8.24354L38.1252 7.92934L39.8735 4.59373L40.4754 4.90793Z" fill="#1D2027"/>
<path d="M46.1945 11.1988L43.5602 9.05723C43.327 9.34283 43.2356 9.6504 43.2859 9.97995C43.3391 10.3059 43.5214 10.5954 43.8328 10.8486C44.0646 11.037 44.2973 11.154 44.5311 11.1997C44.7685 11.2484 44.9811 11.2167 45.1688 11.1048L45.7826 11.6037C45.4245 11.8358 45.0388 11.9282 44.6256 11.881C44.2189 11.8331 43.8219 11.6516 43.4344 11.3366C42.942 10.9363 42.663 10.481 42.5976 9.97073C42.5388 9.45981 42.7012 8.96936 43.0848 8.49939C43.4714 8.02581 43.9246 7.76577 44.4445 7.71929C44.9643 7.67281 45.4687 7.84827 45.9575 8.24568C46.4572 8.65191 46.7329 9.10755 46.7845 9.61259C46.8427 10.1169 46.674 10.6113 46.2786 11.0958L46.1945 11.1988ZM43.8764 8.6919L45.935 10.3654C46.0988 10.0836 46.1477 9.79859 46.0818 9.51041C46.0158 9.22223 45.8416 8.96334 45.5591 8.73372C45.2803 8.50705 44.991 8.38915 44.6913 8.38001C44.3951 8.37381 44.1235 8.47778 43.8764 8.6919Z" fill="#1D2027"/>
<path d="M46.8319 50.8904L45.8802 49.7245L44.0986 51.1729L45.0503 52.3388L44.5234 52.7671L42.142 49.8496L42.6688 49.4213L43.7356 50.7282L45.5172 49.2799L44.4504 47.973L44.9773 47.5447L47.3587 50.4621L46.8319 50.8904Z" fill="#1D2027"/>
<path d="M39.666 53.4474C39.7733 53.2703 40.0704 53.0178 40.5572 52.69C40.912 52.4522 41.1465 52.2613 41.2608 52.1174C41.3751 51.9736 41.3835 51.8086 41.286 51.6226C41.2015 51.4614 41.0702 51.3668 40.8921 51.3386C40.7099 51.3127 40.503 51.3602 40.2713 51.4811C39.899 51.6754 39.634 51.9138 39.4764 52.1961C39.3146 52.4806 39.2912 52.7323 39.406 52.9514L39.666 53.4474ZM39.0202 52.2605C39.1264 51.6892 39.4877 51.2426 40.1041 50.9209C40.5178 50.7049 40.8809 50.6286 41.1933 50.6919C41.5057 50.7552 41.7443 50.9439 41.9089 51.258C41.9891 51.4109 42.0356 51.5551 42.0486 51.6904C42.0575 51.8279 42.041 51.9523 41.9992 52.0636C41.9533 52.1771 41.8751 52.2943 41.7646 52.4151C41.6521 52.5423 41.532 52.655 41.4043 52.7532C41.2767 52.8514 41.1139 52.968 40.9159 53.1029C40.8623 53.1414 40.7901 53.1896 40.6993 53.2476C40.6085 53.3055 40.5414 53.3484 40.498 53.3763C40.4547 53.4042 40.4 53.4406 40.334 53.4856C40.2661 53.5369 40.2177 53.5753 40.1889 53.6008C40.1602 53.6263 40.1274 53.6593 40.0905 53.6995C40.0496 53.742 40.0231 53.7769 40.011 53.8042C40.0012 53.8357 39.9924 53.8692 39.9847 53.9048C39.9751 53.9467 39.9748 53.9863 39.9838 54.0237C39.995 54.0652 40.0126 54.1087 40.0364 54.1542C40.1296 54.3319 40.2702 54.4243 40.4583 54.4314C40.6423 54.4407 40.8853 54.3665 41.1873 54.2088C41.5265 54.0318 41.7507 53.8463 41.8599 53.6525C41.9671 53.4649 41.9672 53.249 41.8602 53.0048L42.487 52.6776C42.8572 53.4845 42.5273 54.1569 41.4972 54.6946C40.9387 54.9861 40.5024 55.1086 40.1882 55.062C39.8699 55.0176 39.6045 54.7929 39.3922 54.3878L38.6838 53.0362C38.5885 52.8543 38.4985 52.7329 38.4138 52.6718C38.3271 52.617 38.2279 52.6188 38.1162 52.6771C38.0707 52.7008 38.014 52.7383 37.946 52.7896L37.6926 52.306C37.8553 52.1842 38.007 52.0866 38.1476 52.0132C38.4745 51.8426 38.7653 51.925 39.0202 52.2605Z" fill="#1D2027"/>
<path d="M35.6201 56.8524L35.5073 56.2967C35.2644 56.8124 34.8342 57.1327 34.2167 57.2576C33.6358 57.3751 33.1247 57.2856 32.6836 56.9891C32.2388 56.6982 31.9579 56.2646 31.8409 55.6884C31.7248 55.1167 31.8153 54.6128 32.1125 54.1765C32.405 53.7413 32.8441 53.4644 33.4295 53.346C34.0013 53.2304 34.5184 53.3496 34.9807 53.7036L34.6046 51.8514L35.2702 51.7168L36.2856 56.7178L35.6201 56.8524ZM33.1118 56.4598C33.3989 56.6541 33.7505 56.7091 34.1668 56.6249C34.583 56.5408 34.8873 56.3507 35.0796 56.0547C35.2728 55.7633 35.3276 55.4118 35.244 55.0002C35.1613 54.5931 34.9747 54.2952 34.684 54.1065C34.3932 53.9177 34.0398 53.8654 33.6235 53.9495C33.2073 54.0337 32.9039 54.2165 32.7134 54.4978C32.5193 54.7846 32.464 55.1339 32.5476 55.5455C32.6321 55.9616 32.8202 56.2664 33.1118 56.4598Z" fill="#1D2027"/>
<path d="M30.4461 57.7289L29.7678 57.7001L29.8316 56.1965L28.349 56.1335C27.4118 56.0937 26.9592 55.6985 26.9911 54.9478C27.0067 54.5795 27.1422 54.3026 27.3977 54.1173C27.6482 53.9364 27.9973 53.8555 28.4449 53.8745L30.606 53.9663L30.4461 57.7289ZM29.856 55.623L29.9032 54.511L28.4765 54.4504C28.2201 54.4395 28.0317 54.4759 27.9114 54.5595C27.7862 54.6476 27.7195 54.7872 27.7114 54.9784C27.7029 55.1789 27.7528 55.3235 27.8611 55.4121C27.9695 55.5008 28.1612 55.551 28.4363 55.5627L29.856 55.623ZM26.13 53.7762L25.9702 57.5388L25.2918 57.51L25.4516 53.7474L26.13 53.7762Z" fill="#1D2027"/>
<path d="M22.6029 56.9L23.0248 55.4553L20.8201 54.8141L20.3982 56.2588L19.7463 56.0692L20.802 52.4542L21.454 52.6438L20.9811 54.2632L23.1857 54.9044L23.6586 53.285L24.3106 53.4746L23.2549 57.0896L22.6029 56.9Z" fill="#1D2027"/>
<path d="M17.5246 55.0921L18.2882 53.6351L15.7684 54.1754L14.8748 53.7089L17.1234 53.2639L16.5052 50.3118L17.3181 50.7361L17.7619 53.1313L18.6424 52.9593L19.2729 51.7565L19.8748 52.0707L18.1265 55.4063L17.5246 55.0921Z" fill="#1D2027"/>
<path d="M11.8065 48.8012L14.4408 50.9428C14.674 50.6572 14.7654 50.3496 14.7151 50.0201C14.6619 49.6941 14.4796 49.4046 14.1682 49.1514C13.9364 48.963 13.7037 48.846 13.4699 48.8003C13.2325 48.7516 13.0199 48.7833 12.8321 48.8952L12.2184 48.3963C12.5765 48.1642 12.9622 48.0718 13.3754 48.119C13.782 48.1669 14.1791 48.3484 14.5666 48.6634C15.059 49.0637 15.338 49.519 15.4034 50.0293C15.4622 50.5402 15.2998 51.0306 14.9162 51.5006C14.5296 51.9742 14.0764 52.2342 13.5565 52.2807C13.0366 52.3272 12.5323 52.1517 12.0434 51.7543C11.5437 51.3481 11.2681 50.8924 11.2165 50.3874C11.1583 49.8831 11.327 49.3887 11.7224 48.9042L11.8065 48.8012ZM14.1245 51.3081L12.066 49.6346C11.9022 49.9164 11.8533 50.2014 11.9192 50.4896C11.9852 50.7778 12.1594 51.0367 12.4418 51.2663C12.7207 51.4929 13.0099 51.6109 13.3097 51.62C13.6059 51.6262 13.8775 51.5222 14.1245 51.3081Z" fill="#1D2027"/>
<rect y="19.959" width="60" height="19.9591" fill="#1D2027"/>
<path d="M8.12 33.957V28.305H5.816V26.889H6.008C6.712 26.889 7.252 26.781 7.628 26.565C8.004 26.341 8.248 25.973 8.36 25.461H10.172V33.957H8.12ZM13.7188 33.021C13.0308 32.237 12.6868 31.133 12.6868 29.709C12.6868 28.285 13.0308 27.185 13.7188 26.409C14.4068 25.633 15.3668 25.245 16.5988 25.245C17.8548 25.245 18.8268 25.633 19.5148 26.409C20.2028 27.177 20.5468 28.277 20.5468 29.709C20.5468 31.141 20.2028 32.245 19.5148 33.021C18.8268 33.797 17.8548 34.185 16.5988 34.185C15.3668 34.185 14.4068 33.797 13.7188 33.021ZM15.2788 27.681C14.9668 28.145 14.8108 28.821 14.8108 29.709C14.8108 30.597 14.9668 31.277 15.2788 31.749C15.5988 32.213 16.0468 32.445 16.6228 32.445C17.1988 32.445 17.6428 32.213 17.9548 31.749C18.2668 31.277 18.4228 30.597 18.4228 29.709C18.4228 28.821 18.2668 28.145 17.9548 27.681C17.6428 27.209 17.1988 26.973 16.6228 26.973C16.0468 26.973 15.5988 27.209 15.2788 27.681ZM27.2978 25.245H35.4938V33.957H33.3098V27.033H29.4818V30.465C29.4818 31.665 29.2698 32.585 28.8458 33.225C28.4298 33.865 27.7338 34.185 26.7578 34.185C26.2218 34.185 25.7778 34.141 25.4258 34.053V32.181C25.6018 32.229 25.8178 32.253 26.0738 32.253C26.5698 32.253 26.8978 32.093 27.0578 31.773C27.2178 31.453 27.2978 30.793 27.2978 29.793V25.245ZM37.4368 25.245H45.1768V27.033H39.6208V28.485H44.5648V30.273H39.6208V32.169H45.1768V33.957H37.4368V25.245ZM45.7561 25.245H53.9161V27.033H50.9281V33.957H48.7441V27.033H45.7561V25.245Z" fill="#DCE2EE"/>
</svg>
