<svg width="80" height="60" viewBox="0 0 80 60" fill="none" xmlns="http://www.w3.org/2000/svg">
<path d="M36.2886 0H9.64941V18.4615H36.2886V0Z" fill="white"/>
<path d="M46.0202 0H40.082V9.02655H46.0202V0Z" fill="white"/>
<path d="M67.2578 0H49.4434V18.4615H67.2578V0Z" fill="white"/>
<path d="M77.0308 36.9639C78.0618 36.9639 79.0102 36.9639 79.9999 36.9639C79.9999 39.0061 79.9999 41.0075 79.9999 43.0497C76.9896 43.0497 73.9793 43.0497 70.9277 43.0497C70.9277 28.7543 70.9277 14.3363 70.9277 0C72.9484 0 74.969 0 77.0308 0C77.0308 12.2532 77.0308 24.629 77.0308 36.9639Z" fill="white"/>
<path d="M51.3818 26.6304V22.7094C55.588 21.5658 59.4231 21.0348 63.753 22.015C67.7942 22.9544 67.3406 26.5896 67.3406 28.5501V43.0497C65.4437 43.0497 63.9591 43.0497 61.9798 43.0497V33.3697C61.9798 33.3697 59.6705 33.5331 57.5674 34.064C55.3818 34.7584 53.6911 35.4119 53.5674 37.0048C53.6499 38.271 54.2272 38.802 55.5468 39.1696C57.5674 39.5372 58.4334 39.6597 60.289 39.4963V43.0906C57.9385 43.3357 54.9695 43.2948 52.7427 42.723C50.8045 42.1512 48.2891 40.0681 48.454 37.0457C48.454 34.5542 49.5674 32.757 51.7942 31.4909C54.186 30.1839 57.7323 29.9796 59.3818 29.6529C61.5262 29.2036 62.5159 28.9994 62.5159 27.4881C62.4334 25.3234 60.3303 25.4868 59.0519 25.4459C56.0004 25.4051 51.3818 26.6304 51.3818 26.6304Z" fill="white"/>
<path d="M0 0C2.02062 0 4.04124 0 6.06186 0C6.06186 14.2954 6.06186 28.7134 6.06186 43.0497C4.08247 43.0497 2.06186 43.0497 0 43.0497C0 28.7543 0 14.3363 0 0Z" fill="white"/>
<path d="M29.0304 43.09C26.9685 43.09 24.9891 43.09 23.0098 43.09C23.0098 35.9423 23.0098 28.8354 23.0098 21.6468C24.8654 21.6468 26.7211 21.6468 28.6593 21.6468C28.6593 22.4229 28.6593 23.1989 28.6593 24.0158C29.6077 22.8721 30.6386 22.0144 31.9995 21.606C33.3603 21.1975 34.8861 21.4018 36.2881 21.4426C36.2881 21.4426 36.2881 26.0171 36.2881 26.0988C35.1335 26.0988 34.5149 26.0171 33.4428 26.0988C30.6799 26.4256 29.0716 28.3044 29.0304 31.0818C29.0304 34.8803 29.0304 38.638 29.0304 42.4365C29.0304 42.6407 29.0304 42.8449 29.0304 43.09Z" fill="white"/>
<path d="M20.0001 21.6072C17.3197 24.7522 14.6393 27.8972 12.0001 31.0014C15.0104 35.0041 18.062 39.0477 21.1135 43.0913C21.1135 43.0913 20.8249 43.0913 20.7011 43.0913C18.7218 43.0913 16.4125 43.0913 14.4331 43.0913C14.4331 43.0913 14.3506 42.9687 14.2682 42.8462C11.5053 38.9252 8.78362 35.045 6.06197 31.1239C6.06197 31.0831 6.02073 31.0422 5.97949 30.9606C7.13413 29.4902 8.28877 27.9789 9.44341 26.4677C10.6393 24.9565 11.7939 23.4044 12.9898 21.8932L13.2785 21.5664C15.2991 21.6073 20.0001 21.6072 20.0001 21.6072Z" fill="white"/>
<path d="M45.9789 21.6465C45.9789 28.7942 45.9789 35.9011 45.9789 43.0488C43.9583 43.0488 42.1439 43.0488 40.082 43.0488C40.082 35.9419 40.082 28.7942 40.082 21.6465C42.1026 21.6465 43.9171 21.6465 45.9789 21.6465Z" fill="white"/>
<path d="M57.2784 50.9741C55.8351 50.9741 54.4743 50.9741 53.1135 50.9741C52.9897 50.9741 52.8248 50.9741 52.7011 50.9741C52.4124 50.9741 52.165 51.0558 52.1238 51.3008C52.1238 51.5867 52.4124 51.6684 52.5774 51.7093C53.6908 52.036 54.8042 52.3628 55.9176 52.6078C57.031 52.8937 57.6908 53.5472 57.732 54.6909C57.7733 55.2218 57.732 55.7528 57.6495 56.2838C57.5258 57.0598 56.9073 57.6316 56.165 57.6316C53.9382 57.6725 51.7114 57.6316 49.4433 57.6316C49.4433 56.9373 49.4433 56.2429 49.4433 55.5078C50.5568 55.5078 51.6702 55.5078 52.7836 55.5078C53.3196 55.5078 53.8557 55.5486 54.3918 55.5078C54.5568 55.5078 54.8867 55.4669 54.8867 55.2218C54.8867 54.8951 54.6392 54.8543 54.5155 54.8134C53.7733 54.5683 53.031 54.3641 52.2887 54.1599C51.8763 54.0374 51.5052 53.9148 51.0928 53.8332C50.1031 53.6289 49.5258 52.9754 49.4021 51.9952C49.3609 51.4234 49.3196 50.8515 49.4021 50.3206C49.5258 49.4628 50.1031 48.891 50.9691 48.8502C53.0722 48.8093 55.1341 48.8502 57.2784 48.8502C57.2784 49.5445 57.2784 50.198 57.2784 50.9741Z" fill="white"/>
<path d="M4.98969 52.1994C4.82474 51.4234 4.3299 51.1374 3.75258 51.0966C2.84536 51.0149 1.93814 51.0149 0.989691 50.9741C0.701031 50.9741 0.329897 50.9741 0 50.9741C0 50.2389 0 49.5445 0 48.8502H0.371134C1.81443 48.8502 3.25773 48.8093 4.74227 48.8502C6.5567 48.891 7.62887 49.8304 7.79381 51.5459C7.91753 52.7304 7.87629 53.9148 7.79381 55.0585C7.6701 56.5289 6.72165 57.4683 5.23711 57.5908C3.50515 57.7133 1.7732 57.6316 0 57.6316C0 56.9373 0 56.2838 0 55.5078C0.28866 55.5078 0.57732 55.5078 0.824742 55.5078C1.81443 55.4669 2.84536 55.5078 3.83505 55.3852C4.57732 55.3035 4.90722 54.8951 4.94845 54.1599C3.38144 54.1599 1.85567 54.1599 0.28866 54.1599C0.28866 53.5064 0.28866 52.8937 0.28866 52.1994C1.81443 52.1994 3.34021 52.1994 4.98969 52.1994Z" fill="white"/>
<path d="M19.0512 54.9768C19.0512 55.6303 19.2574 55.8754 19.876 55.9162C20.9069 55.9162 21.9378 55.9162 22.9275 55.9162C23.1337 55.9162 23.2987 55.9162 23.5048 55.9162C23.5048 56.488 23.5048 57.1007 23.5048 57.6725H23.175C21.6492 57.6725 20.0822 57.6725 18.5564 57.6725C17.3605 57.6317 16.742 57.1416 16.6182 55.9571C16.4945 54.8951 16.4945 53.8332 16.577 52.7712C16.6595 51.6684 17.278 51.0966 18.4327 51.0149C19.5461 50.9333 20.6595 50.9332 21.8141 50.9741C23.0512 51.0149 23.5873 51.5051 23.711 52.7304C23.9172 54.8134 23.711 55.0993 21.8554 55.0177C20.9481 54.936 20.0409 54.9768 19.0512 54.9768ZM19.0925 53.4656C19.6698 53.4656 20.8657 53.4656 20.8657 53.4656H21.3605C21.3605 53.0571 21.0719 52.6487 20.9069 52.6079C20.5358 52.5262 20.1234 52.5262 19.711 52.567C19.175 52.6079 19.01 52.8529 19.0925 53.4656Z" fill="white"/>
<path d="M41.5264 57.7531C41.0315 57.7122 40.5367 57.7122 40.0419 57.6305C38.5573 57.4263 37.8563 56.7728 37.6913 55.3024C37.6089 54.5264 37.6501 53.7095 37.7738 52.9334C37.9388 51.8715 38.5986 51.0955 39.712 51.0138C40.9078 50.8912 42.145 50.8912 43.3821 51.0138C44.5367 51.1363 45.1965 51.9123 45.3614 53.0151C45.4439 53.6686 45.4852 54.4038 45.4439 55.0573C45.279 56.7728 44.413 57.5488 42.6398 57.6714C42.3511 57.6714 42.2274 57.7122 41.8151 57.7122C41.7738 57.7531 41.5264 57.7531 41.5264 57.7531ZM40.1243 54.2405V54.3221C40.1243 54.4038 40.1243 54.4855 40.1243 54.5672C40.1656 55.5066 40.6192 55.9559 41.4439 55.9968C42.3099 56.0376 42.7635 55.6292 42.8872 54.6489C42.9285 54.363 42.8872 54.0362 42.846 53.7503C42.7635 52.9743 42.3924 52.6884 41.5676 52.6475C40.7017 52.6475 40.3305 52.9334 40.1656 53.6686C40.1243 53.9137 40.1243 54.0362 40.1243 54.2405Z" fill="white"/>
<path d="M40.082 12.375C42.1026 12.375 43.9171 12.375 45.9789 12.375C45.9789 14.3764 45.9789 16.4186 45.9789 18.4608C43.9583 18.4608 42.1439 18.4608 40.082 18.4608C40.082 16.4186 40.082 14.4172 40.082 12.375Z" fill="white"/>
<path d="M15.8764 57.6711C15.0929 57.6711 14.3094 57.6711 13.4847 57.6711C13.4847 57.5077 13.4434 57.2626 13.4434 57.0993C13.4434 56.1598 13.4434 55.2613 13.4434 54.3219C13.4434 53.0557 12.9898 52.6473 11.7115 52.6881C11.2991 52.6881 11.1754 52.8515 11.1754 53.2599C11.1754 54.5261 11.1754 55.7514 11.1754 57.0176C11.1754 57.2218 11.1754 57.426 11.1754 57.6711C10.3507 57.6711 9.56715 57.6711 8.74241 57.6711C8.74241 57.5077 8.70117 57.3035 8.70117 57.1401C8.70117 55.5063 8.70117 53.8726 8.70117 52.2388C8.70117 51.4628 8.98983 51.0543 9.77334 51.0135C11.1342 50.9727 12.495 50.9318 13.8558 51.0543C15.0929 51.1769 15.794 51.9121 15.8764 53.0965C15.9177 54.6078 15.8764 56.1598 15.8764 57.6711Z" fill="white"/>
<path d="M59.01 48.8086C59.876 48.8086 60.6595 48.8086 61.4842 48.8086C61.4842 49.5029 61.4842 50.1973 61.4842 50.9325C62.144 50.9325 62.7626 50.9325 63.3811 50.9325C63.3811 51.5043 63.3811 52.0353 63.3811 52.6071C62.7626 52.6071 62.1852 52.6071 61.5667 52.6071C61.5667 53.424 61.5254 54.1592 61.5667 54.8944C61.6079 55.4662 62.1028 55.7929 62.7213 55.8338C62.9275 55.8338 63.1337 55.8338 63.3811 55.8338C63.3811 56.4056 63.3811 56.9366 63.3811 57.5901C62.3089 57.5492 61.1955 57.7943 60.1234 57.3042C59.3811 56.9774 59.0512 56.3648 59.01 55.5887C59.01 54.8535 59.01 54.0775 59.01 53.3423C59.01 53.1381 59.01 52.9338 59.01 52.6888C58.6801 52.6479 58.3502 52.6479 58.0615 52.6071C58.0615 52.0761 58.0615 51.5451 58.0615 50.9733C58.3502 50.9733 58.6388 50.9325 59.01 50.9325C59.01 50.2381 59.01 49.5438 59.01 48.8086Z" fill="white"/>
<path d="M68.7834 52.6893C68.4948 52.6893 68.2473 52.6893 67.9587 52.6893C66.8865 52.6893 66.3504 53.1794 66.3092 54.2413C66.268 55.1808 66.3092 56.161 66.3092 57.1004C66.3092 57.2638 66.3092 57.3863 66.3092 57.5906C65.4845 57.5906 64.7009 57.5906 63.835 57.5906C63.835 57.1413 63.835 56.692 63.835 56.2835C63.835 55.4258 63.835 54.6089 63.835 53.7512C63.835 51.9949 64.5772 51.1372 66.3504 50.9738C67.1339 50.8921 67.9175 50.9738 68.7834 50.9738C68.7834 51.5456 68.7834 52.0766 68.7834 52.6893Z" fill="white"/>
<path d="M26.9693 57.6308C26.1034 57.6308 25.3199 57.6308 24.4951 57.6308C24.4951 57.1407 24.4951 56.6506 24.4951 56.1604C24.4951 55.3436 24.4951 54.5675 24.4951 53.7506C24.4951 51.9943 25.3199 51.1366 27.0931 50.9732C27.8353 50.9324 28.6188 50.9732 29.4023 50.9732C29.4023 51.5042 29.4023 52.076 29.4023 52.6887C29.1137 52.6887 28.7838 52.6887 28.4951 52.6887C27.5879 52.6887 27.0931 53.0971 27.0518 53.9549C26.9693 54.9351 27.0106 55.9562 26.9693 56.9365C26.9281 57.1407 26.9693 57.3449 26.9693 57.6308Z" fill="white"/>
<path d="M80.0001 57.6304C79.2166 57.6304 78.4331 57.6304 77.6084 57.6304C77.6084 55.4248 77.6084 53.2193 77.6084 51.0137C78.3919 51.0137 79.1754 51.0137 80.0001 51.0137C80.0001 53.2193 80.0001 55.384 80.0001 57.6304Z" fill="white"/>
<path d="M77.6084 48.8496C78.4331 48.8496 79.1754 48.8496 80.0001 48.8496C80.0001 49.2989 80.0001 49.7482 80.0001 50.1975C78.763 50.1975 77.9795 50.1975 77.6084 50.1975C77.6084 49.7482 77.6084 49.3397 77.6084 48.8496Z" fill="white"/>
<path d="M73.1954 57.7531C72.7005 57.7122 72.2057 57.7122 71.7108 57.6305C70.2263 57.4263 69.5252 56.7728 69.3603 55.3024C69.2778 54.5264 69.3191 53.7095 69.4428 52.9334C69.6077 51.8715 70.2675 51.0955 71.3809 51.0138C72.5768 50.8912 73.8139 50.8912 75.051 51.0138C76.2057 51.1363 76.8655 51.9123 77.0304 53.0151C77.1129 53.6686 77.1541 54.4038 77.1129 55.0573C76.9479 56.7728 76.082 57.5488 74.3088 57.6714C74.0201 57.6714 73.8964 57.7122 73.484 57.7122C73.4428 57.7531 73.1954 57.7531 73.1954 57.7531ZM71.752 54.2405V54.3221C71.752 54.4038 71.752 54.4855 71.752 54.5672C71.7933 55.5066 72.2469 55.9559 73.0716 55.9968C73.9376 56.0376 74.3912 55.6292 74.5149 54.6489C74.5562 54.363 74.5149 54.0362 74.4737 53.7503C74.3912 52.9743 74.0201 52.6884 73.1954 52.6475C72.3294 52.6475 71.9582 52.9334 71.7933 53.6686C71.7933 53.9137 71.7933 54.0362 71.752 54.2405Z" fill="white"/>
<path d="M30.1858 58.3668C31.3405 58.3668 32.4126 58.3668 33.4848 58.3668C33.9384 58.3668 34.3096 58.2442 34.4333 57.6316C33.8972 57.6316 33.4436 57.6316 32.9487 57.6316C32.7838 57.6316 32.6188 57.6316 32.4126 57.6316C30.8869 57.7133 30.0209 57.3457 29.7735 55.3852C29.691 54.5683 29.7322 53.7514 29.8147 52.9345C29.9797 51.75 30.8869 50.974 32.124 50.974C33.2786 50.9331 34.4333 50.9331 35.5879 50.974C36.4539 50.974 36.8663 51.4233 36.8663 52.2402C36.8663 53.9148 36.9075 55.5485 36.8663 57.2231C36.825 59.0611 36.0415 59.8372 34.2271 59.9189C32.99 59.9597 31.3817 59.9189 30.1858 59.9189V59.5513C30.1858 59.6329 30.1858 58.8569 30.1858 58.3668ZM34.4333 55.9161C34.4333 54.9767 34.4333 54.119 34.4333 53.2204C34.4333 53.0979 34.3508 52.9345 34.2271 52.812C33.8559 52.5261 32.7838 52.6486 32.5364 53.0979C32.124 53.7922 32.124 54.5683 32.4126 55.3035C32.6601 55.9161 33.2786 55.8753 33.8559 55.8753C34.0209 55.9161 34.1858 55.9161 34.4333 55.9161Z" fill="white"/>
</svg>
