<svg width="80" height="60" fill="none" xmlns="http://www.w3.org/2000/svg"><g clip-path="url(#clip0)"><path d="M36.288 0H9.648v18.462h26.64V0z" fill="#10406E"/><path d="M46.02 0h-5.938v9.027h5.938V0z" fill="#417195"/><path d="M67.256 0H49.44v18.462h17.815V0z" fill="#1272B7"/><path d="M77.029 36.964h2.969v6.086h-9.072V0h6.103v36.964zM51.38 26.628v-3.92c4.207-1.144 8.042-1.675 12.372-.695 4.041.94 3.588 4.575 3.588 6.535v14.5h-5.361v-9.68s-2.31.163-4.413.694c-2.185.694-3.876 1.348-4 2.94.083 1.267.66 1.798 1.98 2.166 2.02.367 2.886.49 4.742.326v3.595c-2.35.245-5.32.204-7.546-.368-1.938-.572-4.454-2.655-4.289-5.677 0-2.492 1.113-4.289 3.34-5.555 2.392-1.307 5.938-1.511 7.588-1.838 2.144-.45 3.134-.654 3.134-2.165-.083-2.165-2.186-2.001-3.464-2.042-3.052-.04-7.67 1.184-7.67 1.184zM0 0h6.062v43.05H0V0zm29.032 43.09h-6.02V21.647h5.65v2.37c.948-1.144 1.979-2.002 3.34-2.41 1.36-.409 2.886-.205 4.288-.164V26.1c-1.155 0-1.773-.081-2.845 0-2.763.327-4.371 2.206-4.413 4.983v12.009z" fill="#1D2027"/><path d="M20.001 21.607c-2.68 3.145-5.36 6.29-8 9.394 3.01 4.003 6.062 8.046 9.114 12.09h-6.681l-.165-.245a2016.29 2016.29 0 01-8.206-11.723c0-.04-.041-.081-.083-.163 1.155-1.47 2.31-2.982 3.464-4.493 1.196-1.511 2.35-3.063 3.547-4.574l.288-.327c2.021.04 6.722.04 6.722.04zm25.978.041v21.403h-5.897V21.648h5.897z" fill="#1D2027"/><path d="M57.28 50.974h-4.578c-.289 0-.536.081-.577.326 0 .286.288.368.453.409 1.114.326 2.227.653 3.34.898 1.114.286 1.774.94 1.815 2.083.041.531 0 1.062-.082 1.593-.124.776-.743 1.348-1.485 1.348-2.227.041-4.454 0-6.722 0v-2.124h3.34c.537 0 1.073.041 1.609 0 .165 0 .495-.04.495-.286 0-.326-.248-.367-.371-.408a45.863 45.863 0 00-2.227-.654c-.413-.122-.784-.245-1.196-.326-.99-.205-1.567-.858-1.69-1.838-.042-.572-.083-1.144 0-1.675.123-.858.7-1.43 1.566-1.47 2.103-.041 4.165 0 6.31 0v2.124zM4.99 52.199c-.165-.776-.66-1.062-1.237-1.103-.908-.082-1.815-.082-2.763-.122H0V48.85h.371c1.443 0 2.887-.041 4.371 0 1.815.04 2.887.98 3.052 2.695.124 1.185.082 2.37 0 3.513-.124 1.47-1.072 2.41-2.557 2.532-1.732.123-3.464.041-5.237.041v-2.124h.825c.99-.04 2.02 0 3.01-.122.742-.082 1.072-.49 1.113-1.226H.288V52.2H4.99zm14.061 2.776c0 .653.206.898.825.94h3.629v1.756h-4.949c-1.196-.041-1.814-.531-1.938-1.716a16.45 16.45 0 01-.041-3.186c.082-1.102.701-1.674 1.856-1.756a31.014 31.014 0 013.381-.04c1.237.04 1.773.53 1.897 1.755.206 2.084 0 2.37-1.856 2.288-.907-.082-1.814-.041-2.804-.041zm.042-1.511h2.267c0-.409-.288-.817-.453-.858-.371-.082-.784-.082-1.196-.04-.536.04-.701.285-.618.898zm22.433 4.29c-.495-.041-.99-.041-1.484-.123-1.485-.204-2.186-.858-2.35-2.328a9.132 9.132 0 01.082-2.37c.165-1.061.825-1.837 1.938-1.919a18.356 18.356 0 013.67 0c1.155.123 1.815.899 1.98 2.002.082.653.123 1.388.082 2.042-.165 1.715-1.031 2.491-2.804 2.614-.289 0-.413.04-.825.04-.041.041-.289.041-.289.041zm-1.402-3.513v.327c.042.94.495 1.388 1.32 1.43.866.04 1.32-.368 1.443-1.349.041-.285 0-.612-.041-.898-.082-.776-.454-1.062-1.278-1.103-.866 0-1.237.286-1.402 1.021-.042.245-.042.368-.042.572z" fill="#10406E"/><path d="M40.082 12.376h5.897v6.086h-5.897v-6.086z" fill="#1D2027"/><path d="M15.874 57.672h-2.391c0-.164-.042-.409-.042-.572v-2.778c0-1.266-.453-1.674-1.732-1.633-.412 0-.536.163-.536.571v4.412H8.74c0-.164-.04-.368-.04-.531v-4.902c0-.776.288-1.184 1.071-1.225 1.361-.04 2.722-.082 4.083.04 1.237.123 1.938.859 2.02 2.043.042 1.511 0 3.063 0 4.575zm43.137-8.863h2.474v2.123h1.897v1.675h-1.814c0 .817-.042 1.552 0 2.287.04.572.536.899 1.154.94h.66v1.756c-1.072-.04-2.185.204-3.258-.286-.742-.327-1.072-.94-1.113-1.715v-2.9c-.33-.041-.66-.041-.949-.082v-1.634c.29 0 .578-.04.949-.04v-2.124zm9.773 3.88h-.824c-1.072 0-1.609.49-1.65 1.552-.041.94 0 1.92 0 2.859v.49h-2.474v-3.839c0-1.757.742-2.614 2.515-2.778.784-.081 1.567 0 2.433 0v1.716zM26.97 57.633h-2.474v-3.88c0-1.757.825-2.614 2.598-2.778.742-.04 1.526 0 2.31 0v1.716h-.908c-.907 0-1.402.408-1.443 1.266-.083.98-.041 2.001-.083 2.981-.04.205 0 .409 0 .695zm53.031-.001H77.61v-6.616h2.392v6.616zm-2.391-8.78H80v1.347h-2.39v-1.347zm-4.416 8.902c-.495-.041-.99-.041-1.484-.123-1.485-.204-2.186-.858-2.35-2.328a9.128 9.128 0 01.082-2.37c.165-1.061.825-1.837 1.938-1.919a18.357 18.357 0 013.67 0c1.155.123 1.815.899 1.98 2.002.082.653.123 1.388.082 2.042-.165 1.715-1.031 2.491-2.804 2.614-.289 0-.413.04-.825.04-.041.041-.289.041-.289.041zm-1.443-3.513v.327c.041.94.495 1.388 1.32 1.43.866.04 1.32-.368 1.443-1.349.041-.285 0-.612-.041-.898-.083-.776-.454-1.062-1.279-1.103-.866 0-1.237.286-1.402 1.021 0 .245 0 .368-.04.572zm-41.567 4.124h3.299c.454 0 .825-.123.948-.735h-2.02c-1.526.081-2.392-.286-2.64-2.247-.082-.817-.04-1.634.042-2.45.165-1.185 1.072-1.961 2.309-1.961 1.155-.04 2.31-.04 3.464 0 .866 0 1.278.45 1.278 1.266 0 1.675.042 3.309 0 4.983-.04 1.838-.824 2.614-2.639 2.696-1.237.04-2.845 0-4.041 0v-1.552zm4.247-2.45v-2.697c0-.122-.082-.285-.206-.408-.371-.286-1.443-.163-1.69.286-.413.694-.413 1.47-.124 2.206.247.612.866.571 1.443.571.165.041.33.041.577.041z" fill="#10406E"/></g><defs><clipPath id="clip0"><path fill="#fff" d="M0 0h80v60H0z"/></clipPath></defs></svg>