<svg width="156" height="150" viewBox="0 0 156 150" fill="none" xmlns="http://www.w3.org/2000/svg">
<path d="M62.2012 66.5994C62.1049 67.7631 61.9254 68.9181 61.8028 70.0818C61.7415 70.6482 61.7109 71.2191 61.6671 71.7856C61.6022 72.3745 61.6482 72.9704 61.8028 73.5422L61.9298 73.0459L61.8597 73.1206C61.7837 73.1996 61.7309 73.298 61.707 73.4052C61.6832 73.5123 61.6892 73.624 61.7245 73.7279C61.7598 73.8319 61.823 73.924 61.9071 73.9943C61.9912 74.0645 62.0929 74.1102 62.2012 74.1262C62.639 74.1789 63.0768 73.6607 62.7922 73.2479L62.7266 73.1557V73.6695C63.2213 72.6068 63.1906 71.2938 63.2388 70.1564C63.287 69.0191 63.2388 67.7895 63.322 66.6082C63.3658 65.8792 62.2625 65.8924 62.2012 66.6082V66.5994Z" fill="#8496B6"/>
<path d="M62.0912 67.6272C71.3637 69.735 80.7019 71.5794 90.0182 73.4545L93.862 74.2318C94.5406 74.3679 95.2148 74.5128 95.8934 74.6314L96.8609 74.8026C97.2314 74.8172 97.5995 74.8687 97.9598 74.9563C99.2425 75.5096 99.6015 73.4501 98.3626 73.4589C97.8579 73.39 97.3619 73.2678 96.8828 73.0944C96.2787 72.9539 95.6789 72.8221 95.0747 72.6948L91.5723 71.9614L84.537 70.5035C79.838 69.5462 75.136 68.5874 70.4312 67.6272C67.8044 67.087 65.1776 66.5864 62.5114 66.099C61.522 65.9189 61.0842 67.4164 62.0736 67.6316L62.0912 67.6272Z" fill="#8496B6"/>
<path d="M62.3555 74.6532C71.7025 75.9706 80.9794 77.7535 90.3001 79.2334L94.2403 79.8525L96.0746 80.1424C96.7007 80.2434 97.5325 80.2258 98.0929 80.5332C99.021 81.0382 99.3406 79.2553 98.233 79.4617C97.6868 79.4823 97.1411 79.4125 96.6175 79.2553L94.8663 78.9699L91.4603 78.377C89.1399 77.9686 86.8284 77.5339 84.5081 77.1431C79.7974 76.3526 75.0808 75.5914 70.3585 74.8596C67.7798 74.4643 65.1881 74.1042 62.6007 73.7398C62.0053 73.6563 61.7514 74.5697 62.3512 74.6532H62.3555Z" fill="#8496B6"/>
<path d="M98.5392 80.8676C98.7103 80.8539 98.87 80.776 98.9864 80.6494C99.1028 80.5229 99.1675 80.357 99.1675 80.1848C99.1675 80.0126 99.1028 79.8467 98.9864 79.7202C98.87 79.5936 98.7103 79.5157 98.5392 79.502C98.3681 79.5157 98.2084 79.5936 98.092 79.7202C97.9755 79.8467 97.9109 80.0126 97.9109 80.1848C97.9109 80.357 97.9755 80.5229 98.092 80.6494C98.2084 80.776 98.3681 80.8539 98.5392 80.8676Z" fill="#8496B6"/>
<path d="M99.0205 79.844L98.9943 77.1609C99.0264 76.2658 99.0016 75.3696 98.9198 74.4778C98.8948 74.396 98.8444 74.3244 98.7758 74.2736C98.7072 74.2228 98.6242 74.1953 98.539 74.1953C98.4537 74.1953 98.3707 74.2228 98.3021 74.2736C98.2336 74.3244 98.1831 74.396 98.1581 74.4778C98.08 75.3698 98.0566 76.2659 98.088 77.1609L98.0618 79.844C98.0732 79.9636 98.1286 80.0746 98.2173 80.1554C98.3059 80.2363 98.4214 80.281 98.5412 80.281C98.6609 80.281 98.7764 80.2363 98.8651 80.1554C98.9537 80.0746 99.0091 79.9636 99.0205 79.844Z" fill="#8496B6"/>
<path d="M62.5564 65.8703C61.7683 65.721 60.8052 66.2875 60.0916 66.5686C59.216 66.9067 58.3666 67.2141 57.4998 67.5171C55.7486 68.1275 53.9974 68.7116 52.2462 69.221C48.5819 70.2749 44.9044 71.3025 41.2138 72.2686L38.0616 73.0941C36.9907 73.334 35.9431 73.669 34.9314 74.0954C34.8318 74.1576 34.7549 74.2503 34.7118 74.3598C34.6688 74.4693 34.662 74.5898 34.6924 74.7034C34.7228 74.8171 34.7889 74.9179 34.8808 74.9911C34.9727 75.0643 35.0856 75.1059 35.2028 75.1098C36.1491 74.9817 37.0832 74.7761 37.996 74.495C38.9416 74.2447 39.8829 73.9724 40.8198 73.7045C42.7023 73.1732 44.5892 72.6682 46.4717 72.1544C50.0879 71.1707 53.7785 70.3407 57.3291 69.1507C58.3302 68.8111 59.3196 68.4378 60.2973 68.0309C60.7658 67.8377 61.2211 67.6313 61.6764 67.4073C62.1478 67.2441 62.5566 66.937 62.8453 66.529C62.8799 66.4684 62.9002 66.4008 62.9049 66.3311C62.9096 66.2615 62.8984 66.1917 62.8723 66.127C62.8462 66.0623 62.8057 66.0044 62.754 65.9576C62.7023 65.9109 62.6407 65.8765 62.5739 65.8572L62.5564 65.8703Z" fill="#8496B6"/>
<path d="M62.3898 73.8717C55.3851 75.659 48.3365 77.4682 41.2311 78.913C39.2114 79.3228 37.1829 79.6946 35.1457 80.0284C34.6379 80.1162 34.848 80.9066 35.3646 80.8144C42.4744 79.4312 49.6149 78.0654 56.6109 76.1903C58.6072 75.6546 60.5905 75.1188 62.5693 74.5216C62.6494 74.4928 62.7156 74.4347 62.7547 74.3589C62.7939 74.2831 62.803 74.1953 62.7803 74.1131C62.7576 74.0309 62.7047 73.9603 62.6323 73.9155C62.5599 73.8707 62.4732 73.8551 62.3898 73.8717Z" fill="#8496B6"/>
<path d="M91.1617 81.517C90.0585 82.6719 88.2898 83.1769 86.7838 83.4228C86.3766 83.4843 85.9651 83.5151 85.5536 83.5414C85.2146 83.5002 84.8712 83.563 84.5685 83.7214C84.0081 84.1606 84.8706 84.8983 85.2559 84.3099C85.2905 84.2498 85.3087 84.1816 85.3087 84.1123C85.3087 84.0429 85.2905 83.9747 85.2559 83.9147L85.234 83.8839C84.91 83.357 84.157 84.0201 84.6955 84.4285L84.7218 84.4504L84.5423 84.0113L84.9319 83.8312L85.107 84.1386C84.9363 84.2791 84.9231 84.3406 85.0632 84.3187H85.3084C85.4748 84.3187 85.6367 84.3187 85.7987 84.3187C86.1271 84.3187 86.4511 84.2792 86.775 84.2352C87.3981 84.1564 88.0132 84.0241 88.6138 83.84C89.7821 83.5182 90.8366 82.8729 91.6564 81.9781C91.9366 81.6531 91.4813 81.1876 91.1836 81.5038L91.1617 81.517Z" fill="#8496B6"/>
<path d="M85.3428 85.3156C84.4584 84.3368 83.3537 83.584 82.1207 83.1199C80.8282 82.5915 79.5015 82.1514 78.1498 81.8025C75.2444 80.957 72.2706 80.3692 69.2626 80.046C63.2558 79.5118 57.2025 80.1151 51.418 81.8245C50.017 82.2373 48.476 82.6764 47.6311 83.9762C46.9525 85.0214 46.7161 86.6901 48.0689 87.2654C48.1816 87.2966 48.3018 87.2852 48.4067 87.2334C48.5116 87.1816 48.5939 87.093 48.638 86.9843C48.6822 86.8763 48.6867 86.756 48.6506 86.645C48.6145 86.5339 48.5402 86.4394 48.441 86.3783C48.1827 86.1983 48.2002 85.8338 48.2527 85.5439C48.3347 85.1005 48.5378 84.6885 48.8394 84.3539C49.6274 83.4976 50.9452 83.2385 52.0178 82.9399C54.7195 82.1863 57.4803 81.6648 60.2702 81.381C63.084 81.1066 65.9143 81.0449 68.7372 81.1965C71.5545 81.2988 74.3571 81.6515 77.1123 82.2504C78.5678 82.5745 80.0009 82.9926 81.4027 83.502C82.7232 83.9723 83.9279 84.721 84.9357 85.6976C85.1896 85.9523 85.5398 85.5791 85.3209 85.3112L85.3428 85.3156Z" fill="#8496B6"/>
<path d="M40.8542 80.3628C40.774 81.0683 40.9034 81.7817 41.2263 82.4136C41.5778 83.0488 42.0689 83.5954 42.6623 84.012C43.9188 84.9211 45.5824 85.2241 47.1015 85.246C47.8545 85.246 47.8414 84.1262 47.1015 84.0779C45.7881 83.9945 44.4748 83.8276 43.3934 83.0899C42.9469 82.7879 42.5693 82.3942 42.2858 81.9349C41.9645 81.4711 41.7781 80.9268 41.7473 80.3628C41.7473 79.7744 40.9024 79.7963 40.8717 80.3628H40.8542Z" fill="#8496B6"/>
<path d="M46.9308 85.1675C47.1624 86.2435 47.7098 87.2254 48.5025 87.9868C48.8291 88.2893 49.196 88.5449 49.5926 88.7465C49.7064 88.8036 49.8159 88.8519 49.9297 88.9002C49.956 88.9002 50.1004 88.9748 49.9735 88.9002L50.1836 88.988C50.2099 88.988 50.3587 89.0495 50.2143 88.988C50.2809 89.0203 50.3497 89.0482 50.42 89.0714C50.5058 89.0992 50.5963 89.1089 50.686 89.0998C50.7757 89.0907 50.8625 89.0631 50.941 89.0187L50.5776 89.067C50.4813 89.0451 50.512 89.0363 50.5776 89.067C50.6492 89.1094 50.7301 89.1332 50.8132 89.1365C50.8962 89.1398 50.9788 89.1225 51.0535 89.086C51.1282 89.0495 51.1928 88.9951 51.2414 88.9275C51.29 88.8599 51.3212 88.7813 51.3322 88.6987C51.3432 88.616 51.3336 88.532 51.3044 88.454C51.2751 88.376 51.227 88.3064 51.1644 88.2516C51.1018 88.1968 51.0267 88.1583 50.9457 88.1397C50.8647 88.1211 50.7804 88.1228 50.7002 88.1449H50.6214H50.8447L51.1292 88.36C51.0794 88.2856 51.0148 88.2222 50.9395 88.1739C50.8641 88.1255 50.7797 88.0932 50.6915 88.079C50.617 88.079 50.5382 88.079 50.4638 88.0439C50.5338 88.0439 50.547 88.0439 50.4638 88.0439C50.3806 88.0439 50.2931 87.9999 50.2055 87.9692L50.0917 87.9297C49.9778 87.8858 50.1442 87.956 50.0566 87.9297C49.8836 87.8524 49.7154 87.7644 49.5532 87.6662L49.3036 87.4993L49.1898 87.4159L49.1154 87.3544C48.3802 86.7344 47.863 85.8939 47.64 84.9567C47.5218 84.4912 46.8169 84.6888 46.922 85.1587L46.9308 85.1675Z" fill="#8496B6"/>
<path d="M50.7283 89.0139C50.5138 94.042 50.5532 99.0745 50.5926 104.107C50.632 109.14 50.7414 114.172 50.9122 119.196C51.0085 122.037 51.0785 124.904 51.35 127.719C51.3604 127.82 51.4075 127.913 51.4823 127.98C51.5571 128.048 51.6542 128.085 51.7549 128.085C51.8556 128.085 51.9527 128.048 52.0275 127.98C52.1023 127.913 52.1495 127.82 52.1599 127.719C52.2299 125.207 52.1205 122.691 52.0942 120.179C52.068 117.668 51.9892 115.151 51.9454 112.635C51.8534 107.607 51.8797 102.574 51.9103 97.5463C51.9103 94.7007 51.9103 91.8595 51.8666 89.0139C51.8539 88.8683 51.7874 88.7328 51.68 88.634C51.5726 88.5353 51.4322 88.4805 51.2865 88.4805C51.1408 88.4805 51.0004 88.5353 50.893 88.634C50.7856 88.7328 50.719 88.8683 50.7064 89.0139H50.7283Z" fill="#8496B6"/>
<path d="M80.6537 89.9709C79.7344 88.2934 78.027 87.3976 76.2758 86.897C74.0163 86.3303 71.7068 85.9876 69.3805 85.8738C66.7855 85.6821 64.1805 85.6659 61.5833 85.8255C59.0467 85.9454 56.5225 86.2536 54.0313 86.7477C52.9106 86.9848 51.584 87.4283 50.9055 88.4164C50.6288 88.8756 50.4679 89.3955 50.4367 89.9311C50.4054 90.4667 50.5047 91.0019 50.726 91.4904C50.9843 92.1491 52.0394 91.8812 51.8029 91.1961C51.5359 90.4364 51.4221 89.4396 52.07 88.8511C52.8011 88.1617 53.9306 87.9421 54.8807 87.7533C57.1224 87.335 59.3893 87.0666 61.6665 86.9497C63.9482 86.8172 66.2355 86.8099 68.518 86.9277C70.7208 86.9964 72.9157 87.2269 75.085 87.6172C76.9368 87.9904 78.9507 88.6799 79.9576 90.4057C80.0157 90.4994 80.1085 90.5662 80.2157 90.5913C80.3228 90.6165 80.4355 90.5979 80.529 90.5396C80.6224 90.4814 80.689 90.3883 80.7141 90.2808C80.7391 90.1734 80.7205 90.0603 80.6625 89.9665L80.6537 89.9709Z" fill="#8496B6"/>
<path d="M55.9898 90.9767C55.6658 92.8782 55.8059 94.9289 55.8278 96.8436C55.8497 98.7582 55.8584 100.796 55.8759 102.746C55.9022 106.698 55.8759 110.69 55.9197 114.659C55.9504 116.921 56.0029 119.178 56.108 121.435C56.1181 121.531 56.1634 121.62 56.2349 121.684C56.3064 121.749 56.3992 121.785 56.4954 121.785C56.5916 121.785 56.6844 121.749 56.7559 121.684C56.8275 121.62 56.8727 121.531 56.8828 121.435C56.9295 113.496 56.9295 105.555 56.8828 97.612C56.8828 96.5186 56.8829 95.4164 56.8347 94.3317C56.8424 93.2072 56.7486 92.0843 56.5545 90.9767C56.536 90.9167 56.4988 90.8642 56.4484 90.8269C56.3979 90.7896 56.337 90.7695 56.2743 90.7695C56.2117 90.7695 56.1507 90.7896 56.1003 90.8269C56.0499 90.8642 56.0127 90.9167 55.9941 90.9767H55.9898Z" fill="#8496B6"/>
<path d="M63.1991 89.1448C63.0809 90.3173 63.1159 91.5074 63.1116 92.6843C63.1072 93.8612 63.1116 95.161 63.1116 96.395C63.1116 98.8541 63.1422 101.309 63.1597 103.764C63.2064 108.741 63.2546 113.717 63.3042 118.694C63.3305 121.417 63.3436 124.135 63.418 126.858C63.4262 126.921 63.4572 126.98 63.5051 127.022C63.5531 127.064 63.6147 127.087 63.6785 127.087C63.7423 127.087 63.8039 127.064 63.8519 127.022C63.8998 126.98 63.9308 126.921 63.939 126.858C64.1141 121.988 64.0397 117.109 63.9872 112.239C63.9302 107.264 63.8646 102.284 63.8296 97.3084C63.8296 95.9646 63.8033 94.6253 63.7902 93.2815C63.777 91.9377 63.8339 90.5149 63.7113 89.1448C63.7113 89.0785 63.6851 89.0148 63.6383 88.9679C63.5915 88.9209 63.528 88.8945 63.4618 88.8945C63.3956 88.8945 63.3321 88.9209 63.2853 88.9679C63.2385 89.0148 63.2123 89.0785 63.2123 89.1448H63.1991Z" fill="#8496B6"/>
<path d="M71.3132 91.0592C71.3132 95.8238 71.3132 100.588 71.3132 105.353C71.3438 110.184 71.4883 115.014 71.5408 119.845C71.5715 122.576 71.5846 125.312 71.6722 128.043C71.6803 128.106 71.7108 128.163 71.7579 128.204C71.805 128.246 71.8656 128.269 71.9283 128.269C71.9909 128.269 72.0515 128.246 72.0986 128.204C72.1457 128.163 72.1762 128.106 72.1844 128.043C72.1056 123.235 72.018 118.431 72.1056 113.618C72.1931 108.805 72.2632 103.957 72.2019 99.1481C72.1668 96.443 72.0851 93.7408 71.9567 91.0416C71.9474 90.9603 71.9085 90.8852 71.8476 90.8307C71.7866 90.7762 71.7078 90.7461 71.6262 90.7461C71.5445 90.7461 71.4657 90.7762 71.4048 90.8307C71.3438 90.8852 71.305 90.9603 71.2957 91.0416L71.3132 91.0592Z" fill="#8496B6"/>
<path d="M78.0184 91.3938C78.5029 100.709 78.8152 110.026 78.9553 119.345C78.9947 121.98 78.9552 124.588 78.9947 127.21C79.0032 127.279 79.0367 127.342 79.0887 127.388C79.1407 127.434 79.2077 127.46 79.277 127.46C79.3464 127.46 79.4134 127.434 79.4654 127.388C79.5174 127.342 79.5508 127.279 79.5594 127.21C79.6382 124.882 79.5813 122.546 79.5857 120.219C79.5901 117.891 79.555 115.555 79.52 113.228C79.45 108.564 79.2792 103.905 79.0822 99.2499C78.9742 96.6151 78.8283 93.9964 78.6444 91.3938C78.6181 90.981 77.9833 90.9546 78.0008 91.3938H78.0184Z" fill="#8496B6"/>
<path d="M48.8676 110.707C43.7604 103.792 41.0095 95.4106 41.0223 86.8047" stroke="#8496B6" stroke-width="3.12" stroke-linecap="round" stroke-linejoin="round"/>
<path d="M85.0233 46.7676C95.2844 47.7565 104.772 52.6713 111.515 60.4916C118.259 68.3119 121.741 78.4368 121.238 88.7644C120.736 99.0919 116.287 108.829 108.817 115.953C101.346 123.077 91.4265 127.042 81.1182 127.024" stroke="#8496B6" stroke-width="3.32" stroke-linecap="round" stroke-linejoin="round"/>
<path d="M84.9589 84.4367C85.1997 85.4116 84.7619 86.6324 84.1665 87.4141C83.781 87.8573 83.2834 88.188 82.7262 88.3714C82.0345 88.6393 81.3165 88.7798 80.6073 88.9818C80.4989 89.0136 80.4069 89.0862 80.3506 89.1844C80.2943 89.2826 80.278 89.3988 80.3052 89.5088C80.3341 89.6346 80.405 89.7467 80.5061 89.8265C80.6072 89.9064 80.7325 89.9492 80.8612 89.9479C81.4916 89.9479 81.3865 88.9379 80.743 89.0696H80.6948H80.9269H80.8743L81.0669 89.1794L81.0275 89.1443L81.1501 89.4429V89.3902L80.8349 89.8293C81.6578 89.6917 82.4607 89.4528 83.2253 89.1179C83.8734 88.8561 84.439 88.4237 84.8626 87.8664C85.2294 87.3379 85.4855 86.7404 85.6156 86.1098C85.7723 85.5108 85.7829 84.8826 85.6463 84.2786C85.6339 84.2334 85.6128 84.191 85.5841 84.1539C85.5554 84.1168 85.5197 84.0858 85.4791 84.0625C85.4384 84.0393 85.3936 84.0243 85.3472 84.0184C85.3007 84.0126 85.2536 84.0159 85.2085 84.0283C85.1634 84.0407 85.1211 84.0619 85.0841 84.0907C85.0472 84.1195 85.0162 84.1553 84.9931 84.196C84.9699 84.2368 84.9549 84.2818 84.9491 84.3284C84.9432 84.3749 84.9466 84.4222 84.9589 84.4675V84.4367Z" fill="#8496B6"/>
<path d="M79.9152 90.2043C79.7532 91.6359 79.9152 93.1202 79.9546 94.5561L80.0334 98.6884C80.0816 101.534 80.1079 104.397 80.1604 107.23C80.2655 112.938 80.4143 118.647 80.4625 124.356C80.4887 127.575 80.4844 130.794 80.5456 134.017C80.5578 134.151 80.6195 134.276 80.7187 134.367C80.818 134.458 80.9475 134.508 81.0819 134.508C81.2164 134.508 81.3459 134.458 81.4452 134.367C81.5444 134.276 81.6061 134.151 81.6182 134.017C81.7189 128.282 81.592 122.529 81.4738 116.79C81.3556 111.05 81.2374 105.315 81.0929 99.5798L80.9922 94.8811C80.9528 93.2958 81.0666 91.6534 80.8215 90.0813C80.7339 89.5368 79.9853 89.7432 79.9459 90.2043H79.9152Z" fill="#8496B6"/>
<path d="M91.5686 81.113C91.4636 80.1425 90.588 79.6682 89.7386 79.4267C88.5566 79.0886 87.3745 78.7724 86.1837 78.4738C83.9948 77.9337 81.8058 77.4638 79.6168 77.0378C75.8519 76.297 72.0443 75.794 68.2166 75.5316C64.9526 75.3186 61.6773 75.3539 58.4187 75.637C55.2053 75.9346 52.0124 76.4243 48.8572 77.1037C47.2023 77.455 45.5518 77.8239 43.9145 78.2367C43.0389 78.4518 42.1633 78.6407 41.2877 78.9217C40.7616 79.0529 40.2974 79.3633 39.9743 79.8C39.8417 80.0104 39.766 80.2518 39.7545 80.5005C39.743 80.7491 39.7961 80.9965 39.9087 81.2184C40.0029 81.4216 40.1551 81.5923 40.346 81.7088C40.5369 81.8252 40.758 81.8823 40.9813 81.8727C41.1151 81.8605 41.2396 81.7986 41.3303 81.6991C41.421 81.5995 41.4712 81.4696 41.4712 81.3347C41.4712 81.1999 41.421 81.07 41.3303 80.9704C41.2396 80.8709 41.1151 80.809 40.9813 80.7968C40.9813 80.7968 41.0382 80.7968 41.0338 80.7968C41.0031 80.9066 40.9856 80.687 41.0338 80.7968C41.0819 80.9066 40.9725 80.6431 41.0338 80.7573C41.0195 80.7174 41.0092 80.6762 41.0031 80.6343C41.0031 80.7309 41.0031 80.6343 41.0031 80.6343C41.001 80.5919 41.001 80.5494 41.0031 80.507C41.0031 80.5992 41.0557 80.4587 41.0031 80.507C41.2352 80.2552 41.5425 80.0857 41.8787 80.0239C42.7062 79.7956 43.5424 79.5848 44.3742 79.3872C45.9284 79.0008 47.4869 78.6099 49.0586 78.2762C51.9912 77.6297 54.9586 77.1532 57.9459 76.849C61.0275 76.5549 64.1258 76.4756 67.2184 76.6119C70.7407 76.7851 74.2494 77.1708 77.7255 77.7668C79.77 78.1093 81.8014 78.5177 83.824 78.9612C84.9185 79.2042 86.0115 79.4516 87.1031 79.7034C87.6766 79.8395 88.2458 79.9625 88.8193 80.0898C89.2715 80.1651 89.7127 80.2964 90.1327 80.4806C90.2941 80.5391 90.438 80.6379 90.5506 80.7678C90.6632 80.8977 90.7409 81.0543 90.7762 81.2228C90.8419 81.6619 91.6168 81.5697 91.5686 81.113Z" fill="#8496B6"/>
<path d="M98.6616 80.3627C98.1865 80.1063 97.6303 80.0464 97.1118 80.1958L95.0848 80.5471L93.106 80.8941L92.1428 81.0478L91.6087 81.1356L91.3942 81.1707C91.149 81.2102 91.3242 81.1707 91.3942 81.2629L91.5387 81.6142V81.5747L91.473 81.825L91.4949 81.7943L91.3198 81.9699H91.3548L91.114 82.0358H91.149L90.9083 81.9699H90.9345L90.6981 81.5615V81.5923C90.7015 81.7043 90.7444 81.8115 90.8192 81.8949C90.8939 81.9782 90.9956 82.0323 91.1063 82.0476C91.217 82.0628 91.3296 82.0383 91.4239 81.9782C91.5183 81.9182 91.5884 81.8266 91.6219 81.7196V81.6889C91.6457 81.6075 91.6468 81.5211 91.6252 81.439C91.6036 81.357 91.5601 81.2824 91.4993 81.2234C91.4298 81.1581 91.3452 81.1113 91.2531 81.0873C91.161 81.0633 91.0643 81.0629 90.972 81.086C90.8796 81.1092 90.7946 81.1552 90.7245 81.2199C90.6545 81.2845 90.6018 81.3658 90.5712 81.4562C90.5495 81.5483 90.5499 81.6443 90.5722 81.7363C90.5945 81.8283 90.6381 81.9137 90.6996 81.9856C90.761 82.0575 90.8385 82.1139 90.9257 82.15C91.0129 82.1862 91.1075 82.2013 91.2016 82.1939C91.5977 82.1584 91.9892 82.0834 92.3705 81.9699L93.6883 81.6801L96.1312 81.2102L97.4095 80.9643C97.5516 80.9143 97.7023 80.8933 97.8526 80.9023C98.0029 80.9114 98.15 80.9504 98.2851 81.017C98.7229 81.2981 99.0863 80.6262 98.6791 80.3408L98.6616 80.3627Z" fill="#8496B6"/>
<path d="M41.1528 82.0664C40.7314 81.7974 40.2926 81.5569 39.8394 81.3462C39.3844 81.1524 38.9198 80.9824 38.4472 80.8368C37.9743 80.6928 37.4934 80.577 37.0069 80.4899C36.7792 80.4489 36.5516 80.4138 36.3239 80.3845C36.0614 80.3774 35.8003 80.3436 35.5446 80.2835C35.4771 80.2614 35.4053 80.256 35.3353 80.2679C35.2653 80.2798 35.1992 80.3086 35.1427 80.3518C35.0863 80.395 35.0412 80.4514 35.0113 80.516C34.9814 80.5806 34.9676 80.6515 34.9711 80.7227C34.9723 80.7923 34.9891 80.8608 35.0204 80.9229C35.0517 80.9851 35.0966 81.0393 35.1518 81.0816C35.207 81.1239 35.271 81.153 35.3391 81.1669C35.4071 81.1808 35.4774 81.1791 35.5446 81.1618H35.6366H35.4615C35.8993 81.2452 36.3808 81.2321 36.8361 81.3067C37.2914 81.3814 37.7774 81.4868 38.2415 81.6053C38.6869 81.7277 39.1253 81.8743 39.5548 82.0445C39.9926 82.2113 40.4786 82.3606 40.9076 82.567C40.9692 82.6031 41.0425 82.6132 41.1115 82.5951C41.1804 82.577 41.2394 82.5322 41.2754 82.4704C41.3114 82.4087 41.3215 82.3352 41.3034 82.266C41.2853 82.1968 41.2406 82.1377 41.1791 82.1016L41.1528 82.0664Z" fill="#8496B6"/>
<path d="M36.0255 74.9302C36.0688 74.8518 36.0955 74.7653 36.1041 74.6762C36.1127 74.587 36.1029 74.4971 36.0754 74.4118C36.0479 74.3266 36.0033 74.248 35.9442 74.1808C35.8852 74.1136 35.813 74.0592 35.7322 74.0211C35.6769 73.9941 35.6166 73.979 35.5551 73.9768C35.4936 73.9747 35.4324 73.9856 35.3754 74.0088C35.3184 74.032 35.2669 74.067 35.2243 74.1115C35.1817 74.156 35.1489 74.209 35.128 74.2671C35.006 74.7643 34.9428 75.2743 34.9398 75.7865C34.896 76.309 34.8741 76.836 34.8435 77.3586C34.7866 78.3861 34.7384 79.4181 34.6946 80.4325L35.7366 80.1515C35.7366 80.1515 35.7366 80.0944 35.7366 80.0856C35.7917 79.9829 35.8086 79.864 35.7844 79.75C35.7602 79.636 35.6963 79.5343 35.6043 79.4631C35.5123 79.3918 35.398 79.3557 35.2819 79.3612C35.1658 79.3666 35.0554 79.4133 34.9704 79.4928C34.8161 79.6221 34.7067 79.7972 34.6579 79.9929C34.6091 80.1886 34.6235 80.3948 34.699 80.5818C34.7362 80.7115 34.8187 80.8234 34.9314 80.8972C35.0441 80.9709 35.1794 81.0015 35.3128 80.9834C35.4461 80.9653 35.5684 80.8996 35.6575 80.7985C35.7466 80.6974 35.7964 80.5674 35.7979 80.4325C35.8417 79.4049 35.8898 78.373 35.9205 77.3586C35.9205 76.8536 35.9599 76.3442 35.9642 75.8392C36.0053 75.3145 35.9847 74.7869 35.9029 74.2671L35.5046 74.7896H35.5615L35.3601 74.7325C35.3601 74.6359 35.3601 74.6008 35.2988 74.6228C35.128 75.0268 35.8198 75.321 36.008 74.9214L36.0255 74.9302Z" fill="#8496B6"/>
<path d="M64.5782 89.3908C64.6161 93.3723 64.6716 97.3523 64.7446 101.331C64.8175 105.309 64.8905 109.272 64.9635 113.218C64.9854 114.329 65.0072 115.445 65.0335 116.556C65.0598 117.667 65.0598 118.822 65.1167 119.95C65.1223 119.98 65.1382 120.008 65.1618 120.028C65.1854 120.047 65.2152 120.058 65.2458 120.058C65.2765 120.058 65.3063 120.047 65.3298 120.028C65.3534 120.008 65.3694 119.98 65.375 119.95C65.4144 117.965 65.3443 115.972 65.3225 113.982L65.2305 108.028C65.1751 104.067 65.1167 100.104 65.0554 96.1403C65.0175 93.8949 64.9722 91.6494 64.9197 89.404C64.913 89.3616 64.8915 89.323 64.859 89.2951C64.8265 89.2673 64.7851 89.252 64.7424 89.252C64.6996 89.252 64.6583 89.2673 64.6257 89.2951C64.5932 89.323 64.5717 89.3616 64.5651 89.404L64.5782 89.3908Z" fill="#8496B6"/>
<path d="M59.5715 22.5507C67.767 22.2169 76.2909 25.5324 80.6645 32.7913C82.7691 36.2425 83.767 40.2585 83.5233 44.2967C83.2215 48.1151 81.7227 51.7397 79.2417 54.6515C76.8396 57.5238 73.704 59.6869 70.1705 60.9092C66.186 62.2178 61.9164 62.3851 57.8422 61.3923C55.7934 60.9096 53.8156 60.1628 51.9582 59.1702C49.9961 58.1895 48.243 56.8352 46.7966 55.1829C44.056 51.8542 42.5762 47.2477 42.3048 42.9837C42 38.8292 43.0228 34.6853 45.2249 31.1534C47.2426 27.9396 50.2417 25.4658 53.7751 24.1008C54.6208 23.7819 55.4866 23.5193 56.3668 23.3148C57.0761 23.1523 56.7565 22.1555 56.0779 22.2521C52.1377 22.7966 48.4865 25.1196 45.8772 28.097C43.0942 31.3009 41.4066 35.3143 41.0615 39.5496C40.6848 44.2232 41.6494 48.9073 43.8415 53.0487C44.8976 55.1401 46.4141 56.9631 48.2764 58.3798C50.9948 60.37 54.079 61.8009 57.3513 62.59C60.6235 63.3791 64.0191 63.5108 67.3424 62.9775C71.3789 62.2629 75.1234 60.3933 78.1253 57.5937C81.051 54.912 83.1363 51.4349 84.1275 47.5858C85.077 43.4584 84.6921 39.1351 83.0286 35.2417C81.368 31.2905 78.5866 27.9158 75.0301 25.5368C71.3848 23.1402 67.1577 21.7845 62.8024 21.6153C61.7169 21.5852 60.6307 21.641 59.554 21.7822C59.0768 21.8393 59.0505 22.5726 59.554 22.5507H59.5715Z" fill="#8496B6"/>
<path d="M89.5384 40.2688C90.5409 40.0624 91.5653 39.8736 92.546 39.5706C93.5404 39.2695 94.5144 38.9043 95.4617 38.4771C96.0046 38.2356 95.615 37.309 95.0546 37.511C93.1545 38.1917 91.2589 38.9294 89.3195 39.4696C89.2138 39.4987 89.124 39.5687 89.0698 39.6642C89.0156 39.7598 89.0015 39.873 89.0305 39.979C89.0595 40.0849 89.1294 40.175 89.2246 40.2294C89.3198 40.2837 89.4327 40.2979 89.5384 40.2688Z" fill="#8496B6"/>
<path d="M37.939 37.2129C37.4005 37.0065 36.8751 36.7737 36.3235 36.5761C35.7719 36.3785 35.3078 36.2556 34.7912 36.115C33.7159 35.8208 32.6238 35.592 31.5209 35.43C31.3882 35.3992 31.2488 35.4196 31.1304 35.4872C31.012 35.5547 30.9233 35.6644 30.8817 35.7945C30.8625 35.8619 30.857 35.9326 30.8654 36.0022C30.8738 36.0719 30.8959 36.1392 30.9306 36.2001C30.9653 36.2611 31.0117 36.3145 31.0672 36.3572C31.1227 36.3999 31.1862 36.431 31.2538 36.4488C32.3337 36.6888 33.4136 36.9435 34.4935 37.2129C35.5661 37.4764 36.6606 37.7135 37.7201 38.0209C38.2367 38.1702 38.4206 37.4149 37.939 37.2261V37.2129Z" fill="#8496B6"/>
<path d="M39.965 55.9378C38.7412 56.1756 37.5357 56.4999 36.3575 56.9083C35.1573 57.2819 34.0052 57.7964 32.9252 58.4409C32.448 58.7615 32.7326 59.5914 33.3323 59.4114C34.4969 59.0513 35.5957 58.4541 36.7253 58.0018C37.8548 57.5495 38.993 57.0269 40.1488 56.5965C40.2315 56.5684 40.3003 56.5095 40.3411 56.432C40.3818 56.3544 40.3914 56.2642 40.3678 56.1799C40.3443 56.0955 40.2894 56.0234 40.2145 55.9784C40.1395 55.9333 40.0502 55.9188 39.965 55.9378Z" fill="#8496B6"/>
<path d="M52.7716 20.4643C52.0186 18.879 51.305 17.2718 50.4207 15.7524C50.1492 15.2869 49.3131 15.5987 49.5451 16.1344C50.1974 17.8119 51.0292 19.4148 51.8173 21.0352C51.8939 21.1644 52.0182 21.2581 52.1633 21.296C52.3084 21.3338 52.4625 21.3127 52.5922 21.2372C52.719 21.1596 52.8108 21.0357 52.8484 20.8915C52.886 20.7474 52.8663 20.5942 52.7935 20.4643H52.7716Z" fill="#8496B6"/>
<path d="M80.4528 64.2027C81.5863 65.2094 82.5934 66.3508 83.4517 67.6017C83.4871 67.6736 83.5368 67.7375 83.5979 67.7893C83.6589 67.8411 83.73 67.8797 83.8066 67.9027C83.8831 67.9258 83.9636 67.9328 84.043 67.9233C84.1224 67.9138 84.199 67.8879 84.268 67.8474C84.337 67.8069 84.397 67.7526 84.4441 67.6878C84.4913 67.6231 84.5247 67.5493 84.5421 67.471C84.5596 67.3927 84.5608 67.3117 84.5457 67.2329C84.5306 67.1542 84.4995 67.0794 84.4543 67.0132C83.5813 65.6492 82.5183 64.4175 81.2978 63.3552C81.2423 63.2996 81.1764 63.2554 81.1039 63.2253C81.0314 63.1952 80.9538 63.1797 80.8753 63.1797C80.7968 63.1797 80.7191 63.1952 80.6467 63.2253C80.5742 63.2554 80.5083 63.2996 80.4528 63.3552C80.3973 63.4109 80.3533 63.4769 80.3233 63.5496C80.2933 63.6224 80.2778 63.7003 80.2778 63.779C80.2778 63.8577 80.2933 63.9356 80.3233 64.0083C80.3533 64.081 80.3973 64.1471 80.4528 64.2027Z" fill="#8496B6"/>
<path d="M82.1972 89.3599C82.867 94.7349 83.8477 100.066 84.732 105.41C85.6164 110.755 86.4832 116.16 87.3807 121.535L87.7353 123.7C87.7887 124.444 87.9223 125.181 88.1337 125.896C88.1705 126.009 88.2312 126.114 88.3116 126.202C88.392 126.29 88.4903 126.359 88.5999 126.406C88.7094 126.453 88.8277 126.475 88.9466 126.472C89.0656 126.469 89.1825 126.44 89.2895 126.388C89.3868 126.322 89.4687 126.236 89.5293 126.136C89.5899 126.035 89.6278 125.923 89.6403 125.806C89.6528 125.689 89.6397 125.571 89.6017 125.46C89.5638 125.349 89.5021 125.247 89.4208 125.163C89.3409 125.083 89.2414 125.025 89.1323 124.996C89.0231 124.966 88.9083 124.966 88.7991 124.996H88.7422C87.9279 125.211 88.3044 126.537 89.0837 126.243L89.1363 126.221L88.5146 126.058L88.4358 125.514L88.8079 125.224L89.2895 125.435L89.2588 125.312C89.2526 125.163 89.2291 125.016 89.1888 124.873L89.0399 123.995L88.7291 122.155L88.1249 118.589C87.7222 116.209 87.3369 113.829 86.9122 111.457C86.0366 106.71 85.2793 101.95 84.4737 97.1941C84.0359 94.5285 83.5675 91.8717 83.0071 89.2237C82.9108 88.7846 82.1315 88.868 82.1972 89.3335V89.3599Z" fill="#8496B6"/>
<path d="M90.6243 72.8972L98.1938 64.3735L101.981 60.1139C102.611 59.4025 103.228 58.6779 103.846 57.9534C104.135 57.624 104.432 57.2991 104.721 56.9741C104.87 56.8116 105.015 56.6491 105.159 56.4954L105.444 56.232C105.295 56.232 105.203 56.1134 105.159 55.9333C105.159 56.7897 106.529 56.7853 106.473 55.9333C106.47 55.7452 106.414 55.5618 106.31 55.405C106.206 55.2482 106.06 55.1246 105.888 55.0491C105.716 54.9736 105.527 54.9493 105.341 54.9792C105.156 55.0091 104.983 55.0918 104.844 55.2175C104.466 55.5774 104.121 55.9714 103.815 56.3944C103.478 56.7765 103.137 57.1585 102.786 57.5318C101.315 59.1083 99.8925 60.7243 98.4521 62.3316L89.7531 72.0452C89.2409 72.6205 90.0858 73.4768 90.6024 72.8972H90.6243Z" fill="#8496B6"/>
<path d="M85.1918 87.6691C89.688 86.5712 94.1273 85.2406 98.5534 83.8969C102.98 82.5531 107.309 81.1698 111.687 79.7075C112.904 79.3006 114.119 78.8878 115.33 78.4691C116.58 78.1086 117.803 77.6596 118.99 77.1254C119.629 76.8004 119.165 75.887 118.526 76.0188C117.423 76.3048 116.339 76.6612 115.282 77.0859C114.205 77.4547 113.125 77.8192 112.042 78.1793C109.847 78.9171 107.649 79.6416 105.449 80.353C101.112 81.7466 96.754 83.083 92.3761 84.3624C89.8806 85.0913 87.3808 85.8071 84.8941 86.558C84.7584 86.6062 84.646 86.7042 84.5794 86.8322C84.5128 86.9603 84.4971 87.1089 84.5354 87.2481C84.5737 87.3873 84.6632 87.5068 84.7858 87.5824C84.9084 87.6581 85.0551 87.6843 85.1962 87.6559L85.1918 87.6691Z" fill="#8496B6"/>
<path d="M83.8898 88.6351C85.2776 90.598 86.8406 92.4204 88.3597 94.278C89.8789 96.1355 91.4637 98.015 93.1142 99.7979C96.4122 103.364 99.8796 106.757 103.516 109.977C104.506 110.855 105.499 111.734 106.498 112.612C107.496 113.49 108.49 114.548 109.623 115.247C109.724 115.304 109.841 115.324 109.954 115.301C110.068 115.279 110.169 115.216 110.239 115.124C110.31 115.033 110.345 114.919 110.338 114.803C110.331 114.687 110.282 114.578 110.201 114.496C109.365 113.661 108.288 113.02 107.36 112.3C106.432 111.58 105.504 110.789 104.598 110.003C102.789 108.44 101.043 106.793 99.344 105.116C95.973 101.809 92.7771 98.3136 89.7432 94.6951C87.9701 92.5917 86.3853 90.3521 84.7129 88.174C84.3495 87.6997 83.5396 88.1476 83.8986 88.6482L83.8898 88.6351Z" fill="#8496B6"/>
<path d="M125.368 81.2402C125.547 84.8586 125.499 88.5474 124.773 92.1088C124.067 95.6111 123.071 99.0482 121.796 102.385C121.051 104.308 120.141 106.152 119.322 108.041C119.262 108.159 119.25 108.296 119.287 108.424C119.325 108.551 119.41 108.66 119.524 108.727C119.638 108.794 119.774 108.815 119.903 108.785C120.032 108.756 120.146 108.678 120.219 108.568C122.225 105.524 123.516 101.884 124.466 98.3796C125.348 94.8382 125.866 91.2155 126.011 87.5681C126.138 85.4597 126.113 83.345 125.937 81.2402C125.906 80.8801 125.35 80.8713 125.368 81.2402Z" fill="#8496B6"/>
<path d="M49.8067 31.2548C48.8173 33.288 48.8304 35.6461 48.6246 37.8813C48.3751 40.5161 48.038 43.151 47.7491 45.7858C47.5958 47.1032 49.7016 47.1032 49.8417 45.7858C50.1263 43.0939 50.3977 40.4151 50.7917 37.7364C51.0982 35.6549 51.6279 33.5163 51.2033 31.4216C51.161 31.2804 51.079 31.1544 50.9669 31.0588C50.8549 30.9633 50.7177 30.9024 50.5719 30.8833C50.4261 30.8643 50.2779 30.888 50.1452 30.9516C50.0126 31.0151 49.9011 31.1159 49.8242 31.2416L49.8067 31.2548Z" fill="#8496B6"/>
<path d="M53.9062 39.2637C52.7548 39.9751 51.6472 40.7875 50.4301 41.3847C50.3065 41.46 50.2014 41.5622 50.1225 41.6838C50.0437 41.8053 49.9931 41.9431 49.9746 42.087C49.9561 42.2308 49.9701 42.377 50.0156 42.5147C50.0611 42.6523 50.1369 42.7779 50.2374 42.8822C51.5508 44.2699 51.9098 46.325 53.5166 47.4448C54.3133 48.0025 55.4735 46.8783 54.8825 46.0747C53.7967 44.5904 52.9649 42.768 51.5815 41.5341L51.3889 43.0359C52.6172 42.2914 53.7469 41.3943 54.7511 40.3659C55.2634 39.7951 54.611 38.8378 53.9062 39.2681V39.2637Z" fill="#8496B6"/>
<path d="M57.0313 40.4019C56.7856 41.4295 56.5999 42.4705 56.4753 43.5198C56.3439 44.6396 56.0375 45.8296 56.1338 46.9538C56.2082 47.8321 57.469 48.1044 57.7273 47.169C58.025 46.0668 57.9769 44.8811 58.1651 43.7481C58.3359 42.6986 58.5022 41.6535 58.638 40.5995C58.7605 39.6773 57.2501 39.4973 57.0356 40.38L57.0313 40.4019Z" fill="#8496B6"/>
<path d="M58.4671 43.0838C58.7385 42.5788 58.8698 42.1484 59.4959 42.0255C60.1219 41.9025 60.7392 42.2099 61.374 42.0606C61.513 42.0147 61.6382 41.9347 61.7383 41.8278C61.8385 41.7209 61.9103 41.5905 61.9474 41.4486C61.9844 41.3067 61.9853 41.1577 61.9502 41.0153C61.915 40.8729 61.8449 40.7416 61.7462 40.6334C60.2664 39.3599 57.412 40.9364 57.2413 42.7544C57.18 43.4132 58.1694 43.6327 58.4671 43.0838Z" fill="#8496B6"/>
<path d="M63.2222 41.2787C62.8939 43.2855 62.7144 45.3231 62.3116 47.3168C62.2654 47.4944 62.2663 47.6809 62.3141 47.8581C62.3619 48.0352 62.4549 48.1967 62.5841 48.3267C62.7132 48.4567 62.8739 48.5506 63.0504 48.5991C63.2268 48.6477 63.4128 48.6492 63.59 48.6035L63.787 48.542C65.976 47.8482 63.2747 44.8401 62.3816 47.1324L62.3116 47.3168L64.3561 47.5978C64.5006 45.569 64.8727 43.5534 65.096 41.5334C65.2098 40.4707 63.393 40.216 63.2222 41.2787Z" fill="#8496B6"/>
<path d="M63.6486 38.4215L63.6468 38.4084C63.648 38.4105 63.6489 38.4128 63.6495 38.4151L63.6774 38.2151C63.6793 38.2238 63.6793 38.2328 63.6774 38.2415L63.7606 38.0439C63.7636 38.0524 63.7636 38.0617 63.7606 38.0702L63.8853 37.9118L63.8613 37.9297L63.8919 37.9034L63.8853 37.9118L64.032 37.8024H64.0058L64.2072 37.7189H64.1809L64.4042 37.6926L64.4534 37.6995L64.4567 37.697L64.6651 37.6694C64.6597 37.669 64.6544 37.668 64.6493 37.6662L64.6688 37.6689L64.6887 37.6662C64.6835 37.668 64.6781 37.6691 64.6727 37.6694L64.877 37.697H64.7938L65.0039 37.7848H64.9645L65.1175 37.9037L65.1003 37.8814L65.1397 37.9209L65.1175 37.9037L65.2273 38.0458L65.2097 38.0044L65.236 38.0571L65.2273 38.0458L65.2961 38.2079L65.2973 38.2108V38.1712L65.3258 38.3842L65.3279 38.3688V38.3996L65.3258 38.3842L65.3195 38.4313C65.3178 38.4679 65.3129 38.5044 65.3049 38.5403L65.2973 38.5972V38.5709C65.3001 38.5607 65.3026 38.5505 65.3049 38.5403L65.3195 38.4313C65.3226 38.3647 65.3152 38.2976 65.2973 38.2327C65.297 38.2244 65.2966 38.2162 65.2961 38.2079L65.2273 38.0458L65.1175 37.9037L64.9645 37.7848H65.0039L64.7938 37.697H64.877L64.6727 37.6694C64.6701 37.6695 64.6676 37.6695 64.6651 37.6694L64.4567 37.697L64.4534 37.6995L64.6231 37.7233H64.6012L64.8026 37.8068L65.1922 38.3118V38.2854L65.2193 38.4874L65.2228 38.4611V38.5138L65.2193 38.4874L65.1922 38.6894V38.6499L65.1306 38.7983L65.1572 38.7641C65.1402 38.7873 65.1257 38.8122 65.1139 38.8385L65.1046 38.8607C65.1075 38.8532 65.1106 38.8458 65.1139 38.8385L65.1306 38.7983L65.0343 38.9219L65.0565 38.9046L65.0171 38.9441L65.0343 38.9219L64.877 39.0451H64.912L64.7019 39.1329H64.7413L64.526 39.1609L64.5401 39.1631C64.5415 39.1632 64.5429 39.1635 64.5443 39.1637L64.5401 39.1631C64.5314 39.1619 64.5226 39.1617 64.5139 39.1625L64.5049 39.1637C64.5078 39.1632 64.5109 39.1628 64.5139 39.1625L64.526 39.1609L64.3122 39.1286H64.3516L64.1568 39.0448L64.1673 39.053C64.1735 39.0573 64.1796 39.062 64.1853 39.0671L64.1673 39.053C64.1578 39.0465 64.1477 39.0409 64.1371 39.0363L64.1568 39.0448L64.0292 38.9449L64.0452 38.9661L64.0058 38.9265L64.0292 38.9449L63.9233 38.8044L63.9357 38.8343L63.9094 38.786L63.9233 38.8044L63.8482 38.6235C63.8501 38.6411 63.8501 38.6587 63.8482 38.6762L63.8212 38.4718L63.8208 38.4749C63.8206 38.4835 63.8195 38.4921 63.8175 38.5006L63.8208 38.4749C63.8209 38.4728 63.8209 38.4707 63.8208 38.4686L63.8175 38.4435C63.8195 38.4517 63.8206 38.4601 63.8208 38.4686L63.8212 38.4718L63.8482 38.2635C63.8506 38.2765 63.8506 38.2899 63.8482 38.303L63.9357 38.0966L64.4534 37.6995L64.4042 37.6926L64.1809 37.7189H64.2072L64.0058 37.8024H64.032L63.8853 37.9118L63.7606 38.0702C63.7636 38.0617 63.7636 38.0524 63.7606 38.0439L63.6774 38.2415C63.6793 38.2328 63.6793 38.2238 63.6774 38.2151L63.6495 38.4151C63.65 38.4172 63.6503 38.4194 63.6503 38.4215C63.6503 38.4237 63.65 38.4259 63.6495 38.4279C63.6489 38.4303 63.648 38.4326 63.6468 38.4347L63.6486 38.4215Z" fill="#8496B6"/>
<path d="M67.2404 42.3067C68.278 42.8952 69.6001 42.0169 70.5764 42.961C71.7322 44.0764 70.7209 46.5927 70.3881 47.9584C70.0554 49.3241 72.2313 49.6271 72.2707 48.2131C72.3276 46.2502 73.1244 43.4221 71.5702 41.8324C70.5895 40.84 67.8577 40.212 67.0915 41.7183C67.0412 41.815 67.0286 41.927 67.0561 42.0325C67.0836 42.138 67.1493 42.2295 67.2404 42.2891V42.3067Z" fill="#8496B6"/>
<path d="M71.3597 44.5109C69.7136 43.7731 67.3451 43.6853 66.2244 45.3891C65.9949 45.7465 65.8788 46.1652 65.8913 46.5901C65.9038 47.015 66.0443 47.4261 66.2944 47.7692C66.5198 48.094 66.8202 48.3592 67.17 48.5421C67.6428 48.8012 68.1419 48.7793 68.6278 48.9813C69.985 49.4731 70.3046 46.7856 68.6278 47.1545C68.4747 47.149 68.3245 47.1109 68.1871 47.0428C68.0497 46.9746 67.9284 46.878 67.8311 46.7592C67.6428 46.4299 67.9405 46.263 68.2295 46.1049C69.0412 45.6412 69.9864 45.4692 70.9088 45.6175C71.5217 45.7317 72.0251 44.8226 71.3466 44.5284L71.3597 44.5109Z" fill="#8496B6"/>
<path d="M75.3762 34.8415C75.0698 37.1206 74.6451 39.3514 74.4613 41.6437C74.2774 43.8657 73.52 46.2151 73.7652 48.4415C73.7676 48.6025 73.8277 48.7573 73.9344 48.8776C74.041 48.9979 74.1873 49.0758 74.3464 49.0971C74.5055 49.1184 74.667 49.0816 74.8013 48.9936C74.9357 48.9055 75.0341 48.7719 75.0785 48.6172C75.9541 46.4215 75.8359 43.7867 76.2694 41.4593C76.6809 39.2636 76.7991 37.0679 77.088 34.8415C77.2281 33.7524 75.5295 33.77 75.385 34.8415H75.3762Z" fill="#8496B6"/>
<path d="M73.8952 49.1443C74.4118 49.4034 75.0947 49.2584 75.5238 49.5219C75.6747 49.6111 75.8442 49.6642 76.0189 49.677C76.1937 49.6898 76.369 49.6619 76.5312 49.5956C76.6935 49.5292 76.8383 49.4262 76.9544 49.2946C77.0704 49.1629 77.1546 49.0062 77.2004 48.8365C77.2462 48.6669 77.2523 48.4889 77.2183 48.3165C77.1842 48.1441 77.111 47.982 77.0042 47.8426C76.8975 47.7032 76.7601 47.5905 76.6028 47.5131C76.4455 47.4357 76.2725 47.3958 76.0973 47.3965C75.2611 47.4492 74.171 47.4228 73.65 48.2001C73.5588 48.3582 73.5333 48.546 73.5792 48.7227C73.6251 48.8995 73.7386 49.0509 73.8952 49.1443Z" fill="#8496B6"/>
<path d="M53.5029 32.1629C53.6156 32.0523 53.692 31.9098 53.7218 31.7545L52.9381 31.6491C52.8068 32.646 52.7368 33.6472 52.6404 34.6528C52.5967 35.1534 52.5485 35.654 52.496 36.1503C52.4697 36.383 52.4434 36.6113 52.4215 36.8441C52.3647 37.1134 52.3647 37.3916 52.4215 37.6609C52.4476 37.7512 52.4994 37.8319 52.5705 37.8932C52.6417 37.9544 52.7291 37.9935 52.8221 38.0056C52.915 38.0177 53.0095 38.0024 53.0939 37.9614C53.1783 37.9205 53.2489 37.8557 53.2971 37.7751L53.4066 37.6214C53.4483 37.5509 53.4733 37.4718 53.4795 37.39C53.4857 37.3083 53.4729 37.2263 53.4423 37.1503C53.4116 37.0744 53.3638 37.0066 53.3027 36.9522C53.2416 36.8978 53.1687 36.8584 53.0899 36.8369C53.011 36.8155 52.9283 36.8126 52.8482 36.8286C52.768 36.8445 52.6927 36.8789 52.6279 36.9289C52.5632 36.9789 52.5109 37.0433 52.4751 37.1169C52.4393 37.1906 52.421 37.2715 52.4215 37.3535V37.5335L53.2971 37.7751C53.4153 37.5192 53.4751 37.2402 53.4723 36.9583C53.4723 36.7299 53.5117 36.5191 53.5292 36.2688C53.5729 35.7506 53.608 35.2281 53.643 34.7099C53.7087 33.6867 53.77 32.6723 53.7437 31.6359C53.7437 31.53 53.7017 31.4283 53.627 31.3534C53.5523 31.2784 53.451 31.2363 53.3453 31.2363C53.2396 31.2363 53.1383 31.2784 53.0636 31.3534C52.9889 31.4283 52.9469 31.53 52.9469 31.6359V31.7062C52.7893 32.0619 53.2052 32.4659 53.516 32.1453L53.5029 32.1629Z" fill="#8496B6"/>
<path d="M52.7847 37.9858C53.1762 37.9615 53.5684 38.0199 53.9361 38.1571C54.2732 38.2273 54.619 38.2888 54.9605 38.3459C55.6566 38.4732 56.3527 38.5918 57.0576 38.6796C57.7624 38.7675 58.4323 38.8465 59.124 38.9036C59.4713 38.9329 59.8171 38.9592 60.1615 38.9826C60.5786 38.9711 60.9957 39.0065 61.4049 39.088C62.2148 39.3383 62.3286 37.8585 61.4049 38.0517C60.9897 38.0872 60.5717 38.068 60.1615 37.9946C59.8157 37.9946 59.4698 37.9419 59.124 37.9111C58.3753 37.8409 57.6311 37.7574 56.8824 37.6696C56.1338 37.5818 55.3589 37.4896 54.6015 37.3754C53.9492 37.2744 53.24 37.0768 52.6008 37.3183C52.5176 37.3471 52.4484 37.4065 52.4074 37.4847C52.3664 37.5628 52.3566 37.6536 52.38 37.7387C52.4035 37.8238 52.4584 37.8967 52.5336 37.9427C52.6088 37.9886 52.6986 38.004 52.7847 37.9858Z" fill="#8496B6"/>
<path d="M61.8256 32.6633C61.7336 33.6513 61.6154 34.6394 61.4797 35.6186C61.344 36.5979 61.1514 37.586 61.0156 38.5696C60.9412 39.0966 61.6767 39.3381 61.8343 38.798C62.1042 37.8009 62.3003 36.7852 62.421 35.7592C62.5582 34.7325 62.6386 33.6989 62.6618 32.6633C62.6618 32.1143 61.8737 32.1363 61.8256 32.6633Z" fill="#8496B6"/>
<path d="M61.7676 32.8522C62.0653 33.4011 62.8839 32.7468 62.3892 32.2725C62.1178 32.0091 61.5837 32.0442 61.2378 32.0134L59.6924 31.851C57.6172 31.6402 55.5552 31.3767 53.5019 30.9727C53.3949 30.9454 53.2819 30.9539 53.1801 30.9969C53.0783 31.0398 52.9932 31.1149 52.9377 31.2108C52.8823 31.3066 52.8595 31.4179 52.8729 31.5279C52.8862 31.6379 52.9349 31.7405 53.0116 31.8202C53.0792 31.8961 53.1623 31.9565 53.2552 31.9974C53.3481 32.0383 53.4487 32.0588 53.5501 32.0574L53.2393 31.9256L53.3225 31.9959C54.0886 32.6238 54.487 31.1176 53.6639 31.1703H53.5501L53.931 31.3899C53.8758 31.2844 53.8066 31.1869 53.7252 31.1L53.2349 31.9432C54.6971 32.1803 56.1638 32.3823 57.6347 32.5624C58.3746 32.6502 59.1189 32.7336 59.8631 32.7907C60.209 32.8171 60.5505 32.839 60.8963 32.8566L61.4129 32.8873C61.4742 32.8873 61.9689 32.9181 61.9033 32.861L61.7938 32.5931L61.9471 32.3955L61.8989 32.4262H62.2141L62.1747 32.3955C61.912 32.2242 61.6275 32.558 61.7632 32.8083L61.7676 32.8522Z" fill="#8496B6"/>
<path d="M67.4195 32.9362C67.0999 33.2567 67.1393 33.9067 67.0868 34.337C67.0255 34.8508 66.9642 35.3646 66.9073 35.8784C66.7847 36.9279 66.719 37.9906 66.5702 39.0358C66.5402 39.1521 66.5563 39.2757 66.615 39.3804C66.6738 39.4852 66.7707 39.5631 66.8854 39.5979C67.8573 39.835 68.8409 40.0238 69.8361 40.1643C70.3177 40.2346 70.8037 40.2961 71.294 40.34C71.8002 40.4109 72.3108 40.4446 72.8219 40.441C73.321 40.441 73.4961 39.6154 72.9489 39.5188C71.9901 39.3432 70.9963 39.33 70.0332 39.1982C69.07 39.0665 68.0937 38.8996 67.1306 38.7152L67.4633 39.1543C67.5246 38.1048 67.6734 37.0553 67.7654 36.0057C67.8091 35.4919 67.8529 34.9825 67.8923 34.4687C67.9274 34.0296 68.1068 33.3665 67.8617 32.9889C67.8394 32.9528 67.8095 32.9221 67.774 32.8991C67.7384 32.8761 67.6982 32.8614 67.6563 32.8559C67.6144 32.8504 67.5718 32.8544 67.5316 32.8675C67.4914 32.8807 67.4546 32.9026 67.4239 32.9318L67.4195 32.9362Z" fill="#8496B6"/>
<path d="M73.2813 33.8889C72.9092 35.8738 72.5239 37.8411 72.2219 39.848C72.1124 40.5682 73.1982 40.6692 73.1806 39.9797C73.0843 40.1466 73.0712 40.1817 73.1369 40.0895C73.1583 40.065 73.1773 40.0386 73.1938 40.0105C73.2198 39.9661 73.2367 39.917 73.2438 39.866C73.2508 39.815 73.2477 39.7632 73.2347 39.7134C73.2217 39.6636 73.199 39.6169 73.1679 39.576C73.1368 39.535 73.098 39.5006 73.0537 39.4747C72.9859 39.438 72.9115 39.4154 72.8348 39.4084C72.7581 39.4013 72.6808 39.41 72.6075 39.4338C72.5342 39.4576 72.4665 39.4961 72.4085 39.5469C72.3505 39.5977 72.3034 39.6598 72.27 39.7294L73.1456 40.1071C73.4959 38.0783 73.7673 36.0363 74.0212 33.9943C74.0781 33.5552 73.3295 33.4542 73.2463 33.8889H73.2813Z" fill="#8496B6"/>
<path d="M73.488 34.5476C73.531 34.5476 73.5722 34.5305 73.6026 34.5C73.6329 34.4696 73.65 34.4282 73.65 34.3851C73.65 34.342 73.6329 34.3007 73.6026 34.2702C73.5722 34.2398 73.531 34.2227 73.488 34.2227C73.4451 34.2227 73.4039 34.2398 73.3735 34.2702C73.3431 34.3007 73.326 34.342 73.326 34.3851C73.326 34.4282 73.3431 34.4696 73.3735 34.5C73.4039 34.5305 73.4451 34.5476 73.488 34.5476Z" fill="#8496B6"/>
<path d="M73.5848 34.6608C73.6918 34.6182 73.7823 34.542 73.8426 34.4436C73.903 34.3452 73.93 34.2299 73.9196 34.1148C73.9093 33.9998 73.8622 33.8911 73.7853 33.8051C73.7083 33.7191 73.6058 33.6604 73.4929 33.6376C73.1897 33.572 72.8826 33.5266 72.5735 33.5015L71.5885 33.3742C70.9361 33.2907 70.2751 33.2161 69.6227 33.1458L68.6552 33.0448C68.3045 32.946 67.9334 32.946 67.5826 33.0448C67.2499 33.1985 67.3462 33.6289 67.5826 33.8045C67.8261 33.9281 68.0985 33.9827 68.3706 33.9626L69.0536 34.0373C69.5673 34.0929 70.0795 34.1456 70.5903 34.1953C71.0675 34.2393 71.5447 34.2832 72.0219 34.3139L72.7355 34.3666L73.0682 34.393H73.2871C73.4403 34.4325 73.4491 34.2963 73.2871 33.989C72.9325 34.1734 73.182 34.8101 73.5629 34.6477L73.5848 34.6608Z" fill="#8496B6"/>
<path d="M65.4629 33.1328C65.3316 33.9847 65.2484 34.841 65.1039 35.6885L65.638 35.4733C65.3517 35.3152 65.0361 35.218 64.7106 35.1878C64.3852 35.1576 64.0571 35.195 63.7467 35.2977L64.2196 35.6578C64.2765 35.1747 64.3684 34.6961 64.4341 34.2174C64.4998 33.7388 64.5654 33.225 64.6223 32.7287L64.0226 33.0713C64.2829 33.1983 64.5601 33.2871 64.8456 33.3348C64.9902 33.3613 65.1365 33.3774 65.2834 33.3831C65.3885 33.3831 65.5811 33.3831 65.638 33.3831C65.7077 33.4027 65.7809 33.4059 65.852 33.3924C65.9231 33.3789 65.9901 33.3491 66.0478 33.3053C66.1054 33.2615 66.1522 33.2049 66.1844 33.1399C66.2166 33.0749 66.2334 33.0033 66.2334 32.9307C66.2334 32.8582 66.2166 32.7866 66.1844 32.7216C66.1522 32.6566 66.1054 32.6 66.0478 32.5562C65.9901 32.5124 65.9231 32.4826 65.852 32.4691C65.7809 32.4556 65.7077 32.4588 65.638 32.4784C65.4194 32.518 65.1955 32.518 64.977 32.4784C64.7538 32.4541 64.5329 32.413 64.3159 32.3555C64.257 32.3409 64.1957 32.3399 64.1364 32.3524C64.0771 32.365 64.0214 32.3908 63.9734 32.4279C63.9254 32.4651 63.8864 32.5126 63.8593 32.567C63.8322 32.6213 63.8177 32.6811 63.8168 32.7419C63.7774 33.2206 63.7336 33.6992 63.6767 34.1779C63.6198 34.6566 63.5716 35.1176 63.4753 35.57C63.4644 35.63 63.4682 35.6918 63.4864 35.7501C63.5045 35.8084 63.5365 35.8614 63.5795 35.9046C63.6226 35.9477 63.6754 35.9798 63.7335 35.998C63.7916 36.0162 63.8532 36.02 63.9131 36.0091C64.3486 35.8954 64.8088 35.9247 65.2265 36.0925C65.2822 36.1224 65.3446 36.1375 65.4078 36.1365C65.471 36.1355 65.5328 36.1184 65.5876 36.0867C65.6423 36.0551 65.6882 36.01 65.7207 35.9557C65.7533 35.9014 65.7715 35.8397 65.7737 35.7763C65.8219 34.92 65.9357 34.0593 65.9926 33.1986C65.9926 32.8781 65.4717 32.7946 65.4191 33.124L65.4629 33.1328Z" fill="#8496B6"/>
<path d="M64.5121 53.7763C61.7365 53.0649 58.9302 52.371 56.1021 51.9055C54.7215 51.6772 53.3352 51.4767 51.943 51.3039C51.2381 51.2161 50.5333 51.1371 49.8284 51.0624L48.769 50.9394C48.3639 50.9402 47.9605 50.887 47.5694 50.7814C46.6063 50.3905 46.3436 52.3886 47.5694 52.0988C47.9353 52.0688 48.3036 52.0895 48.6639 52.1602L49.7234 52.2569C50.4297 52.3242 51.1345 52.3988 51.8379 52.4808C53.2301 52.6477 54.6179 52.8424 56.0014 53.0649C58.7814 53.504 61.5307 53.9695 64.2713 54.6326C64.8317 54.7687 65.0725 53.9036 64.5121 53.7543V53.7763Z" fill="#8496B6"/>
<path d="M67.6044 54.9801C68.1235 54.884 68.6579 54.9141 69.163 55.068C69.7146 55.1953 70.2619 55.349 70.8179 55.45C71.397 55.5528 71.9818 55.6202 72.569 55.652C72.8418 55.6646 73.1137 55.6924 73.3833 55.7354C73.5464 55.7831 73.7192 55.7863 73.8839 55.7446C74.0486 55.7029 74.1992 55.6179 74.3202 55.4983C74.4242 55.3923 74.4825 55.2496 74.4825 55.1009C74.4825 54.9522 74.4242 54.8094 74.3202 54.7035C74.1864 54.586 74.0237 54.5066 73.8489 54.4734C73.6742 54.4402 73.4938 54.4545 73.3264 54.5146C73.0376 54.5673 72.7429 54.5791 72.4508 54.5498C71.8847 54.5137 71.3225 54.4315 70.7697 54.3039C69.6314 54.0448 68.515 53.6012 67.3417 53.9569C67.2133 54.0001 67.1063 54.091 67.0426 54.2108C66.9789 54.3307 66.9634 54.4705 66.9993 54.6015C67.0351 54.7325 67.1197 54.8447 67.2355 54.9151C67.3513 54.9855 67.4896 55.0088 67.6219 54.9801H67.6044Z" fill="#8496B6"/>
<path d="M37.3129 92.9347C37.5837 95.6163 38.1204 98.2643 38.9152 100.839C39.6244 103.123 40.5963 105.511 42.6365 106.908C43.0743 107.211 43.5996 106.526 43.21 106.161C41.5464 104.629 40.7145 102.31 39.9265 100.242C39.0358 97.8982 38.4559 95.4474 38.2016 92.9522C38.1403 92.3901 37.256 92.3813 37.326 92.9522L37.3129 92.9347Z" fill="#8496B6"/>
</svg>
