<svg width="156" height="150" viewBox="0 0 156 150" fill="none" xmlns="http://www.w3.org/2000/svg">
<path d="M98.981 97.0227C94.8051 96.325 90.5947 95.8544 86.3681 95.6131C84.5293 95.5209 82.6337 95.354 80.8037 95.6131C79.2364 95.8239 77.6866 96.4914 76.8854 97.9449C75.9879 99.5697 76.0799 101.664 75.9485 103.465C75.7939 105.596 75.6479 107.727 75.5107 109.859C75.2393 114.124 75 118.39 74.7928 122.655C74.7052 124.412 74.6395 126.361 75.9485 127.74C77.1437 129.001 79.0131 129.352 80.6505 129.716C88.6147 131.494 96.8616 131.579 104.861 129.967C106.389 129.655 107.925 129.181 109.169 128.188C110.556 127.073 111.016 125.448 111.047 123.718C111.117 119.423 110.959 115.111 110.915 110.82L110.845 104.374C110.845 102.929 111.029 100.9 109.733 99.8947C109.469 99.6847 109.153 99.5511 108.818 99.5082C108.529 99.4687 106.826 99.6224 106.975 100.101L107.05 99.5302L107.015 99.6049C106.634 100.483 107.89 101.221 108.293 100.351C108.376 100.192 108.413 100.012 108.399 99.832C108.386 99.6524 108.323 99.48 108.218 99.3341C108.112 99.1882 107.969 99.0747 107.802 99.0062C107.636 98.9377 107.454 98.9169 107.277 98.9461C106.362 99.0472 106.135 100.18 106.743 100.791C107.032 101.06 107.413 101.206 107.807 101.199C108.078 101.199 108.49 101.001 108.739 101.168C109.125 101.432 109.177 102.231 109.177 102.644C109.278 104.668 109.217 106.714 109.234 108.743L109.317 115.054L109.37 121.39C109.37 123.006 109.716 125.105 108.569 126.427C107.649 127.486 106.178 127.912 104.865 128.21C102.988 128.621 101.087 128.915 99.1736 129.088C95.2255 129.488 91.2469 129.479 87.3006 129.062C85.3539 128.857 83.4191 128.551 81.5042 128.144C80.0332 127.832 77.9799 127.609 76.938 126.388C76.4784 125.738 76.2587 124.947 76.3163 124.153C76.3163 123.178 76.3907 122.198 76.4389 121.223C76.5498 119.124 76.6651 117.027 76.7847 114.931C77.0241 110.776 77.2955 106.622 77.599 102.468C77.7041 100.944 77.599 98.8934 78.9693 97.8703C80.1164 96.992 81.7625 97.0183 83.1284 97.0359C87.2612 97.0974 91.3896 97.3784 95.5005 97.8044C96.5556 97.9098 97.6063 98.0327 98.657 98.1821C99.41 98.2874 99.7471 97.1413 98.9766 97.0139L98.981 97.0227Z" fill="#8496B6"/>
<path d="M82.5947 107.148C81.0098 109.076 79.3331 110.925 77.7526 112.857C77.6123 113.01 77.5344 113.21 77.5344 113.417C77.5344 113.625 77.6123 113.824 77.7526 113.977C81.1806 117.863 85.077 121.293 88.575 125.113C88.7237 125.259 88.9232 125.34 89.131 125.34C89.3387 125.34 89.5382 125.259 89.687 125.113C92.7209 121.64 95.479 117.938 98.2021 114.223C101.267 110.064 104.244 105.879 107.308 101.712C109.036 99.3698 110.803 97.06 112.61 94.7823C112.973 94.3432 112.956 93.4034 112.22 93.2936C109.756 92.9334 107.427 91.9345 105.465 90.3953C105.371 90.2995 105.255 90.2268 105.128 90.1828C105.001 90.1388 104.866 90.1248 104.732 90.1418C104.599 90.1587 104.471 90.2063 104.359 90.2807C104.247 90.3552 104.154 90.4545 104.086 90.571C100.045 96.6794 95.6454 102.529 91.4513 108.527C90.2649 110.218 89.0872 111.922 87.9489 113.648L89.4637 113.454C87.371 111.434 85.5629 109.129 83.6191 106.973C82.9843 106.266 81.7191 107.21 82.3057 108.009C84.0418 110.445 85.9872 112.724 88.1196 114.82C88.2248 114.923 88.3517 115 88.4909 115.047C88.63 115.093 88.7779 115.108 88.9234 115.089C89.069 115.071 89.2085 115.02 89.3316 114.94C89.4547 114.86 89.5582 114.753 89.6344 114.627C93.6972 108.54 97.9788 102.612 102.134 96.5916C103.307 94.8877 104.476 93.1839 105.636 91.4624L104.257 91.6381C106.435 93.3929 109.027 94.5559 111.783 95.0151L111.389 93.522C104.94 101.44 99.3798 109.985 93.2506 118.127C91.7446 120.125 90.186 122.079 88.5837 124.002H89.6957C86.1539 120.23 82.3145 116.735 78.8778 112.866V113.986C80.4392 111.957 81.9978 109.925 83.5534 107.891C83.9693 107.35 83.0412 106.626 82.6034 107.157L82.5947 107.148Z" fill="#8496B6"/>
<path d="M74.4256 29.5751C74.5044 29.9264 75.0385 29.7771 74.964 29.4258C74.6204 27.4918 74.4402 25.5321 74.4256 23.5677C74.3511 21.6311 74.2855 19.677 74.3599 17.7404C74.3599 17.3452 73.7864 17.354 73.7514 17.7404C73.6244 19.7306 73.6244 21.7269 73.7514 23.717C73.8025 25.6859 74.0281 27.6463 74.4256 29.5751Z" fill="#8496B6"/>
<path d="M136.864 58.8445C139.492 60.756 142.319 62.3757 145.295 63.675C145.606 63.8023 145.834 63.2666 145.527 63.1261C142.615 61.7624 139.831 60.1383 137.209 58.2736C134.583 56.4249 132.083 54.3565 129.487 52.4375C129.268 52.275 128.992 52.6351 129.198 52.8196C131.645 54.9626 134.204 56.9738 136.864 58.8445Z" fill="#8496B6"/>
<path d="M36.5558 100.359L33.929 99.4367C33.2811 99.2083 32.5675 99.0239 31.9064 98.756C31.9064 98.6395 31.8603 98.5278 31.7782 98.4455C31.6961 98.3631 31.5847 98.3169 31.4686 98.3169C31.2582 98.3241 31.0488 98.3491 30.8426 98.3915C30.3741 98.4925 30.3479 99.2698 30.8426 99.3664C31.753 99.5831 32.6435 99.8769 33.5044 100.245L36.2494 101.202C38.0502 101.831 39.8495 102.454 41.6474 103.068C41.7098 103.083 41.7747 103.083 41.8372 103.069C41.8998 103.055 41.9586 103.028 42.0096 102.989C42.0605 102.95 42.1023 102.901 42.132 102.844C42.1617 102.787 42.1786 102.724 42.1815 102.66C42.234 99.6431 42.3172 96.6262 42.3172 93.6137L42.5624 93.6577C42.6 93.6683 42.6394 93.6714 42.6783 93.6668C42.7171 93.6622 42.7547 93.65 42.7889 93.6309C42.823 93.6117 42.8531 93.586 42.8773 93.5551C42.9015 93.5243 42.9195 93.489 42.9301 93.4513C42.9408 93.4135 42.9439 93.374 42.9393 93.335C42.9347 93.296 42.9225 93.2583 42.9034 93.2241C42.8843 93.1898 42.8587 93.1597 42.8279 93.1354C42.7972 93.1111 42.762 93.0931 42.7244 93.0824L42.3128 92.9638C42.3166 92.8772 42.2914 92.7917 42.2414 92.721C42.1914 92.6502 42.1193 92.5982 42.0366 92.573C41.9538 92.5479 41.8651 92.551 41.7843 92.582C41.7035 92.613 41.6353 92.6701 41.5905 92.7443C40.0538 92.3051 38.5259 91.945 36.9761 91.5147C35.0761 90.9789 33.1979 90.3861 31.3285 89.7581C31.2691 89.742 31.2068 89.7398 31.1464 89.7516C31.086 89.7634 31.0291 89.789 30.98 89.8263C30.931 89.8636 30.8911 89.9117 30.8635 89.9669C30.8359 90.022 30.8212 90.0828 30.8207 90.1446C30.952 91.4312 31.0746 92.7135 31.1271 94.0046C31.1797 95.2956 31.1271 96.5867 31.1578 97.8777C31.1721 97.9714 31.2161 98.0578 31.2834 98.1243C31.3507 98.1907 31.4376 98.2336 31.5312 98.2464C31.6247 98.2592 31.7199 98.2414 31.8025 98.1955C31.8851 98.1497 31.9508 98.0782 31.9896 97.9919C32.0343 97.8678 32.0854 97.7462 32.1428 97.6274C32.187 97.5412 32.2015 97.4428 32.1841 97.3475C32.1666 97.2522 32.1183 97.1653 32.0465 97.1005C32.1189 94.9706 32.0046 92.8384 31.705 90.7286C34.9061 91.8315 38.1707 92.7393 41.481 93.4469C41.3672 96.31 41.3672 99.1776 41.3059 102.045L36.5558 100.359Z" fill="#8496B6"/>
<path d="M79.4731 91.7052C80.6858 90.884 82.1218 91.591 83.1156 92.4122C84.1094 93.2334 85.3527 94.4717 84.5428 95.7628C84.3282 96.1053 84.8405 96.382 85.0681 96.0746C85.2772 95.7512 85.3995 95.3793 85.4233 94.9946C85.447 94.61 85.3715 94.2257 85.2038 93.8789C84.8189 93.121 84.2608 92.4649 83.5752 91.9643C83.0267 91.4964 82.3956 91.136 81.7146 90.9016L81.9904 90.8533C82.866 90.6952 83.7197 90.5415 84.5822 90.379C85.1903 90.291 85.7916 90.1604 86.3815 89.9882C86.3996 90.0167 86.424 90.0407 86.4529 90.0582C86.4818 90.0757 86.5143 90.0863 86.5479 90.0892C87.1748 90.1706 87.7755 90.392 88.3058 90.737C88.8362 91.082 89.2827 91.5419 89.6125 92.0828C89.949 92.6886 90.1355 93.3667 90.156 94.0599C90.1766 94.753 90.0307 95.441 89.7307 96.0658C89.5643 96.461 90.0897 96.8036 90.3217 96.4127C90.6981 95.6966 90.8856 94.8957 90.8664 94.0864C90.8473 93.277 90.6221 92.4861 90.2122 91.7886C89.8699 91.2235 89.4168 90.7339 88.8802 90.3497C88.3436 89.9655 87.7348 89.6946 87.0907 89.5534C87.0994 89.5023 87.0936 89.4498 87.0739 89.4019C87.0543 89.354 87.0216 89.3125 86.9796 89.2823C86.9376 89.2521 86.888 89.2343 86.8365 89.231C86.7849 89.2277 86.7335 89.239 86.688 89.2636C86.1891 89.4888 85.6566 89.6298 85.1119 89.6808L83.3957 89.9486L81.6796 90.2297L80.8565 90.3658L80.445 90.4317L80.2567 90.4668C79.959 90.1594 79.3242 90.5415 79.565 90.9543C79.425 91.0162 79.2903 91.0897 79.1622 91.1738C78.8251 91.3846 79.1404 91.9291 79.4731 91.7052Z" fill="#8496B6"/>
<path d="M51.0122 95.8811C50.8508 95.8094 50.6741 95.7794 50.4981 95.794C50.3222 95.8086 50.1528 95.8672 50.0053 95.9645C50.0012 95.9322 49.9905 95.9012 49.974 95.8732C49.9574 95.8453 49.9353 95.821 49.909 95.802C49.8632 95.761 49.804 95.7383 49.7426 95.7383C49.6812 95.7383 49.622 95.761 49.5762 95.802C49.4974 95.9002 49.4312 96.0079 49.3792 96.1226C49.3323 96.24 49.3071 96.365 49.3048 96.4915C49.2924 96.7318 49.339 96.9716 49.4405 97.1897C49.5349 97.3991 49.6868 97.5773 49.8783 97.7035C50.1017 97.8336 50.3638 97.8803 50.6182 97.8352C50.848 97.7986 51.0623 97.6963 51.2355 97.5405C51.4086 97.3847 51.5333 97.1821 51.5945 96.9569C51.6464 96.7233 51.6039 96.4786 51.4763 96.2763C51.3618 96.1033 51.2009 95.9663 51.0122 95.8811ZM51.0779 96.7593C51.0779 96.7593 51.0779 96.7901 51.0779 96.8076C51.0759 96.8296 51.0759 96.8516 51.0779 96.8735C51.076 96.8822 51.076 96.8912 51.0779 96.8999C51.0779 96.8999 51.0516 96.9394 51.0779 96.8999V96.9262L51.0516 96.9745V97.0009C51.0516 96.9701 51.0516 97.0009 51.0254 97.036L50.929 97.1238L50.8721 97.1633C50.8464 97.1814 50.8184 97.1962 50.7889 97.2073H50.7627L50.6882 97.2292H50.627H50.4869H50.43H50.3862H50.3599L50.2592 97.1721C50.2592 97.1721 50.2242 97.1414 50.2111 97.1238L50.1716 97.0843V97.0579L50.1366 97.0009L50.1016 96.9438V96.9174C50.1016 96.9174 50.0666 96.8691 50.1016 96.9174C50.1366 96.9657 50.1016 96.9174 50.1016 96.9174V96.8823C50.1016 96.8603 50.1016 96.8384 50.1016 96.8164C50.1016 96.7945 50.1016 96.7374 50.0753 96.7023C50.1446 96.7336 50.223 96.7385 50.2956 96.7158C50.3682 96.6932 50.43 96.6446 50.4694 96.5793L50.5088 96.5134C50.5088 96.5134 50.5088 96.5354 50.5088 96.5134L50.5438 96.4783H50.5788H50.6007L50.6926 96.4519H50.8327H50.8853L50.9772 96.4783H51.0122C51.0414 96.4918 51.0692 96.5079 51.0954 96.5266L51.126 96.5529L51.1567 96.5881C51.1737 96.6114 51.1884 96.6365 51.2005 96.6627V96.711L51.0779 96.7593Z" fill="#8496B6"/>
<path d="M86.334 83.7295L84.2107 84.1291C82.8185 84.3882 81.4351 84.6648 80.0648 85.0073C79.662 85.1127 79.7321 85.8066 80.1699 85.7583C81.562 85.609 82.9455 85.3982 84.3289 85.1566L86.3866 84.8053L87.411 84.6253C87.7747 84.5959 88.1311 84.5069 88.4661 84.3618C88.812 84.173 88.7813 83.5099 88.3435 83.4484C87.6631 83.4355 86.985 83.5304 86.334 83.7295Z" fill="#8496B6"/>
<path d="M117.277 60.205C117.316 60.1375 117.341 60.0628 117.352 59.9854C117.366 59.9225 117.358 59.8564 117.329 59.7989C117.3 59.7413 117.251 59.6961 117.192 59.6713C117.132 59.6465 117.066 59.6437 117.004 59.6634C116.943 59.6831 116.891 59.7241 116.857 59.779L116.699 60.0469C116.61 60.0322 116.518 60.0457 116.437 60.0853C116.356 60.1249 116.289 60.1888 116.245 60.2682C116.202 60.3476 116.183 60.4386 116.193 60.5287C116.203 60.6188 116.241 60.7036 116.301 60.7715C116.064 61.2413 115.863 61.7156 115.605 62.1811C115.205 62.954 114.805 63.7268 114.405 64.4997C113.582 66.0718 112.728 67.6293 111.844 69.1721C111.796 69.2674 111.784 69.3771 111.81 69.4805C111.837 69.584 111.9 69.6742 111.989 69.7342C113.385 70.4456 114.79 71.3239 116.366 71.5962C117.037 71.7243 117.727 71.7068 118.39 71.5447C119.053 71.3826 119.674 71.0797 120.21 70.6564C122.627 68.7462 122.531 65.3253 120.683 63.0681C119.773 61.9659 118.643 60.71 117.277 60.205ZM120.753 68.6188C120.421 69.277 119.911 69.8286 119.282 70.2112C118.653 70.5938 117.93 70.7922 117.194 70.7838C115.605 70.7486 114.182 69.8616 112.768 69.1941C113.591 67.7479 114.38 66.2841 115.136 64.8027C115.745 63.6039 116.423 62.3699 116.944 61.1008H116.993C117.056 61.1184 117.122 61.1184 117.185 61.1008C117.712 61.3533 118.191 61.6966 118.599 62.1152C119.218 62.6736 119.782 63.2897 120.285 63.9552C120.781 64.6148 121.088 65.3987 121.17 66.2212C121.253 67.0436 121.109 67.8731 120.753 68.6188Z" fill="#8496B6"/>
<path d="M145.734 70.1778C139.815 65.9387 133.88 61.7215 127.928 57.5263C123.056 54.0835 118.218 50.5748 113.293 47.2066C112.592 46.7236 111.892 46.2449 111.178 45.7838L111.003 45.6653C110.701 45.4852 111.003 45.6653 110.837 45.5818L110.745 45.5291C110.718 45.4262 110.662 45.333 110.585 45.2601C110.507 45.1871 110.411 45.1374 110.307 45.1164C109.373 44.9566 108.427 44.8802 107.479 44.888C106.516 44.8309 105.548 44.787 104.585 44.7475C102.679 44.6714 100.775 44.6216 98.8719 44.5982C95.1681 44.5455 91.4294 44.6421 87.7387 44.9012C87.649 44.9064 87.5623 44.9353 87.4872 44.9848C87.4121 45.0343 87.3513 45.1028 87.3109 45.1833C87.2706 45.2638 87.252 45.3536 87.2572 45.4436C87.2624 45.5336 87.291 45.6207 87.3403 45.696C86.6136 47.4526 86.027 49.2091 85.3046 50.9656C85.2521 51.1018 85.1908 51.2379 85.1339 51.374C84.1956 51.1138 83.3003 50.7173 82.4764 50.1972C81.2741 49.4508 80.2323 48.4715 79.4119 47.3164C78.8129 46.4024 78.2929 45.4386 77.8577 44.4357V43.6716C77.8577 43.5267 77.8577 43.3818 77.8577 43.2325C77.9452 43.1051 78.0328 42.9734 78.1116 42.8329C78.1361 42.7904 78.1488 42.7421 78.1482 42.693C78.1476 42.6439 78.1338 42.5959 78.1082 42.554C78.0826 42.5122 78.0462 42.4781 78.0029 42.4552C77.9596 42.4324 77.9109 42.4218 77.8621 42.4245C77.8621 41.3266 77.9146 40.2288 77.9496 39.1353C78.0416 39.0387 78.1379 38.9465 78.2254 38.8455C78.2615 38.8062 78.2832 38.7558 78.2872 38.7025C78.2911 38.6492 78.2769 38.5961 78.247 38.5519C78.2171 38.5077 78.1732 38.4749 78.1224 38.4588C78.0716 38.4428 78.0169 38.4444 77.9671 38.4634C77.9671 38.2263 77.9671 37.9848 77.9671 37.7477C78.0065 35.7672 78.0284 33.7954 78.0153 31.8062C78.1641 31.7359 78.313 31.6656 78.4531 31.5822C78.8033 31.3934 78.4925 30.8664 78.1422 31.0508C78.0328 31.1079 77.9146 31.1518 77.8008 31.2001C77.74 31.1566 77.6692 31.1294 77.595 31.1211C77.6301 31.0444 77.6361 30.9575 77.612 30.8767C77.5878 30.7958 77.5351 30.7266 77.4637 30.682C75.5461 29.5226 72.9237 29.7203 70.7741 29.7686C70.4721 29.7686 70.1656 29.7686 69.8591 29.8037C69.9905 27.6695 70.0036 25.5265 70.0124 23.3923C70.0124 21.0868 70.0605 18.755 69.8679 16.4584C69.8329 16.0543 69.22 16.0412 69.2243 16.4584C69.3163 20.92 69.3907 25.3992 69.1368 29.852C68.4901 29.9027 67.8487 30.0069 67.2192 30.1638C66.9303 30.2428 66.6457 30.3307 66.3436 30.4317C66.1313 30.4725 65.9299 30.5577 65.7526 30.682C65.6926 30.8157 65.6471 30.9556 65.6169 31.0991C65.5931 31.1577 65.5812 31.2204 65.5819 31.2836C65.5819 32.3726 65.5556 33.4793 65.5819 34.5551C65.5819 35.5739 65.6125 36.5927 65.6256 37.6291V39.4515C65.4354 39.866 65.4134 40.3385 65.5644 40.7689C65.2218 40.8255 64.8963 40.9582 64.6115 41.1573C64.3266 41.3563 64.0898 41.6167 63.9182 41.9194C63.772 42.2283 63.7397 42.5791 63.8271 42.9096C63.9145 43.2401 64.1159 43.5287 64.3954 43.7243C64.7738 43.9921 65.2054 44.1749 65.6607 44.26C65.6607 48.3747 65.7263 52.5202 65.4812 56.6217C65.4785 56.7154 65.5015 56.808 65.5479 56.8893C65.5942 56.9707 65.662 57.0376 65.7439 57.0828C66.5577 57.4967 67.4133 57.8221 68.2962 58.0533C68.3181 59.9548 68.3356 61.8694 68.178 63.7621C68.0423 65.3693 67.5782 67.0205 65.9365 67.6221C65.829 67.6584 65.7336 67.7237 65.6607 67.8109C65.4173 67.6174 65.1415 67.4687 64.8464 67.3718C64.0117 67.1602 63.1365 67.1708 62.3072 67.4025C61.8912 67.4947 61.1951 67.6484 60.9675 68.07C60.3344 67.2818 59.4331 66.7563 58.437 66.5945C57.0011 66.3617 55.4162 66.7965 54.0065 67.0556C53.7175 67.076 53.4377 67.1665 53.1914 67.3196C52.945 67.4726 52.7395 67.6834 52.5924 67.9339C52.4858 68.1515 52.4491 68.397 52.4874 68.6365C51.9489 68.6892 51.174 68.1973 50.7712 68.0656C49.9172 67.7675 49.0113 67.6479 48.1094 67.7143C47.2055 67.7705 46.3218 68.0068 45.51 68.4095C44.6982 68.8121 43.9745 69.3729 43.3812 70.0593C43.3138 70.1423 43.2658 70.2395 43.2408 70.3436C43.2158 70.4477 43.2144 70.5562 43.2367 70.6609C40.1722 71.1527 37.1076 71.5392 34.043 71.9783C29.3732 72.6399 24.6902 73.2869 19.9941 73.9193C18.3655 74.1432 16.7369 74.3584 15.1039 74.5604C14.5873 74.6219 14.583 75.4387 15.1039 75.3816C18.6895 74.9425 22.2619 74.4287 25.8343 73.9105C30.5406 73.2254 35.247 72.5228 39.9489 71.7675C41.1528 71.5743 42.3524 71.3591 43.5476 71.1308C43.6185 71.1681 43.6964 71.1901 43.7764 71.1954C43.8563 71.2007 43.9364 71.1892 44.0116 71.1615C45.6928 70.5994 47.8248 71.9783 47.7329 73.7963C47.7225 74.1784 47.6128 74.5512 47.4147 74.8778C47.2166 75.2044 46.937 75.4734 46.6034 75.6583C46.4927 75.7208 46.3886 75.7944 46.2926 75.8778C44.6333 76.3609 42.8383 76.4838 41.1309 76.7561L34.831 77.7266C30.0591 78.4731 25.2871 79.224 20.5063 79.9223C19.5432 80.0628 18.5771 80.1901 17.6081 80.3043C16.8977 80.3506 16.1937 80.4683 15.5067 80.6556C15.3796 80.6956 15.2707 80.7794 15.1992 80.8922C15.1277 81.005 15.0983 81.1394 15.1161 81.2719C15.1339 81.4043 15.1978 81.5261 15.2965 81.6159C15.3953 81.7056 15.5224 81.7575 15.6556 81.7622C16.2677 81.8135 16.8839 81.7765 17.4855 81.6525C18.3349 81.5295 19.1842 81.3934 20.0335 81.266C22.2488 80.9411 24.464 80.5941 26.6749 80.2428C31.3447 79.5022 36.0146 78.7234 40.6844 77.9066C41.56 77.7529 42.4356 77.5817 43.2849 77.428C43.3418 78.4248 43.3987 79.4173 43.4513 80.4141L43.5432 82.0345C43.5432 82.399 43.5432 82.7679 43.5432 83.1323C41.792 83.3827 40.0802 83.8086 38.3465 84.1204C35.8949 84.5595 33.4607 85.0733 31.0091 85.5125C30.5713 85.5915 30.2298 85.6266 29.792 85.7013L29.4111 85.7716C29.3367 85.7716 29.0872 85.8199 29.4111 85.7716C29.2593 85.776 29.1148 85.8385 29.0074 85.9462C28.8999 86.054 28.8376 86.1989 28.8332 86.3512C28.7807 87.7916 28.8332 89.2276 28.8332 90.6679C28.7798 91.4295 28.8033 92.1946 28.9033 92.9514C28.9716 93.7303 28.9687 94.5137 28.8945 95.292C28.8945 96.8246 28.9427 98.366 28.9865 99.8942C27.4104 100.171 25.8387 100.474 24.267 100.772C24.1495 100.805 24.0459 100.876 23.9724 100.973C23.8988 101.071 23.8593 101.19 23.8599 101.313C23.746 109.977 23.6979 118.641 23.6453 127.305C23.6474 127.423 23.6866 127.538 23.7573 127.632C23.8281 127.727 23.9268 127.797 24.0394 127.832C26.386 128.781 28.7238 129.742 31.0704 130.695L34.4852 132.078C35.282 132.399 36.4903 132.737 36.7311 133.69C36.7538 133.766 36.7933 133.837 36.8467 133.895C36.9001 133.954 36.966 134.001 37.0395 134.03C37.1131 134.06 37.1924 134.073 37.2716 134.068C37.3508 134.063 37.4279 134.041 37.4972 134.002C39.8354 133.072 42.3095 132.532 44.8216 132.403C44.8923 132.401 44.9617 132.383 45.0244 132.35C45.0871 132.317 45.1416 132.27 45.1837 132.213C45.2259 132.156 45.2545 132.09 45.2676 132.021C45.2807 131.951 45.2779 131.879 45.2594 131.811C44.9647 130.783 44.7625 129.73 44.6552 128.666C45.0229 128.618 45.3819 128.521 45.7497 128.469L47.3476 128.227L50.4385 127.788L56.5195 126.888C60.5603 126.291 64.6056 125.715 68.6246 124.986C70.9274 124.574 73.2127 124.108 75.4717 123.476L75.5374 123.445V123.089C75.5374 122.971 75.5374 122.852 75.5374 122.734C75.4427 122.677 75.3301 122.658 75.2221 122.681C67.2805 124.53 59.1944 125.601 51.1433 126.787L47.7285 127.287L46.0211 127.538C45.5439 127.604 45.0405 127.626 44.5589 127.709C44.5589 127.296 44.5589 126.883 44.5589 126.466C44.5589 126.172 44.5983 125.878 44.6158 125.588C45.9511 125.245 47.3695 125.096 48.7223 124.877C51.7519 124.382 54.7814 123.903 57.811 123.441C63.7621 122.524 69.7132 121.612 75.6643 120.705C75.6862 120.323 75.7037 119.945 75.7256 119.567L75.5811 119.589C75.6337 119.51 75.6862 119.427 75.7344 119.343C75.8832 116.571 76.0437 113.799 76.2159 111.026C75.7781 109.27 74.9025 107.627 73.3484 106.635C74.4166 106.445 75.4819 106.243 76.5443 106.029L76.5968 105.274C71.4133 105.831 66.2561 106.617 61.0988 107.342C55.9416 108.066 50.7493 108.659 45.5965 109.467C45.0711 109.546 44.5545 109.634 44.0335 109.722C43.9591 109.16 43.8759 108.602 43.7796 108.045C47.6497 107.654 51.5111 107.083 55.3637 106.534C59.4834 105.945 63.5943 105.309 67.6789 104.505C68.8318 104.277 69.9759 104.023 71.1112 103.745C72.2572 103.546 73.3795 103.228 74.4604 102.797C74.5097 102.765 74.5477 102.719 74.5689 102.664C74.59 102.609 74.5933 102.549 74.5782 102.492C74.5631 102.436 74.5304 102.385 74.4848 102.348C74.4392 102.312 74.3831 102.29 74.3247 102.287C73.3436 102.403 72.3731 102.595 71.4221 102.863C70.4108 103.078 69.3995 103.276 68.3881 103.482C66.3451 103.898 64.2831 104.278 62.2021 104.624C58.0956 105.309 53.9671 105.871 49.8431 106.459C47.7811 106.753 45.719 107.052 43.6702 107.412C43.587 106.999 43.5038 106.591 43.4075 106.183C43.3856 106.108 43.3377 106.044 43.2726 106.001C43.2074 105.959 43.1292 105.942 43.0524 105.952C42.9755 105.963 42.9049 106.001 42.8536 106.059C42.8023 106.118 42.7736 106.193 42.7727 106.27C42.7727 106.71 42.7989 107.149 42.8208 107.561C42.7677 107.573 42.7197 107.601 42.6841 107.642C42.6486 107.684 42.6274 107.735 42.6238 107.79C39.6381 106.802 36.7179 105.572 33.776 104.47C31.2017 103.504 28.6318 102.454 26.0138 101.585C27.1959 101.361 28.3779 101.146 29.5556 100.891C29.6376 100.875 29.7141 100.838 29.7775 100.784C29.841 100.729 29.8892 100.659 29.9175 100.58C29.9457 100.501 29.9531 100.416 29.9387 100.334C29.9244 100.251 29.8889 100.174 29.8358 100.109C29.8095 98.5109 29.7964 96.9168 29.7745 95.3184C29.7745 94.5762 29.5819 93.7726 29.7307 93.048C29.838 92.3008 29.8689 91.5444 29.8227 90.7909C29.8227 89.4735 29.8883 88.178 29.9365 86.8738C30.2386 86.8079 30.5363 86.7333 30.8383 86.6762C31.8847 86.4698 32.9354 86.3117 33.9817 86.1185C36.5268 85.6471 39.0733 85.1992 41.6213 84.7747C42.4969 84.6298 43.2586 84.4893 44.0204 84.4234C44.1346 84.4152 44.2447 84.3774 44.34 84.3136C45.0142 84.5024 45.6534 84.7528 46.3407 84.9416C47.0281 85.1304 47.7723 85.3061 48.4991 85.4378C49.2958 85.5871 50.1014 85.7013 50.9069 85.8111C50.0313 85.978 49.1163 86.1448 48.2189 86.3029C46.7916 86.5532 45.2944 86.6937 43.8978 87.0714C43.4075 87.2031 43.4863 88.0199 44.0204 87.9804C45.371 87.8205 46.7125 87.5903 48.0394 87.291C49.703 86.9792 51.3666 86.6718 53.0302 86.3512H53.074L53.1572 86.382C53.2551 86.4232 53.3641 86.4296 53.466 86.4001C53.568 86.3705 53.6568 86.3068 53.7176 86.2195C55.1448 85.9428 56.5676 85.653 57.9861 85.3412C59.3214 85.047 60.7749 84.8142 62.0226 84.239C63.9752 83.3607 63.6599 81.2528 63.6249 79.4085C64.8058 79.3485 65.9824 79.2224 67.1492 79.0308C67.1492 79.6676 67.1492 80.3131 67.0966 80.963C67.0209 80.9769 66.9536 81.0202 66.9094 81.0835C66.8651 81.1468 66.8475 81.2249 66.8602 81.3011C66.8953 81.6261 66.9259 81.9511 66.9697 82.2716C66.8866 82.8526 66.7397 83.4225 66.5319 83.9711C65.9015 85.5871 64.4874 86.6542 62.8982 87.2295C61.6326 87.6211 60.3366 87.9061 59.0237 88.0814C54.9741 88.8192 50.9157 89.5174 46.8617 90.2288L44.5063 90.6416C44.1535 90.6737 43.8078 90.7611 43.4819 90.9007C42.9828 91.0061 43.0441 91.6296 43.3987 91.8624C43.333 92.7526 43.333 93.6465 43.3987 94.5367C43.4221 95.6492 43.4425 96.7631 43.46 97.8785C43.46 98.9544 43.4994 100.035 43.5082 101.111C43.5082 101.484 43.5082 101.861 43.5082 102.239C42.6326 102.463 42.7814 103.921 43.7271 103.864C45.1178 103.72 46.4982 103.488 47.8599 103.17C48.8887 102.964 49.9088 102.766 50.9244 102.595C52.9383 102.261 54.9522 101.897 56.9704 101.589C62.885 100.711 68.7909 99.7449 74.7143 98.9017L77.4637 98.5153C77.5624 98.308 77.6812 98.1109 77.8183 97.9268C77.9561 97.7463 78.1132 97.5813 78.2867 97.435C74.3466 98.0059 70.4064 98.5724 66.4268 99.0949C61.4053 99.7624 56.3575 100.36 51.3622 101.106C50.2283 101.277 49.0945 101.44 47.9562 101.576C46.8179 101.712 45.5089 101.831 44.3093 102.063C44.3093 101.853 44.3093 101.624 44.3093 101.431C44.3093 100.926 44.2831 100.426 44.2743 99.9205L44.2086 97.1188C44.1824 96.1835 44.1605 95.2481 44.1298 94.3171C44.1298 94.102 44.1298 93.878 44.1298 93.6672C44.1907 93.698 44.2596 93.7087 44.3269 93.698C55.9854 91.7482 67.6833 90.0575 79.3506 88.2439C82.6428 87.7286 85.9379 87.228 89.236 86.742C89.5819 86.6893 89.4374 86.1624 89.0915 86.2151C77.3892 87.9014 65.6869 89.5525 54.024 91.4847C50.7362 92.0336 47.4571 92.5518 44.143 93.0656H44.108C44.107 92.6923 44.0792 92.3195 44.0248 91.9502C44.2699 91.9238 44.5195 91.8668 44.6815 91.836L46.7654 91.4847C48.8464 91.1275 50.9244 90.7689 52.9996 90.4088C55.0748 90.0487 57.166 89.6667 59.2732 89.2627C60.7047 89.0688 62.1138 88.7349 63.4804 88.2658C65.2316 87.5588 66.7814 86.3644 67.5301 84.5683C67.5283 84.5537 67.5283 84.539 67.5301 84.5244C67.5937 84.6745 67.6653 84.8211 67.7446 84.9635C68.0542 85.4916 68.476 85.9447 68.9799 86.2908C69.4838 86.6369 70.0575 86.8674 70.6603 86.966C71.9669 87.1557 73.2939 87.1557 74.6005 86.966L76.9908 86.7289C77.4724 86.6806 78.4399 86.6015 78.1641 85.8506C78.1307 85.736 78.0617 85.6351 77.9673 85.5625C77.8728 85.4898 77.7578 85.4492 77.6388 85.4466C77.5117 85.4376 77.3853 85.4716 77.2798 85.5432C77.2559 85.5614 77.2338 85.582 77.2141 85.6047C77.0215 85.631 76.7194 85.631 76.5924 85.6442L75.7169 85.7233C75.0996 85.7803 74.4866 85.8418 73.8694 85.8945C72.8516 86.0313 71.8196 86.021 70.8048 85.8638C70.3259 85.7851 69.8688 85.6065 69.4631 85.3394C69.0574 85.0724 68.712 84.7229 68.4494 84.3136C68.2225 83.9255 68.0474 83.5091 67.9285 83.0753C68.1108 81.6958 68.0827 80.2965 67.8453 78.9254C68.9223 78.7673 69.9934 78.5727 71.0587 78.3414C70.9443 79.0968 70.9149 79.8628 70.9711 80.6249C71.0281 81.3319 71.0543 82.2409 71.6103 82.7547C72.1663 83.2685 72.95 83.229 73.6154 83.2641C74.537 83.3146 75.4607 83.3146 76.3823 83.2641C78.2222 83.1273 80.0533 82.8913 81.8679 82.5571C83.7679 82.2409 85.6986 81.9511 87.5592 81.5339C87.6864 81.5174 87.8036 81.4563 87.8901 81.3615C87.9766 81.2667 88.0269 81.1442 88.0321 81.0157L88.3736 81.0728C89.0565 81.187 89.5074 81.1562 89.6869 81.9072C89.9277 82.8601 89.6869 83.914 89.6869 84.8845C89.6899 84.9552 89.7086 85.0243 89.7416 85.0868C89.7747 85.1493 89.8212 85.2035 89.8779 85.2456C89.9346 85.2877 89.9999 85.3166 90.0691 85.3301C90.1384 85.3436 90.2097 85.3414 90.278 85.3236C90.812 85.1678 91.3858 85.2298 91.8746 85.496C92.3633 85.7623 92.7275 86.2114 92.8879 86.7456C93.0483 87.2798 92.992 87.8559 92.7311 88.3487C92.4703 88.8414 92.0261 89.2109 91.495 89.3769C91.4131 89.4013 91.3388 89.4464 91.2792 89.5079C91.2196 89.5694 91.1768 89.6452 91.1548 89.7281C91.1328 89.811 91.1325 89.8981 91.1537 89.9812C91.1749 90.0642 91.2171 90.1404 91.2761 90.2024C91.4389 90.4157 91.5508 90.6635 91.6032 90.9269C91.6556 91.1903 91.647 91.4623 91.5782 91.7218C91.5444 91.8493 91.5616 91.985 91.6263 92.0999C91.6909 92.2148 91.7978 92.2998 91.9241 92.3366C92.5697 92.4488 93.1589 92.7759 93.5965 93.265C94.0342 93.7542 94.2948 94.377 94.3363 95.0329C94.3435 95.7366 94.0801 96.4161 93.6008 96.93C93.9992 96.9739 94.402 97.0134 94.8004 97.0617C95.1735 96.4523 95.3635 95.7479 95.3476 95.0329C95.3047 94.2323 95.0199 93.4636 94.5312 92.8291C94.0425 92.1946 93.3729 91.7242 92.6114 91.4803C92.6459 90.9876 92.5476 90.4946 92.3269 90.0531C92.9096 89.7028 93.3597 89.1682 93.6066 88.5333C93.8534 87.8984 93.8829 87.1992 93.6904 86.5457C93.498 85.8921 93.0945 85.3213 92.5433 84.9228C91.9922 84.5243 91.3247 84.3209 90.6457 84.3444C90.7201 83.2553 90.9171 82.0916 90.4268 81.0904C89.9365 80.0891 88.8026 80.1682 87.8876 80.0145C86.2427 79.7425 84.5837 79.5651 82.9186 79.4831C82.4808 79.4831 82.0824 79.4392 81.6621 79.4304C81.6629 78.4888 81.7405 77.5489 81.8942 76.62C81.9087 76.5555 81.9069 76.4883 81.8889 76.4247C81.8709 76.3611 81.8372 76.3031 81.7911 76.2559C81.7449 76.2087 81.6876 76.1739 81.6246 76.1546C81.5615 76.1354 81.4947 76.1323 81.4301 76.1457C80.607 76.3565 79.8234 76.0535 79.0485 75.7988C78.3217 75.5396 77.5602 75.3916 76.7895 75.3596C75.1214 75.3596 73.4053 75.891 71.8292 76.374C71.765 76.3952 71.7076 76.4331 71.6629 76.4838C71.601 76.4298 71.5276 76.3907 71.4483 76.3697C70.9843 76.2511 70.5377 76.0798 70.0693 75.9657C69.5753 75.8482 69.0734 75.7674 68.5676 75.7241C68.4329 75.7253 68.3039 75.7791 68.2082 75.8743C68.1125 75.9695 68.0577 76.0984 68.0554 76.2335C68.0588 76.3683 68.114 76.4966 68.2094 76.5915C68.3049 76.6865 68.4332 76.7407 68.5676 76.7429L68.7647 76.7693H68.8303L69.1806 76.8264C69.3951 76.8659 69.6184 76.9142 69.8197 76.9669C70.0211 77.0196 70.2575 77.0854 70.4502 77.1557C70.5596 77.1908 70.6734 77.2304 70.7829 77.2743L70.8179 77.3006C70.8542 77.3266 70.8923 77.3501 70.9317 77.3709C69.7497 77.5685 68.5633 77.7485 67.3725 77.8935C66.1816 78.0384 64.8989 78.0999 63.6687 78.236C63.6687 77.9418 63.2309 77.911 63.1258 78.1921L63.0952 78.3062C62.4735 78.438 62.4385 79.3821 63.1433 79.3821C63.1433 80.0847 63.0689 80.7961 62.9989 81.4856C63.0336 81.9783 62.8772 82.4654 62.5622 82.8451C62.2473 83.2248 61.7983 83.4678 61.309 83.5232C60.4596 83.7691 59.5972 83.9623 58.7347 84.1687L58.6822 84.1424H58.6165C58.5596 83.8262 58.5596 83.2992 58.5421 83.1323L58.4108 81.872C58.3188 80.9586 58.2313 80.0452 58.17 79.1274C58.1481 78.7542 58.1393 78.3809 58.1349 78.0076C59.0137 78.0835 59.8961 77.911 60.6823 77.5098C61.4684 77.1085 62.1268 76.4945 62.583 75.7373L62.6574 75.768C62.9706 75.8938 63.305 75.958 63.6424 75.9569C64.3366 75.932 65.0068 75.6961 65.5644 75.2806C65.6913 75.1884 65.8051 75.083 65.919 74.982C65.9868 75.0317 66.0651 75.0651 66.1479 75.0795C66.2306 75.094 66.3156 75.0892 66.3962 75.0654C66.8953 74.9919 67.3981 74.945 67.9022 74.9249C68.3181 74.8678 68.734 74.7976 69.1412 74.7009C70.0236 74.4961 70.8676 74.1507 71.641 73.6778C73.0887 72.7352 74.211 71.3672 74.8544 69.7607C76.3998 66.1378 75.9752 61.944 75.892 58.0972C77.4199 57.68 78.8559 56.8808 78.5188 55.3219C78.4975 55.2197 78.4429 55.1276 78.3636 55.06C78.2843 54.9924 78.1849 54.9532 78.081 54.9486C77.954 51.9932 77.8883 49.0335 77.8489 46.0737C78.1568 46.8082 78.5397 47.5087 78.9916 48.164C79.8369 49.3368 80.9034 50.3319 82.1306 51.093C82.9421 51.5865 83.815 51.9704 84.7267 52.2347C84.1193 53.5978 83.2228 54.8117 82.0999 55.7918C81.9462 55.9479 81.86 56.1585 81.86 56.378C81.86 56.5975 81.9462 56.8081 82.0999 56.9642C82.4882 57.3351 83.0042 57.5411 83.5403 57.5395C83.711 57.8162 83.8555 58.1367 83.9781 58.3695L84.591 59.4322C85.0346 60.2051 85.4724 60.9794 85.9044 61.7552C86.7566 63.3127 87.5768 64.8863 88.3648 66.4759C89.8591 69.4738 91.2338 72.5258 92.4888 75.6319C92.4413 75.7488 92.4323 75.8779 92.463 76.0003C92.4937 76.1227 92.5626 76.2321 92.6596 76.3126C93.1762 76.7166 93.6928 77.1645 94.1919 77.5948C94.6909 78.0252 95.2688 78.517 95.8117 78.9737C96.8362 79.8344 97.8708 80.6805 98.9157 81.5119C100.845 83.0548 102.815 84.5478 104.826 85.9911C108.766 88.806 112.824 91.3969 116.975 93.856C119.356 95.2657 121.791 96.6226 124.177 97.9795C124.226 98.0713 124.297 98.1496 124.383 98.208C124.469 98.2663 124.568 98.3028 124.671 98.3145C124.774 98.3261 124.879 98.3126 124.976 98.2749C125.072 98.2372 125.159 98.1765 125.227 98.0981C126.541 96.6446 127.622 94.989 128.817 93.4433C130.275 91.555 131.764 89.6886 133.252 87.8267C136.317 84.0018 139.381 80.177 142.332 76.2643C143.593 74.5999 144.841 72.9224 145.979 71.1703C146.028 71.0891 146.061 70.9989 146.075 70.9049C146.089 70.811 146.085 70.7151 146.062 70.6229C146.039 70.5306 145.999 70.4438 145.942 70.3674C145.886 70.291 145.815 70.2266 145.734 70.1778ZM65.4637 43.1754C65.4707 43.2362 65.4824 43.2964 65.4987 43.3554C65.0609 43.2237 64.6231 42.9997 64.5793 42.543C64.5399 41.9634 65.1309 41.6384 65.6694 41.4364V42.9207C65.6388 42.9228 65.609 42.9312 65.5818 42.9454C65.5546 42.9596 65.5306 42.9792 65.5113 43.0031C65.492 43.027 65.4778 43.0546 65.4696 43.0843C65.4614 43.1139 65.4594 43.1449 65.4637 43.1754ZM68.2174 107.456C69.6753 107.232 71.1331 107.017 72.5954 106.749C72.5734 106.831 72.5787 106.919 72.6102 106.998C72.6418 107.077 72.698 107.144 72.7705 107.188C74.5786 108.427 75.1915 110.908 75.4454 112.954C75.611 114.101 75.6213 115.265 75.4761 116.414C75.3944 116.987 75.2475 117.548 75.0383 118.088C74.8237 118.645 74.4735 119.137 74.2896 119.708C74.2875 119.73 74.2875 119.752 74.2896 119.774L70.205 120.362L65.0696 121.118C65.0907 121.096 65.1098 121.072 65.1266 121.047C66.2159 118.917 66.7234 116.535 66.5976 114.144C66.5397 111.945 65.8243 109.814 64.5443 108.027L68.2174 107.456ZM52.2597 109.915L53.6519 109.704C54.7656 111.39 55.3998 113.349 55.4863 115.369C55.5399 116.454 55.4679 117.542 55.2718 118.61C55.0748 119.699 54.5713 120.766 54.4706 121.864C54.4651 121.956 54.4881 122.046 54.5366 122.124C54.5851 122.202 54.6566 122.262 54.741 122.297C54.8254 122.332 54.9186 122.339 55.0075 122.318C55.0964 122.297 55.1765 122.249 55.2367 122.18C55.9547 121.28 56.1824 119.936 56.3663 118.825C56.5711 117.628 56.6255 116.409 56.5282 115.198C56.3839 113.19 55.7478 111.249 54.6764 109.546C57.6651 109.09 60.6567 108.629 63.6512 108.163C63.6413 108.265 63.6694 108.366 63.73 108.449C64.9025 110.144 65.5359 112.155 65.5468 114.219C65.5609 115.296 65.4537 116.371 65.2273 117.424C64.9908 118.535 64.61 119.62 64.3517 120.7C64.3327 120.793 64.3437 120.888 64.3831 120.974C64.4225 121.059 64.4882 121.13 64.5706 121.175C59.4804 121.93 54.3932 122.707 49.309 123.506C48.1313 123.695 46.9536 123.884 45.776 124.082C45.4213 124.143 45.0623 124.196 44.7077 124.262C44.7822 121.667 44.7077 119.062 44.5895 116.472C44.5107 114.715 44.4144 112.958 44.2437 111.176C46.8923 110.706 49.5804 110.324 52.2597 109.915ZM33.5439 104.975C36.6829 106.13 39.9051 107.241 42.9215 108.694C42.9522 109.081 42.9828 109.467 43.0178 109.849C42.7114 109.893 42.4093 109.928 42.0985 109.959C41.9881 109.964 41.8799 109.991 41.7808 110.04C41.6818 110.089 41.594 110.158 41.5231 110.243C41.4522 110.328 41.3998 110.427 41.3693 110.534C41.3387 110.64 41.3307 110.752 41.3457 110.861C41.3608 110.971 41.3985 111.077 41.4565 111.171C41.5145 111.265 41.5915 111.346 41.6826 111.409C41.7737 111.471 41.8768 111.514 41.9853 111.535C42.0939 111.555 42.2055 111.552 42.313 111.527C42.5888 111.47 42.8734 111.426 43.1536 111.373V111.404C43.3068 113.125 43.4119 114.851 43.5169 116.577C43.6789 119.212 43.7358 121.89 43.8103 124.543C43.7488 124.607 43.7007 124.682 43.6686 124.765C43.6366 124.848 43.6214 124.936 43.6239 125.025C43.6263 125.114 43.6464 125.201 43.6829 125.282C43.7194 125.363 43.7716 125.435 43.8365 125.496V125.851C43.6687 127.74 43.8032 129.644 44.2349 131.49C41.9523 131.606 39.7001 132.067 37.5541 132.856C37.3761 129.466 37.2302 126.073 37.1163 122.677C37.0551 121.011 37.0025 119.346 36.9587 117.684L36.8931 115.075L36.8668 113.758C36.8111 113.274 36.8214 112.785 36.8974 112.304C37.02 111.865 36.2714 111.896 36.3984 112.304C36.4921 112.783 36.52 113.272 36.4815 113.758C36.4815 114.197 36.4815 114.636 36.4815 115.075C36.4815 115.909 36.5166 116.744 36.5385 117.574C36.5779 119.273 36.626 120.977 36.6829 122.677C36.7924 125.9 36.9412 129.119 37.1207 132.338C36.7467 131.978 36.3106 131.689 35.8336 131.486C34.6253 130.941 33.3819 130.471 32.1561 129.971C29.6826 128.952 27.2046 127.946 24.7136 126.932C24.8055 118.615 24.9018 110.297 24.9456 101.976C27.8044 103.052 30.707 103.934 33.5439 104.975ZM82.0737 80.1594L82.9186 80.2428C83.549 80.3131 84.1795 80.3921 84.8055 80.48L85.3528 80.5678C84.1532 80.7786 82.9624 81.0069 81.7672 81.2572C81.7278 80.8884 81.7015 80.5151 81.6884 80.1462C81.811 80.1638 81.9686 80.1506 82.0737 80.1594ZM72.0043 77.2743C72.1182 77.0284 72.0875 77.0196 72.3546 76.9713L72.915 76.8703L74.2021 76.5936C75.0953 76.3501 76.017 76.2275 76.9427 76.2291C78.3611 76.2906 79.6264 77.0811 81.0361 76.9844C80.8971 77.9308 80.8342 78.8868 80.8478 79.8432C80.8259 79.9267 80.8259 80.0144 80.8478 80.0979C80.8478 80.537 80.8872 80.9762 80.931 81.4153C79.8146 81.6305 78.6939 81.8193 77.56 81.9555C75.9979 82.1793 74.4145 82.2102 72.8449 82.0477C72.5253 82.0038 72.3196 81.9379 72.2232 81.6085C72.1255 81.2391 72.0625 80.8612 72.035 80.48C71.954 79.6637 71.954 78.8414 72.035 78.0252C72.0815 77.9778 72.1167 77.9204 72.1378 77.8574C72.159 77.7943 72.1656 77.7273 72.1572 77.6613C72.1488 77.5954 72.1255 77.5322 72.0892 77.4765C72.0528 77.4209 72.0044 77.3742 71.9474 77.3401C71.9752 77.3272 72.0004 77.3094 72.0218 77.2874L72.0043 77.2743ZM53.7701 68.452C53.7334 68.4123 53.6923 68.3769 53.6475 68.3466C53.6981 68.3764 53.7451 68.4117 53.7876 68.452H53.7701ZM52.5487 75.4782C52.5203 75.5712 52.5203 75.6706 52.5487 75.7636C52.4742 75.5133 52.5487 75.8559 52.5487 75.97C52.5487 76.2423 52.5487 76.5146 52.5487 76.7912C52.5487 77.6695 52.5793 78.5478 52.5924 79.426C52.6187 81.2528 52.5924 83.0884 52.68 84.9152C52.677 85.0302 52.6872 85.1452 52.7107 85.2578C52.7238 85.297 52.7399 85.3352 52.7588 85.3719C52.7588 85.3719 52.7588 85.3983 52.7588 85.4115C51.4192 85.1787 50.0751 84.9723 48.7398 84.7352C47.3254 84.5232 45.9448 84.126 44.6333 83.5539C44.6231 83.4731 44.5959 83.3953 44.5537 83.3257C44.5114 83.2561 44.455 83.1962 44.3881 83.1499C44.3575 82.7854 44.3137 82.421 44.2962 82.0521C44.2962 81.5119 44.248 80.9718 44.2262 80.4317C44.178 79.3865 44.1298 78.3458 44.0861 77.3006C44.7603 77.1864 45.4345 77.0591 46.0912 76.8834C46.2014 77.0393 46.3682 77.1454 46.5557 77.1791C46.7432 77.2128 46.9364 77.1713 47.0937 77.0635C47.218 76.9752 47.3126 76.8512 47.3652 76.7078C47.4524 76.6568 47.5358 76.5996 47.6147 76.5365C47.7844 76.407 47.9399 76.2598 48.0788 76.0974C48.3733 75.7645 48.6021 75.3786 48.753 74.96C49.0737 74.0911 49.0628 73.1339 48.7223 72.2725C48.3544 71.385 47.6688 70.6676 46.8004 70.2613C46.4072 70.0803 45.9898 69.9576 45.5614 69.8968C46.5934 69.2327 47.8095 68.9158 49.0332 68.9922C49.7657 69.0842 50.4801 69.287 51.1521 69.5938C51.9445 70.0329 52.3998 71.0342 52.6406 71.8773C52.9718 73.0585 52.9459 74.3118 52.5662 75.4782H52.5487ZM57.8548 73.4187C57.823 73.432 57.7948 73.4523 57.772 73.4782C57.7493 73.5041 57.7327 73.5347 57.7234 73.568C57.6621 73.7788 57.6096 73.9939 57.5658 74.2135C57.4708 74.4194 57.3626 74.6189 57.2418 74.8107C57.2033 74.8646 57.1765 74.926 57.1633 74.991C57.1501 75.056 57.1507 75.123 57.1652 75.1877C57.1797 75.2524 57.2076 75.3133 57.2473 75.3664C57.2869 75.4195 57.3373 75.4636 57.3951 75.4958C57.3951 75.7241 57.3644 75.9349 57.3557 76.1764C57.293 76.2429 57.2472 76.3234 57.2221 76.4113C57.1969 76.4992 57.1932 76.5918 57.2112 76.6814C57.254 76.931 57.2775 77.1835 57.2812 77.4368C57.2845 77.5171 57.3071 77.5954 57.3469 77.6651C57.3469 78.7103 57.4213 79.7554 57.5089 80.7962C57.6052 81.9818 57.6753 83.185 57.8197 84.3663L57.5308 84.4322C56.2962 84.7045 55.0529 84.9592 53.8139 85.2095C53.8481 84.9177 53.8481 84.6229 53.8139 84.3312L53.7745 82.8864C53.7745 82.2233 53.7439 81.569 53.7263 80.9059C53.7263 80.6161 53.7263 80.3263 53.7263 80.0277C53.7263 79.2592 53.6869 78.4907 53.6432 77.7266C53.6432 77.3445 53.6432 76.9625 53.6125 76.5804C53.6277 76.2742 53.6174 75.9672 53.5819 75.6626C54.0196 74.191 53.972 72.617 53.4462 71.1747C53.2804 70.7243 53.0645 70.2942 52.8026 69.8924C53.1749 69.846 53.5143 69.6553 53.7482 69.361C53.8657 69.2391 53.9313 69.0761 53.9313 68.9065C53.9313 68.737 53.8657 68.574 53.7482 68.452C53.7789 68.4784 53.7833 68.452 53.9846 68.395L54.0766 68.373C54.1328 68.4404 54.2093 68.4875 54.2947 68.5073C54.38 68.5271 54.4694 68.5185 54.5494 68.4828C54.8803 68.349 55.2395 68.301 55.5937 68.3432C55.948 68.3854 56.286 68.5165 56.5764 68.7243C57.1476 69.2111 57.5607 69.8579 57.7628 70.5818C58.0678 71.4977 58.1057 72.4819 57.8723 73.4187H57.8548ZM65.2316 74.2135C64.9355 74.4968 64.5723 74.6998 64.1764 74.8035C63.7804 74.9072 63.3647 74.9082 62.9682 74.8063C62.9682 74.7624 62.9682 74.7229 62.9376 74.679C62.8237 74.1564 62.1495 74.2662 61.9876 74.679C61.6851 75.3992 61.1692 76.0087 60.5099 76.425C59.8505 76.8413 59.0795 77.0443 58.3013 77.0064C58.3013 76.8527 58.3013 76.7034 58.3013 76.5673C58.2973 76.4274 58.2411 76.2942 58.1437 76.194C58.1437 75.9261 58.1437 75.6626 58.1656 75.3992C58.6568 74.6072 58.9597 73.7124 59.0508 72.7841C59.1419 71.8558 59.0188 70.919 58.691 70.0461C58.3948 69.1687 57.8388 68.4027 57.0974 67.8504C57.762 67.6659 58.4683 67.7013 59.1112 67.9514C60.8624 68.7682 61.3221 70.7839 61.668 72.5009C61.7511 72.8917 62.3509 72.7951 62.3553 72.4086C62.3735 71.1005 62.0295 69.8129 61.3615 68.6892C61.3994 68.6627 61.4301 68.6272 61.4508 68.5857C61.4714 68.5443 61.4814 68.4983 61.4797 68.452C61.4797 68.2852 62.9682 68.1886 63.1171 68.1798C63.6868 68.1301 64.2594 68.2331 64.7763 68.4784C65.757 68.979 66.0678 70.415 66.1422 71.425C66.21 71.9286 66.1633 72.441 66.0056 72.9239C65.8479 73.4069 65.5833 73.8477 65.2316 74.2135ZM69.2331 30.6073C69.2487 30.6229 69.2664 30.6362 69.2856 30.6468C70.1519 30.9875 71.0788 31.1459 72.0087 31.1123C73.0767 31.1645 74.1467 31.0654 75.1871 30.8181C75.2172 30.8117 75.2457 30.799 75.2706 30.7809C75.2955 30.7627 75.3163 30.7395 75.3316 30.7127C75.7908 30.7983 76.2409 30.9277 76.6756 31.0991C76.6459 31.1351 76.6249 31.1775 76.6143 31.223C76.6036 31.2685 76.6036 31.3158 76.6142 31.3613C76.6248 31.4068 76.6457 31.4492 76.6753 31.4853C76.705 31.5213 76.7425 31.55 76.7851 31.569C75.3272 31.9379 73.7205 31.8632 72.2539 31.8193C71.1944 31.7886 70.1349 31.7227 69.0799 31.6305C68.5851 31.5866 68.0948 31.5383 67.6045 31.4812C67.2893 31.4461 66.6501 31.4065 66.5144 31.0421C67.4092 30.8155 68.3217 30.6656 69.2418 30.5941L69.2331 30.6073ZM67.7096 32.4297C69.0229 32.5702 70.3101 32.6625 71.6191 32.6844C73.4009 32.7196 75.2265 32.7415 76.9252 32.2453C76.8157 34.0897 76.7632 35.934 76.75 37.7784C76.75 38.3361 76.75 38.8982 76.75 39.4559C75.2042 40.6125 73.4013 41.3751 71.4965 41.6779C70.3064 41.8655 69.0928 41.8417 67.9109 41.6077C67.5273 41.5382 67.1575 41.4062 66.8165 41.2168C66.8165 40.0224 66.7902 38.8323 66.7595 37.6379C66.7333 36.6191 66.707 35.6003 66.6676 34.5639C66.637 33.7647 66.5713 32.9699 66.5144 32.175C66.9038 32.3067 67.3084 32.3879 67.7183 32.4165L67.7096 32.4297ZM76.6712 43.654C75.3579 44.8221 73.576 45.3315 71.8292 45.4369C70.2356 45.5335 68.0686 45.5643 66.8208 44.4708V44.4269C67.6918 44.5376 68.571 44.5685 69.4476 44.5191C71.2636 44.4009 73.0434 43.9546 74.7012 43.2017C75.4461 42.8824 76.1537 42.4818 76.8113 42.0073C76.8113 42.3893 76.8113 42.7758 76.8113 43.1578C76.769 43.1787 76.7315 43.2084 76.7014 43.2449C76.6714 43.2814 76.6494 43.3239 76.637 43.3696C76.6245 43.4153 76.6219 43.4631 76.6294 43.5099C76.6368 43.5566 76.654 43.6013 76.68 43.6409L76.6712 43.654ZM66.8296 42.0336C67.8365 42.5079 69.1412 42.543 70.17 42.5079C72.5601 42.434 74.8684 41.6177 76.7763 40.1717C76.7763 40.5186 76.7763 40.8655 76.7982 41.2124C76.5749 41.3617 76.2203 41.6164 76.1634 41.6516C75.8715 41.8243 75.5797 41.9868 75.2878 42.139C73.5479 43.0509 71.6382 43.5907 69.6796 43.7243C68.7234 43.791 67.7629 43.7631 66.8121 43.6409C66.8427 43.0919 66.8383 42.5562 66.8383 42.0205L66.8296 42.0336ZM74.8019 63.5513C74.8144 65.341 74.5364 67.1208 73.9788 68.8209C73.4731 70.3356 72.4993 71.6493 71.1988 72.5711C70.5226 73.0045 69.7845 73.3318 69.0098 73.5416C68.5942 73.6603 68.1717 73.7527 67.7446 73.8183C67.3922 73.8916 67.0353 73.9415 66.6764 73.9676C67.0979 73.128 67.2682 72.1839 67.1667 71.2493C67.1032 70.35 66.8463 69.4751 66.4137 68.6848C68.1255 68.2456 68.9398 66.2607 69.1455 64.6667C69.3937 62.537 69.3745 60.3846 69.0886 58.2597C70.489 58.5601 71.9265 58.6474 73.3528 58.5188C73.7511 58.4837 74.2765 58.4222 74.85 58.3212C74.8631 60.0426 74.8632 61.7816 74.8106 63.5205L74.8019 63.5513ZM75.6775 56.9642C74.6402 57.2645 73.5694 57.4327 72.4903 57.4649C70.4515 57.5159 68.4264 57.1171 66.5582 56.2968C66.6019 52.6256 66.7552 48.9588 66.8033 45.2876C68.1167 46.0737 70.1393 46.1 71.514 46.0429C73.3878 45.9639 75.371 45.5335 76.8157 44.3567C76.8157 48.1596 76.8989 51.9625 76.9952 55.7742C76.9931 55.8602 77.0125 55.9454 77.0515 56.0221C77.0904 56.0988 77.1479 56.1645 77.2185 56.2133C76.7785 56.5718 76.2564 56.8148 75.6993 56.9203L75.6775 56.9642ZM137.205 80.3043C134.119 84.1511 131.002 87.9716 127.981 91.8712C127.245 92.8153 126.519 93.7594 125.792 94.7255C125.306 95.3886 124.811 96.0429 124.391 96.7587C116.047 91.9765 107.829 86.9221 100.273 80.9498C99.1054 80.0247 97.9511 79.0777 96.8099 78.1086C96.2408 77.63 95.6804 77.1469 95.12 76.6595C94.6715 76.1835 94.187 75.7431 93.6709 75.3421C92.41 72.1803 91.0339 69.0712 89.5425 66.0148C88.7632 64.4222 87.9503 62.8443 87.1039 61.2809C86.6807 60.4993 86.2429 59.7235 85.7906 58.9535C85.5541 58.5144 85.3177 58.1236 85.0769 57.7108C84.7855 57.3212 84.5442 56.8963 84.359 56.4461C84.3315 56.3052 84.2611 56.1763 84.1576 56.0772C84.1454 56.0591 84.1306 56.0428 84.1138 56.0289C84.9701 54.9871 85.6625 53.8202 86.1671 52.5685C87.3486 52.745 88.551 52.7257 89.7263 52.5114C89.6808 53.1228 89.7787 53.7363 90.0121 54.3029C90.2455 54.8695 90.6079 55.3734 91.0704 55.7742C91.7176 56.335 92.532 56.6646 93.386 56.7115C94.24 56.7584 95.0854 56.5198 95.7898 56.0333C96.4591 55.5836 96.9651 54.9285 97.2318 54.166C97.4986 53.4036 97.5119 52.575 97.2696 51.8044C97.0962 51.2101 96.7693 50.6723 96.3221 50.2455C95.8747 49.8186 95.3229 49.518 94.7225 49.374C94.1221 49.23 93.4944 49.2478 92.903 49.4255C92.3116 49.6032 91.7775 49.9346 91.3549 50.386C91.243 50.5087 91.1419 50.6409 91.0529 50.7812C91.0301 50.757 91.0052 50.7349 90.9784 50.7153C90.8519 50.644 90.7026 50.6248 90.5621 50.6616C90.4217 50.6985 90.301 50.7886 90.2254 50.913C90.0919 51.136 89.9833 51.3731 89.9015 51.62C88.783 51.8231 87.6399 51.8513 86.5129 51.7034C87.2265 49.8151 87.7431 47.817 88.4918 45.9463C91.8934 45.9463 95.2907 45.9771 98.6924 46.0298C100.563 46.0561 102.434 46.1073 104.305 46.1835C105.268 46.2244 106.233 46.2713 107.199 46.324C108.144 46.4407 109.096 46.4921 110.049 46.4777L110.329 46.7192C110.285 46.6797 110.434 46.7983 110.539 46.8773L111.021 47.2506C111.336 47.4833 111.656 47.6897 111.975 47.94C113.906 49.3452 115.863 50.711 117.811 52.0898C123.616 56.1884 129.414 60.309 135.205 64.4515C138.255 66.6267 141.302 68.8077 144.346 70.9946C142.218 74.2135 139.657 77.2084 137.227 80.2604L137.205 80.3043ZM91.7621 51.4926C91.8232 51.3922 91.892 51.2968 91.9679 51.2072C92.3379 50.7912 92.8299 50.5037 93.3732 50.386C93.9156 50.2568 94.4857 50.3169 94.9895 50.5564C95.4933 50.7959 95.9007 51.2005 96.1444 51.7034C96.4057 52.2022 96.4962 52.7733 96.4021 53.3287C96.3079 53.8842 96.0343 54.3932 95.6235 54.7773C95.2795 55.1023 94.858 55.333 94.3994 55.4472C93.9408 55.5615 93.4607 55.5554 93.0051 55.4297C92.5496 55.304 92.1339 55.0629 91.7981 54.7294C91.4624 54.396 91.2178 53.9815 91.0879 53.5258C91.1457 53.4919 91.194 53.444 91.2284 53.3864C91.2629 53.3289 91.2823 53.2635 91.2849 53.1965C91.2981 52.7935 91.3735 52.395 91.5082 52.0152C91.56 51.999 91.6079 51.9723 91.6491 51.9368C91.6902 51.9013 91.7237 51.8578 91.7475 51.8088C91.7713 51.7599 91.7848 51.7066 91.7873 51.6522C91.7898 51.5979 91.7813 51.5435 91.7621 51.4926Z" fill="#8496B6"/>
<path d="M122.618 60.3191C120.7 58.5534 118.318 57.3741 115.754 56.9202C115.657 56.9036 115.557 56.9127 115.465 56.9465C115.394 56.9367 115.322 56.9486 115.258 56.9807C115.193 57.0129 115.141 57.0637 115.106 57.1266C114.773 57.7384 114.472 58.3672 114.204 59.0105C113.912 59.6311 113.613 60.2474 113.307 60.8592C112.672 62.1547 112.033 63.4414 111.371 64.7192C110.141 67.1037 108.867 69.4663 107.571 71.8157C106.499 71.3458 105.426 70.8627 104.354 70.3929C104.288 70.3553 104.215 70.3332 104.14 70.328C104.065 70.3229 103.989 70.3349 103.919 70.3633C103.849 70.3916 103.787 70.4354 103.736 70.4915C103.685 70.5476 103.648 70.6145 103.627 70.6871C103.513 71.2848 103.257 71.8464 102.883 72.3251C102.672 72.5973 102.913 72.9442 103.172 73.0409C104.055 73.374 104.911 73.7794 105.728 74.2529C104.791 75.9611 103.951 77.7133 103.005 79.4171C102.968 79.4834 102.946 79.5573 102.941 79.6333C102.936 79.7093 102.949 79.7855 102.977 79.856C103.006 79.9265 103.05 79.9897 103.106 80.0407C103.163 80.0917 103.23 80.1292 103.303 80.1505C103.947 80.2855 104.561 80.537 105.115 80.8926C105.182 80.9292 105.255 80.9505 105.331 80.955C105.406 80.9594 105.482 80.9468 105.552 80.9182C105.622 80.8896 105.685 80.8456 105.736 80.7895C105.787 80.7334 105.825 80.6666 105.847 80.594C106.375 79.0693 107.112 77.6255 108.035 76.3036C110.618 77.621 113.18 78.9955 115.758 80.3305C115.873 80.3964 116.009 80.4144 116.136 80.3807C116.264 80.347 116.374 80.2643 116.441 80.1505C116.708 79.5169 117.038 78.9122 117.426 78.3456C117.463 78.2804 117.484 78.2078 117.489 78.1331C117.494 78.0584 117.481 77.9836 117.453 77.9144C117.425 77.8451 117.381 77.7831 117.326 77.7331C117.271 77.6831 117.205 77.6463 117.133 77.6254C115.807 77.0503 114.515 76.4009 113.263 75.6801C112.16 75.0872 111.013 74.5164 109.957 73.8313C110.238 73.3922 110.531 72.953 110.811 72.5139C112.491 73.8545 114.58 74.5749 116.726 74.5541C118.873 74.5333 120.947 73.7727 122.601 72.3997C124.366 70.9387 125.514 68.8614 125.814 66.5856C126.086 64.1132 124.335 61.878 122.618 60.3191ZM122.583 70.9857C121.226 72.4124 119.398 73.2958 117.439 73.4712C116.286 73.5583 115.127 73.4085 114.033 73.0309C112.939 72.6534 111.934 72.0561 111.078 71.2755C111.019 71.218 110.948 71.1747 110.87 71.1486C110.792 71.1225 110.709 71.1145 110.627 71.125C110.546 71.1356 110.467 71.1645 110.398 71.2095C110.329 71.2546 110.271 71.3147 110.229 71.3853C109.791 72.1889 109.231 72.9135 108.802 73.7215C108.734 73.8445 108.716 73.989 108.752 74.1249C108.788 74.2607 108.875 74.3774 108.994 74.4505C110.257 75.235 111.559 75.9547 112.895 76.6066C114.016 77.1907 115.141 77.7923 116.301 78.3017C116.119 78.5936 115.954 78.8956 115.806 79.2063C113.25 77.8889 110.715 76.5715 108.167 75.2541C108.074 75.2015 107.967 75.1804 107.861 75.1938C107.755 75.2073 107.657 75.2546 107.58 75.3288C106.566 76.671 105.743 78.1491 105.137 79.7201C104.835 79.5611 104.518 79.4302 104.192 79.3293C105.093 77.6606 105.943 75.9567 106.818 74.2968C106.882 74.1825 106.899 74.048 106.867 73.9213C106.834 73.7946 106.754 73.6853 106.643 73.6161C105.802 73.1181 104.924 72.685 104.017 72.3207C104.173 72.0554 104.3 71.7742 104.397 71.4819C105.435 71.9211 106.473 72.3602 107.506 72.8345C107.617 72.8962 107.748 72.9124 107.871 72.8797C107.995 72.8469 108.1 72.7678 108.167 72.6588C109.568 70.1689 110.942 67.6571 112.238 65.1101C112.891 63.8278 113.53 62.5367 114.138 61.2325C114.44 60.5782 114.734 59.9151 115.014 59.2608C115.198 58.8216 115.408 58.3825 115.579 57.9434C117.513 58.2958 119.339 59.0924 120.915 60.2708C121.727 60.8774 122.462 61.5808 123.104 62.3655C123.866 63.199 124.421 64.201 124.724 65.2901C125.171 67.3189 123.932 69.5936 122.583 70.9857Z" fill="#8496B6"/>
<path d="M61.1724 95.5859L61.1426 95.6073L61.1724 95.5859Z" fill="#8496B6"/>
<path d="M54.9168 95.0204C54.7023 95.0412 54.5006 95.1318 54.3425 95.2786C54.1843 95.4253 54.0785 95.62 54.0412 95.8328C53.9915 96.0626 54.0208 96.3025 54.1244 96.5135C54.1766 96.617 54.2488 96.7091 54.3367 96.7844C54.4246 96.8598 54.5265 96.917 54.6366 96.9526C54.8376 97.0153 55.0522 97.0193 55.2553 96.9641C55.4585 96.9089 55.6417 96.7967 55.7836 96.6408C55.9374 96.4738 56.0206 96.2534 56.0156 96.026C56.0053 95.7955 55.9083 95.5774 55.7442 95.4156C55.5677 95.235 55.3339 95.1217 55.0831 95.0951C55.0643 95.0692 55.039 95.0487 55.0098 95.0356C54.9807 95.0225 54.9486 95.0173 54.9168 95.0204ZM54.9168 95.6615H54.8774H54.9168ZM55.1707 95.723L55.2626 95.7801L55.3064 95.8196L55.3371 95.8548C55.3547 95.8801 55.3708 95.9065 55.3852 95.9338V95.9865V96.0348C55.3845 96.026 55.3845 96.0172 55.3852 96.0085C55.3852 96.0085 55.3852 96.0392 55.3852 96.0568C55.3877 96.0713 55.3877 96.0862 55.3852 96.1007V96.1314L55.3546 96.1797L55.3195 96.2149L55.2451 96.2632H55.2013L55.1094 96.2939H55.0569H54.9168C54.8837 96.2893 54.8513 96.2804 54.8205 96.2676H54.7811C54.7709 96.2655 54.7605 96.2655 54.7504 96.2676L54.711 96.228C54.694 96.2047 54.6793 96.1797 54.6672 96.1534C54.6655 96.1388 54.6655 96.1241 54.6672 96.1095V96.0524C54.6672 96.026 54.6672 95.9953 54.6672 95.9689C54.6692 95.95 54.6692 95.9308 54.6672 95.9119C54.6754 95.8718 54.6856 95.8323 54.6979 95.7933C54.6972 95.7801 54.6972 95.7669 54.6979 95.7538C54.7462 95.7401 54.791 95.7161 54.8292 95.6835H54.8599H54.9124H55.0437L55.1532 95.7186L55.1707 95.723Z" fill="#8496B6"/>
<path d="M60.9146 94.2999C61.1104 94.3133 61.2999 94.3752 61.4662 94.4799C61.6865 94.6036 61.8545 94.8034 61.939 95.042C61.9721 95.1657 61.9798 95.2949 61.9617 95.4216C61.9437 95.5484 61.9002 95.6703 61.8339 95.7797C61.6963 95.9881 61.5 96.1506 61.2701 96.2468C61.0401 96.343 60.7868 96.3684 60.5424 96.3199C60.2941 96.2599 60.0754 96.1126 59.926 95.9048C59.7766 95.6969 59.7064 95.4422 59.7281 95.1869C59.7322 94.9285 59.8198 94.6783 59.9776 94.474C60.1355 94.2697 60.3552 94.1223 60.6037 94.0539C60.6653 94.0373 60.7308 94.0438 60.788 94.0721C60.8452 94.1004 60.8902 94.1485 60.9146 94.2076C60.9212 94.238 60.9212 94.2695 60.9146 94.2999Z" fill="#8496B6"/>
</svg>
