<svg width="157" height="150" viewBox="0 0 157 150" fill="none" xmlns="http://www.w3.org/2000/svg">
<path d="M100.158 46.2054C101.914 55.0145 103.715 63.8104 105.353 72.6458C105.792 75.1181 106.196 77.6168 106.67 80.0847C106.789 80.6776 107.667 80.4185 107.549 79.8344C107.188 77.6695 106.723 75.5046 106.315 73.344C105.893 71.1044 105.466 68.8678 105.032 66.634C104.177 62.2163 103.308 57.8015 102.424 53.3897C101.923 50.9217 101.414 48.4582 100.874 45.999C100.768 45.5116 100.035 45.718 100.127 46.2054H100.158Z" fill="#8496B6"/>
<path d="M120.082 42.7379C120.249 43.8182 120.376 44.9072 120.565 45.9875C120.754 47.0678 120.947 48.1832 121.141 49.2547C121.527 51.4503 121.944 53.646 122.335 55.8417C123.13 60.2594 123.767 64.6991 124.509 69.1256C124.711 70.32 124.908 71.5145 125.102 72.7089C125.38 73.9679 125.559 75.2468 125.637 76.5338C125.637 77.3067 126.893 77.1266 126.669 76.3933C126.405 75.3341 126.22 74.2567 126.116 73.17C125.953 72.0766 125.795 70.9743 125.633 69.8897C125.295 67.6457 124.93 65.4061 124.553 63.1665C123.81 58.7444 123.077 54.3179 122.278 49.9046C122.058 48.6794 121.839 47.4542 121.602 46.2334C121.364 45.0126 121.075 43.7655 120.802 42.5315C120.697 42.0528 120.012 42.268 120.082 42.7335V42.7379Z" fill="#8496B6"/>
<path d="M120.139 41.915C118.222 41.9269 116.314 42.1807 114.461 42.6703C112.529 43.1095 110.588 43.4652 108.643 43.8428C105.902 44.3698 103.03 44.989 100.369 45.3798L100.778 46.8553C101.744 46.6709 101.335 45.191 100.369 45.3754C100.175 45.4308 100.01 45.5603 99.9096 45.736C99.8094 45.9116 99.7821 46.1196 99.8335 46.3152C99.8908 46.5094 100.021 46.6737 100.197 46.7737C100.373 46.8736 100.582 46.9013 100.778 46.8509C103.47 46.4601 106.104 45.6433 108.774 45.1207C110.689 44.7431 112.604 44.383 114.509 43.979C116.35 43.5089 118.24 43.2554 120.139 43.2237C120.982 43.2237 120.982 41.937 120.139 41.9062V41.915Z" fill="#8496B6"/>
<path d="M100.093 45.6698C99.9037 46.3988 99.6534 47.1058 99.4294 47.8216C99.3021 48.2124 99.1704 48.6076 99.0474 48.9985C98.8967 49.3744 98.7963 49.7687 98.7488 50.171C98.7498 50.2378 98.7725 50.3024 98.8136 50.3552C98.8546 50.4079 98.9117 50.4458 98.9762 50.4632C99.0408 50.4806 99.1092 50.4764 99.1712 50.4514C99.2331 50.4264 99.2853 50.3819 99.3197 50.3246C99.4556 49.9588 99.5628 49.583 99.6402 49.2005C99.7544 48.7921 99.8818 48.3881 100.013 47.9841C100.246 47.2727 100.497 46.5613 100.685 45.8367C100.708 45.7581 100.697 45.6739 100.658 45.6026C100.618 45.5314 100.551 45.479 100.472 45.4568C100.394 45.4347 100.31 45.4447 100.238 45.4847C100.167 45.5246 100.115 45.5912 100.093 45.6698Z" fill="#8496B6"/>
<path d="M98.6603 50.1546C98.8535 52.3503 99.3981 54.502 99.824 56.6406C100.272 58.8626 100.736 61.0817 101.216 63.2979C102.169 67.7112 103.056 72.1421 103.912 76.5774C104.106 77.5742 104.15 78.6852 104.878 79.4625C105.533 80.1519 106.464 80.4198 107.342 80.7052C107.742 80.837 107.922 80.1827 107.513 80.0773C106.727 79.8709 105.831 79.5898 105.274 78.9575C104.619 78.2241 104.571 76.9375 104.395 76.0109C104 73.9074 103.579 71.804 103.153 69.7049C102.274 65.498 101.471 61.2867 100.619 57.0797C100.386 55.938 100.18 54.8006 99.925 53.6633C99.6703 52.5259 99.4859 51.2568 99.1521 50.0887C99.0731 49.8296 98.634 49.8648 98.6603 50.1546Z" fill="#8496B6"/>
<path d="M126.252 76.1983C123.031 76.7838 119.832 77.4045 116.652 78.0603L111.918 79.0088L109.547 79.4874C108.699 79.7143 107.836 79.8831 106.965 79.9925L107.075 80.8224C107.326 80.7504 107.572 80.6624 107.812 80.5589C107.9 80.5299 107.973 80.4685 108.016 80.3873C108.06 80.3062 108.07 80.2115 108.046 80.1227C108.022 80.0339 107.965 79.9577 107.886 79.9098C107.808 79.8619 107.714 79.8459 107.624 79.8651C107.363 79.8963 107.105 79.9432 106.851 80.0056C106.324 80.1505 106.565 81.0025 107.075 80.8224C107.883 80.586 108.706 80.4041 109.538 80.2779L111.901 79.7861C113.514 79.4377 115.124 79.0966 116.731 78.7629C119.952 78.0866 123.172 77.3869 126.392 76.6638C126.7 76.5935 126.568 76.1412 126.265 76.1983H126.252Z" fill="#8496B6"/>
<path d="M114.9 46.8378L115.339 49.8195L115.563 51.2818C115.609 51.7928 115.701 52.2984 115.839 52.7925C115.876 52.9144 115.954 53.0193 116.061 53.0882C116.168 53.157 116.296 53.1852 116.422 53.1677C116.548 53.1502 116.664 53.088 116.748 52.9926C116.832 52.8971 116.879 52.7747 116.88 52.6476C116.854 52.1269 116.782 51.6096 116.665 51.1018L116.406 49.5868L115.932 46.548C115.894 46.4154 115.805 46.303 115.685 46.2349C115.566 46.1667 115.424 46.1483 115.29 46.1835C115.158 46.2234 115.046 46.3126 114.977 46.4327C114.909 46.5528 114.889 46.6946 114.922 46.829L114.9 46.8378Z" fill="#8496B6"/>
<path d="M106.75 48.3577C106.789 48.5641 106.785 48.8407 106.816 49.0691C106.846 49.2974 106.899 49.6136 106.952 49.8859C107.053 50.3865 107.149 50.8871 107.229 51.3877C107.308 51.8883 107.378 52.3626 107.435 52.85C107.47 53.1223 107.496 53.3946 107.523 53.6668C107.525 53.9629 107.562 54.2576 107.633 54.5451C107.817 55.0677 108.7 55.1906 108.823 54.5451C108.874 53.9826 108.84 53.4155 108.722 52.8632C108.647 52.3011 108.568 51.739 108.454 51.1857C108.34 50.6324 108.225 50.1142 108.085 49.5873C108.01 49.3238 107.922 49.0603 107.826 48.8056C107.782 48.6958 107.725 48.5904 107.676 48.4806C107.628 48.3709 107.553 48.2611 107.514 48.1601C107.5 48.1099 107.477 48.0629 107.445 48.0219C107.413 47.9808 107.373 47.9465 107.328 47.9208C107.236 47.8689 107.128 47.8555 107.027 47.8834C106.925 47.9114 106.839 47.9784 106.787 48.0698C106.735 48.1612 106.722 48.2695 106.75 48.3709V48.3577Z" fill="#8496B6"/>
<path d="M115.19 46.0519C113.741 46.2803 112.305 46.5569 110.869 46.8468C110.166 46.9917 109.463 47.141 108.765 47.2859L107.76 47.5142C107.384 47.6454 106.993 47.7266 106.596 47.7558C106.486 47.7564 106.377 47.7824 106.278 47.8317C106.18 47.881 106.094 47.9523 106.027 48.0401C105.96 48.1279 105.914 48.2298 105.893 48.3381C105.872 48.4464 105.876 48.558 105.905 48.6645C105.934 48.7709 105.987 48.8693 106.06 48.9521C106.133 49.0348 106.224 49.0997 106.326 49.1418C106.428 49.1838 106.538 49.2019 106.648 49.1945C106.758 49.1872 106.865 49.1547 106.96 49.0995C107.302 48.9583 107.661 48.8638 108.027 48.8185L109.112 48.5506C109.81 48.3793 110.504 48.2125 111.202 48.05C112.625 47.7162 114.052 47.3957 115.471 47.0663C116.147 46.9082 115.848 45.9377 115.19 46.0431V46.0519Z" fill="#8496B6"/>
<path d="M115.857 51.7357C113.042 52.3944 110.227 53.0795 107.391 53.6591L107.777 55.0556C108.056 54.9919 108.316 54.8641 108.537 54.6823L108.243 54.8536C108.408 54.8125 108.575 54.7803 108.743 54.757C108.838 54.7285 108.925 54.6804 109 54.616C109.074 54.5515 109.134 54.472 109.176 54.3827C109.218 54.2935 109.241 54.1964 109.243 54.0978C109.245 53.9992 109.226 53.9013 109.187 53.8105C109.149 53.7196 109.092 53.6379 109.02 53.5706C108.948 53.5033 108.862 53.452 108.769 53.4199C108.676 53.3878 108.577 53.3757 108.478 53.3844C108.38 53.3931 108.285 53.4224 108.199 53.4703C107.948 53.5757 107.659 53.5757 107.391 53.6591C106.512 53.949 106.872 55.3015 107.777 55.0556C110.57 54.3003 113.389 53.6459 116.195 52.9653C116.995 52.7721 116.634 51.5513 115.857 51.7357Z" fill="#8496B6"/>
<path d="M111.224 56.4466L111.25 56.4203C111.29 56.3852 111.185 56.4642 111.228 56.4203L111.281 56.3852H111.316C111.36 56.3588 111.242 56.4115 111.29 56.3852L111.36 56.3632C111.36 56.3632 111.457 56.3632 111.395 56.3632C111.334 56.3632 111.395 56.3632 111.43 56.3632H111.54C111.593 56.3632 111.452 56.3632 111.54 56.3632C111.586 56.3687 111.63 56.3805 111.672 56.3983C111.738 56.4203 111.606 56.3676 111.672 56.3983L111.738 56.4335C111.76 56.4335 111.826 56.5037 111.738 56.4335L111.786 56.473C111.801 56.4915 111.817 56.5091 111.834 56.5257C111.764 56.4554 111.834 56.5257 111.834 56.5257C111.834 56.5257 111.878 56.6091 111.834 56.552C111.791 56.4949 111.834 56.552 111.834 56.5872C111.834 56.6223 111.834 56.6091 111.834 56.6223C111.834 56.6355 111.834 56.5828 111.834 56.5828C111.834 56.5828 111.834 56.6486 111.834 56.6662C111.834 56.6838 111.834 56.5959 111.834 56.6267C111.835 56.6369 111.835 56.6472 111.834 56.6574C111.832 56.6793 111.832 56.7014 111.834 56.7233C111.834 56.7233 111.865 56.6486 111.834 56.6838V56.7145V56.7453C111.808 56.7848 111.883 56.6882 111.834 56.7189C111.807 56.7528 111.776 56.7838 111.742 56.8111C111.821 56.7409 111.742 56.8111 111.742 56.8111L111.681 56.8463C111.659 56.8463 111.615 56.8726 111.711 56.8463H111.681L111.619 56.8682H111.562C111.509 56.8682 111.65 56.8682 111.597 56.8682H111.523H111.488H111.457C111.391 56.8682 111.523 56.9033 111.483 56.8682L111.422 56.8331C111.382 56.8067 111.488 56.8902 111.452 56.8331L111.422 56.8067C111.492 56.8814 111.452 56.8506 111.422 56.8067C111.391 56.7628 111.422 56.8067 111.422 56.7804C111.422 56.754 111.448 56.8594 111.422 56.8111V56.7409V56.8243C111.417 56.7893 111.417 56.7539 111.422 56.7189V56.8023C111.427 56.774 111.434 56.7461 111.444 56.7189C111.466 56.653 111.408 56.7892 111.444 56.7453V56.7057C111.444 56.6706 111.536 56.5916 111.444 56.7057L111.509 56.6399C111.52 56.6414 111.53 56.6443 111.54 56.6486C111.575 56.6135 111.461 56.7057 111.518 56.6486L111.597 56.6047C111.659 56.574 111.523 56.6311 111.571 56.6047H111.61H111.694H111.61H111.703H111.619H111.663C111.685 56.6047 111.584 56.5652 111.619 56.6047L111.725 56.6486C111.764 56.6486 111.659 56.6135 111.69 56.6486H111.716C111.77 56.6808 111.834 56.694 111.897 56.686C111.96 56.6781 112.018 56.6495 112.063 56.6047C112.106 56.5583 112.134 56.4996 112.143 56.4367C112.151 56.3738 112.14 56.3098 112.111 56.2534C112.043 56.1447 111.942 56.0603 111.823 56.0122C111.704 55.9641 111.573 55.9548 111.448 55.9855C111.259 56.0312 111.09 56.1358 110.965 56.2842C110.819 56.4452 110.737 56.6549 110.737 56.8726C110.744 56.9936 110.783 57.1107 110.848 57.2128C110.913 57.315 111.003 57.3989 111.11 57.4566C111.298 57.5421 111.509 57.5635 111.711 57.5175C111.912 57.4715 112.093 57.3606 112.225 57.2019C112.297 57.1216 112.353 57.0275 112.387 56.9251C112.422 56.8228 112.435 56.7145 112.427 56.6068C112.418 56.4992 112.388 56.3944 112.337 56.2989C112.287 56.2034 112.217 56.1192 112.133 56.0514C111.946 55.8909 111.708 55.8027 111.461 55.8027C111.215 55.8027 110.976 55.8909 110.789 56.0514C110.76 56.08 110.737 56.1142 110.721 56.1519C110.705 56.1896 110.697 56.2301 110.697 56.271C110.697 56.3119 110.705 56.3524 110.721 56.3901C110.737 56.4278 110.76 56.4619 110.789 56.4906C110.848 56.5485 110.927 56.581 111.009 56.581C111.091 56.581 111.17 56.5485 111.228 56.4906L111.224 56.4466Z" fill="#8496B6"/>
<path d="M114.447 56.0684L114.557 56.0992L114.478 56.0684C114.512 56.0832 114.545 56.1024 114.575 56.1255L114.509 56.0728C114.544 56.0988 114.575 56.1299 114.601 56.165L114.548 56.0992C114.582 56.1423 114.61 56.1896 114.632 56.2397L114.596 56.165C114.619 56.2185 114.635 56.2745 114.645 56.3319V56.2485C114.654 56.3023 114.654 56.3571 114.645 56.4109V56.3231C114.636 56.3696 114.622 56.4151 114.605 56.4592L114.64 56.3802C114.623 56.4119 114.604 56.4427 114.583 56.4724L114.636 56.4065C114.613 56.4362 114.587 56.4627 114.557 56.4856L114.627 56.4329L114.531 56.49L114.61 56.4549C114.573 56.4697 114.535 56.48 114.495 56.4856H114.588C114.537 56.4946 114.485 56.4946 114.434 56.4856H114.526C114.475 56.4777 114.425 56.4629 114.377 56.4417L114.456 56.4768C114.402 56.4536 114.35 56.4241 114.302 56.389L114.373 56.4417C114.331 56.4108 114.294 56.3738 114.263 56.3319L114.315 56.4022C114.286 56.3648 114.263 56.3234 114.245 56.2792L114.276 56.3582C114.263 56.3209 114.253 56.2828 114.245 56.2441V56.3363C114.241 56.2998 114.241 56.263 114.245 56.2265V56.3143C114.252 56.2707 114.264 56.228 114.28 56.187L114.245 56.266C114.263 56.2308 114.284 56.1971 114.307 56.165L114.254 56.2309C114.283 56.1969 114.315 56.1659 114.351 56.1387L114.285 56.187C114.323 56.1585 114.364 56.1349 114.408 56.1167L114.329 56.1519C114.383 56.1277 114.441 56.1114 114.5 56.1035H114.412C114.467 56.097 114.524 56.097 114.579 56.1035H114.491C114.55 56.1114 114.607 56.1262 114.662 56.1475L114.588 56.1167C114.626 56.1322 114.661 56.1529 114.693 56.1782L114.627 56.1299L114.667 56.1606C114.72 56.2117 114.789 56.2421 114.862 56.2463C114.936 56.2505 115.008 56.2283 115.067 56.1837C115.125 56.1391 115.166 56.075 115.181 56.0031C115.196 55.9312 115.185 55.8562 115.15 55.7918C115.092 55.7035 115.015 55.6285 114.926 55.5717C114.837 55.5149 114.736 55.4777 114.632 55.4624C114.441 55.4374 114.247 55.4695 114.074 55.5546C113.897 55.633 113.756 55.773 113.675 55.9483C113.594 56.1237 113.58 56.3225 113.635 56.5075C113.703 56.7102 113.837 56.8836 114.017 56.9994C114.174 57.104 114.359 57.1577 114.548 57.1531C114.653 57.1499 114.757 57.1257 114.853 57.082C114.949 57.0383 115.035 56.9758 115.106 56.8984C115.238 56.746 115.309 56.5509 115.308 56.3495C115.313 56.1533 115.254 55.9607 115.141 55.8005C115.075 55.7026 114.99 55.6189 114.891 55.5546C114.786 55.494 114.669 55.458 114.548 55.4492C114.507 55.4489 114.465 55.4569 114.427 55.4727C114.388 55.4885 114.354 55.5119 114.324 55.5415C114.278 55.5915 114.247 55.6541 114.236 55.7215C114.225 55.7914 114.239 55.8631 114.276 55.9235C114.295 55.9598 114.322 55.9916 114.355 56.0166C114.387 56.0416 114.425 56.0593 114.465 56.0684H114.447Z" fill="#8496B6"/>
<path d="M117.333 55.6741H117.363H117.28C117.3 55.6697 117.321 55.6697 117.341 55.6741H117.258H117.315L117.236 55.6434L117.293 55.6697C117.267 55.6478 117.258 55.6478 117.293 55.6697C117.328 55.6917 117.293 55.6697 117.315 55.6917C117.337 55.7136 117.341 55.7444 117.293 55.6565V55.6829L117.324 55.74L117.289 55.6609C117.302 55.687 117.309 55.7154 117.311 55.7444V55.6565C117.315 55.6886 117.315 55.7211 117.311 55.7532V55.6565C117.307 55.6941 117.298 55.731 117.284 55.7663L117.32 55.6829C117.311 55.7014 117.301 55.719 117.289 55.7356L117.346 55.6609C117.332 55.6778 117.316 55.6926 117.298 55.7048L117.372 55.6478L117.864 56.1396C117.914 56.0346 117.945 55.9216 117.956 55.8059C117.972 55.7172 117.972 55.6266 117.956 55.538C117.92 55.359 117.834 55.1934 117.71 55.0593C117.593 54.9261 117.441 54.8287 117.271 54.7783C117.064 54.7225 116.844 54.7444 116.652 54.8398C116.487 54.9217 116.348 55.0466 116.248 55.2011C116.149 55.3557 116.092 55.5342 116.086 55.718C116.073 55.9058 116.122 56.0925 116.224 56.2506C116.326 56.4087 116.476 56.5299 116.652 56.5963C116.842 56.6749 117.051 56.6977 117.254 56.6622C117.44 56.6311 117.609 56.5327 117.728 56.3855C117.792 56.3174 117.829 56.2286 117.833 56.1352C117.832 56.0661 117.811 55.9988 117.772 55.9417C117.733 55.8846 117.678 55.84 117.614 55.8134C117.551 55.7869 117.48 55.7795 117.412 55.7922C117.344 55.8049 117.282 55.8371 117.232 55.8849L117.201 55.9112L117.271 55.8542C117.235 55.8801 117.197 55.9036 117.157 55.9244L117.245 55.8849C117.179 55.91 117.112 55.9291 117.043 55.942H117.139C117.081 55.9508 117.022 55.9508 116.964 55.942H117.065C117.008 55.9341 116.952 55.9193 116.898 55.8981L116.986 55.9332C116.935 55.9146 116.888 55.8879 116.845 55.8542L116.92 55.9112C116.885 55.884 116.852 55.8531 116.823 55.819L116.885 55.8937C116.86 55.8606 116.838 55.8253 116.819 55.7883L116.858 55.8761C116.841 55.8337 116.827 55.7896 116.819 55.7444V55.8454C116.815 55.7972 116.815 55.7487 116.819 55.7005V55.7971C116.828 55.7397 116.845 55.6837 116.867 55.6302L116.828 55.718C116.854 55.6644 116.885 55.613 116.92 55.5643L116.863 55.6434C116.896 55.5997 116.935 55.5599 116.977 55.5248L116.902 55.5863C116.941 55.5549 116.984 55.5283 117.03 55.5072L116.937 55.5468C116.984 55.529 117.033 55.5157 117.082 55.5072H116.981C117.022 55.5028 117.063 55.5028 117.104 55.5072H117.003C117.052 55.511 117.1 55.5245 117.144 55.5468L117.056 55.5072C117.101 55.5278 117.144 55.5528 117.183 55.5819L117.109 55.5248C117.154 55.5613 117.195 55.6025 117.232 55.6478L117.17 55.5731C117.209 55.623 117.242 55.6776 117.267 55.7356L117.227 55.6478C117.249 55.6969 117.263 55.7485 117.271 55.8015V55.7048C117.276 55.7531 117.276 55.8016 117.271 55.8498V55.7532C117.266 55.7971 117.254 55.8401 117.236 55.8805L117.276 55.7971C117.24 55.8676 117.226 55.9471 117.236 56.0254C117.243 56.1033 117.278 56.1763 117.333 56.2318C117.38 56.2708 117.434 56.3019 117.491 56.324C117.537 56.3371 117.585 56.3407 117.633 56.3347C117.68 56.3287 117.726 56.3131 117.767 56.2889C117.843 56.2403 117.907 56.1758 117.954 56.1C118.002 56.0241 118.033 55.9387 118.044 55.8498C118.061 55.6973 118.028 55.5436 117.952 55.4106C117.89 55.2783 117.783 55.1719 117.651 55.1101C117.519 55.0483 117.369 55.035 117.227 55.0725C117.147 55.0951 117.079 55.1483 117.038 55.2206C116.997 55.293 116.986 55.3786 117.008 55.4589C117.031 55.5395 117.085 55.6079 117.158 55.6496C117.231 55.6914 117.317 55.7033 117.399 55.6829L117.333 55.6741Z" fill="#8496B6"/>
<path d="M91.4721 58.7133C91.3324 58.3073 91.2844 57.8755 91.3315 57.4488C91.3786 57.022 91.5196 56.6111 91.7444 56.2453C92.1767 55.5426 92.7974 54.9751 93.536 54.6073C94.2236 54.2357 95.0093 54.086 95.7854 54.1787C96.5614 54.2715 97.2897 54.6022 97.8703 55.1255C98.4385 55.6784 98.7975 56.4111 98.8864 57.1989C98.9753 57.9867 98.7884 58.781 98.3577 59.4466C97.9391 60.1408 97.3066 60.6804 96.5551 60.9844C95.8037 61.2885 94.9739 61.3406 94.1903 61.1329C93.3263 60.8885 92.574 60.3515 92.0622 59.6138C91.5503 58.876 91.3107 57.9834 91.3843 57.0885C91.4238 56.4517 90.4753 56.4737 90.405 57.0885C90.3029 58.1096 90.5364 59.1362 91.0701 60.0127C91.6037 60.8893 92.4085 61.5681 93.3625 61.9463C94.3165 62.3245 95.3677 62.3815 96.357 62.1088C97.3463 61.836 98.2198 61.2483 98.8452 60.4347C99.4898 59.6589 99.8522 58.6873 99.8732 57.6789C99.8942 56.6704 99.5725 55.6847 98.9607 54.8827C98.3489 54.0807 97.4832 53.51 96.505 53.2638C95.5269 53.0175 94.4941 53.1103 93.5756 53.5271C92.5303 53.9514 91.6665 54.7282 91.134 55.7227C90.6685 56.6625 90.4269 57.9579 91.0769 58.867C91.2086 59.0558 91.5467 58.9504 91.4721 58.7001V58.7133Z" fill="#8496B6"/>
<path d="M94.528 57.6989C94.5214 57.6303 94.5214 57.5611 94.528 57.4925C94.528 57.5584 94.528 57.4486 94.528 57.431C94.528 57.4135 94.528 57.3608 94.5631 57.3212C94.5983 57.2817 94.5851 57.2642 94.5631 57.3212V57.2817L94.6158 57.1939C94.6337 57.1591 94.6558 57.1266 94.6817 57.0973L94.7212 57.049C94.7693 56.9988 94.8207 56.9519 94.8749 56.9085L94.9188 56.8689C94.9188 56.8689 94.8749 56.8997 94.9188 56.8689L95.033 56.7943L95.1252 56.746C95.1472 56.746 95.2262 56.6977 95.156 56.746C95.2285 56.7152 95.3034 56.6902 95.3799 56.6713H95.4502H95.661C95.7488 56.6713 95.6171 56.6713 95.661 56.6713C95.7049 56.6713 95.8015 56.7065 95.8718 56.7328C95.8059 56.7065 95.8718 56.7328 95.8718 56.7328C95.9034 56.7487 95.9342 56.7663 95.964 56.7855C96.0386 56.8338 95.9332 56.7548 95.964 56.7855C95.9909 56.8066 96.0159 56.8301 96.0386 56.8558L96.1001 56.9216L96.1265 56.9524C96.1001 56.9172 96.0957 56.9085 96.1265 56.9524C96.1572 56.9963 96.1923 57.0578 96.2231 57.1105L96.2626 57.1939C96.2187 57.1017 96.2626 57.2202 96.2626 57.2422C96.2819 57.301 96.2965 57.3612 96.3065 57.4222C96.3086 57.4397 96.3086 57.4574 96.3065 57.4749C96.3065 57.5189 96.3065 57.4354 96.3065 57.4398C96.3065 57.4442 96.3065 57.5364 96.3065 57.5584C96.3109 57.589 96.3109 57.62 96.3065 57.6506C96.3065 57.6506 96.3065 57.7648 96.3065 57.7033C96.3065 57.6418 96.3065 57.734 96.3065 57.756L96.2802 57.857C96.2704 57.8913 96.2587 57.925 96.245 57.958C96.2231 58.0239 96.2846 57.8877 96.245 57.958C96.2055 58.0282 96.1616 58.1293 96.144 58.1249C96.1265 58.1205 96.1967 58.059 96.144 58.1249L96.1089 58.1688L96.0562 58.2259C96.0305 58.253 96.0026 58.278 95.9728 58.3005C95.9728 58.3005 96.0343 58.2566 95.9728 58.2786L95.9157 58.3181L95.8322 58.3664L95.7796 58.3883C95.74 58.4103 95.8147 58.3883 95.8147 58.3883C95.8147 58.3883 95.639 58.441 95.5995 58.4498C95.56 58.4586 95.5468 58.4498 95.5468 58.4498C95.5468 58.4498 95.6302 58.4498 95.5863 58.4498H95.4853C95.4107 58.4542 95.336 58.4542 95.2614 58.4498C95.1867 58.4498 95.3448 58.4498 95.2614 58.4498H95.1604C95.086 58.4304 95.0127 58.4069 94.9408 58.3796C94.8749 58.3576 95.0111 58.4147 94.9188 58.3796L94.831 58.3356C94.7651 58.3005 94.7081 58.2566 94.6466 58.2171C94.5851 58.1776 94.7037 58.2698 94.6466 58.2171L94.5939 58.1732L94.5104 58.0941L94.4314 58.0063C94.3831 57.9492 94.4314 58.0063 94.4314 58.0063C94.4314 58.0063 94.4007 57.9624 94.3875 57.9492L94.3304 57.8526L94.3041 57.7999V57.7736C94.3041 57.7472 94.3041 57.7736 94.3041 57.8087C94.2645 57.7867 94.2514 57.6242 94.2382 57.5847C94.225 57.5452 94.2382 57.6067 94.2382 57.6111C94.2358 57.5921 94.2358 57.5729 94.2382 57.554C94.236 57.5116 94.236 57.4691 94.2382 57.4266C94.2382 57.33 94.2162 57.4925 94.2382 57.4003C94.2464 57.3603 94.2566 57.3207 94.2689 57.2817C94.2701 57.27 94.2701 57.2583 94.2689 57.2466C94.2689 57.1983 94.225 57.3212 94.2689 57.2466C94.2905 57.219 94.3096 57.1896 94.326 57.1588C94.3268 57.1441 94.3268 57.1295 94.326 57.1148C94.3568 57.0578 94.2865 57.1544 94.326 57.1148C94.3655 57.0753 94.3787 57.0534 94.4051 57.027C94.5939 56.8294 94.4709 56.421 94.1635 56.4474C94.0366 56.4521 93.9129 56.4888 93.8039 56.5541C93.6949 56.6193 93.6041 56.711 93.54 56.8206C93.4338 57.0065 93.3778 57.2169 93.3775 57.431C93.3747 57.8547 93.5315 58.2639 93.8166 58.5772C94.0818 58.8673 94.4247 59.0753 94.8045 59.1765C95.1843 59.2777 95.5852 59.2678 95.9596 59.1481C96.3397 59.0205 96.6548 58.7494 96.8379 58.3927C96.9995 58.0398 97.0456 57.6448 96.9696 57.2642C96.9157 56.891 96.7313 56.549 96.4491 56.299C96.1669 56.0489 95.8052 55.907 95.4282 55.8984C95.2006 55.9046 94.9765 55.9561 94.769 56.0499C94.5616 56.1438 94.3749 56.278 94.2199 56.4448C94.0649 56.6117 93.9448 56.8077 93.8665 57.0216C93.7882 57.2354 93.7533 57.4627 93.7639 57.6901C93.765 57.7729 93.7981 57.852 93.8562 57.9109C93.9143 57.9699 93.993 58.004 94.0757 58.0063C94.117 58.0063 94.1579 57.9981 94.196 57.9822C94.2342 57.9662 94.2687 57.9428 94.2977 57.9134C94.3267 57.884 94.3496 57.8491 94.365 57.8108C94.3804 57.7724 94.3881 57.7314 94.3875 57.6901L94.528 57.6989Z" fill="#8496B6"/>
<path d="M88.398 58.2219C88.3453 58.156 88.398 58.0199 88.3541 58.0155C88.3761 58.0155 88.3278 58.0155 88.3541 58.0155C88.3805 58.0155 88.2707 58.0155 88.2048 58.0155C88.025 58.0082 87.8452 58.032 87.6735 58.0857C87.5706 58.1252 87.4779 58.187 87.4019 58.2668C87.326 58.3465 87.2687 58.4422 87.2343 58.5468C87.1882 58.7714 87.1882 59.003 87.2343 59.2275C87.3058 60.1612 87.2422 61.1004 87.0455 62.016L87.9238 62.2619C87.9395 62.1543 87.9469 62.0457 87.9457 61.937L87.8886 62.1565L87.9589 62.0467C87.9979 61.9785 88.0194 61.9017 88.0217 61.8232C88.0239 61.7446 88.0068 61.6667 87.9718 61.5964C87.9368 61.526 87.885 61.4653 87.821 61.4197C87.757 61.3741 87.6828 61.3449 87.6049 61.3348C87.527 61.3247 87.4478 61.3339 87.3742 61.3616C87.3007 61.3894 87.2351 61.4348 87.1833 61.4939C87.1315 61.5529 87.095 61.6239 87.0771 61.7004C87.0592 61.7769 87.0604 61.8566 87.0806 61.9326V62.0511V61.8228C87.0493 61.8845 87.0243 61.9493 87.006 62.016C86.8742 62.5957 87.7613 62.846 87.8842 62.2619C88.126 61.2157 88.1825 60.1351 88.0511 59.0694C88.0511 59.0299 88.0116 58.7752 88.0116 58.7752C87.9944 58.8016 87.9797 58.8295 87.9677 58.8586H88.0599C88.2429 58.8488 88.4235 58.8118 88.5956 58.7488C88.9645 58.5644 89.2675 58.033 88.8811 57.7037C88.8147 57.6379 88.7249 57.6012 88.6314 57.6016C88.5379 57.602 88.4485 57.6395 88.3827 57.7059C88.3169 57.7723 88.2801 57.8621 88.2805 57.9556C88.2809 58.049 88.3185 58.1385 88.3849 58.2043L88.398 58.2219Z" fill="#8496B6"/>
<path d="M87.388 62.0187C86.0705 62.2382 84.7531 62.6554 83.4357 62.9277C82.3828 63.1448 81.3133 63.2726 80.2388 63.3097C78.7099 63.402 77.1806 63.1359 75.7728 62.5324C74.771 62.0728 73.9583 61.2819 73.4717 60.2929C73.0135 59.2861 72.3227 58.4026 71.4561 57.7151C70.5516 57.0956 69.562 56.6104 68.5183 56.2748C67.2882 55.7835 66.0301 55.3656 64.7505 55.0232C63.701 54.7817 62.7041 55.1067 62.2474 56.1342C62.005 56.8255 61.9759 57.5736 62.164 58.2816C62.2738 58.9974 62.4143 59.7132 62.5592 60.4246C63.5253 65.1629 64.4563 69.9055 65.4048 74.6482C65.6976 76.112 65.9903 77.5904 66.2831 79.0835C66.5641 80.5282 66.6739 82.0652 67.1087 83.4748C67.4073 84.4321 68.2065 85.328 69.3043 84.9328C69.5233 84.8626 69.7247 84.7467 69.8954 84.5927C70.0661 84.4387 70.2021 84.2502 70.2943 84.0396C70.3865 83.829 70.4328 83.6012 70.4302 83.3713C70.4276 83.1415 70.3762 82.9148 70.2792 82.7063C70.2327 82.6301 70.1604 82.5731 70.0755 82.5456C69.9905 82.5181 69.8985 82.5219 69.8162 82.5565C69.7338 82.591 69.6666 82.6539 69.6267 82.7338C69.5867 82.8136 69.5768 82.9052 69.5986 82.9918C69.6461 83.1819 69.6286 83.3824 69.5491 83.5614C69.4695 83.7404 69.3323 83.8877 69.1594 83.9798C68.7203 84.2521 68.3339 83.9359 68.1406 83.5144C67.9639 83.0327 67.8387 82.5337 67.7674 82.0257C67.6312 81.3758 67.5039 80.7083 67.3282 80.0671C66.7486 77.7178 66.3446 75.3113 65.8703 72.94C65.0184 68.6716 64.1884 64.4032 63.3497 60.1348C63.2135 59.4629 63.0906 58.791 62.9852 58.1147C62.8798 57.4385 62.7437 56.67 63.2662 56.1167C63.7317 55.6336 64.4124 55.8312 64.9701 56.0069C65.5278 56.1825 66.1294 56.3977 66.7266 56.5909C67.8105 56.9168 68.87 57.3189 69.8972 57.7942C70.8375 58.2269 71.6377 58.9145 72.207 59.7791C72.5622 60.4946 72.9672 61.1843 73.419 61.843C74.055 62.5784 74.8682 63.1392 75.7816 63.4722C77.2809 64.0195 78.8804 64.2382 80.4716 64.1133C82.8385 63.9904 85.4645 63.5073 87.5285 62.3217C87.6997 62.2251 87.5768 61.9967 87.4055 62.0274L87.388 62.0187Z" fill="#8496B6"/>
<path d="M65.0187 58.4581C65.774 62.6255 66.5645 66.8017 67.4471 70.9208C67.8863 72.9891 68.3254 75.0575 68.7646 77.1258C69.1817 79.1283 69.8097 81.2098 69.5374 83.2737C69.4803 83.7128 70.262 83.8226 70.3235 83.3791C70.6045 81.3371 70.0644 79.3215 69.6648 77.3322C69.2256 75.2199 68.8216 73.1121 68.4001 70.9998C67.5569 66.7446 66.6435 62.5113 65.6511 58.2649C65.5589 57.8477 64.9441 58.0278 65.0187 58.4362V58.4581Z" fill="#8496B6"/>
<path d="M64.9922 59.0422C65.9019 59.0273 66.7982 59.2628 67.5831 59.7229C68.3347 60.2039 68.9998 60.8081 69.5505 61.5102C70.6703 62.8759 71.5837 64.426 73.0065 65.5151C75.7247 67.6054 79.3432 67.8908 82.6016 67.2716C84.9202 66.8106 87.2828 66.6569 89.6278 66.3319C90.3479 66.2309 90.0406 65.1418 89.3248 65.2428C87.3047 65.5195 85.2671 65.682 83.2515 66.0508C82.2441 66.2768 81.2253 66.4483 80.1995 66.5646C79.3016 66.6285 78.3993 66.5843 77.512 66.4329C75.9745 66.1799 74.5233 65.5509 73.2875 64.6017C71.8559 63.4468 70.9469 61.8088 69.6954 60.4826C68.5361 59.253 66.7049 57.9444 64.9176 58.4362C64.8472 58.4601 64.7873 58.5076 64.7481 58.5708C64.709 58.6339 64.6929 58.7087 64.7028 58.7823C64.7126 58.856 64.7478 58.9239 64.8022 58.9745C64.8566 59.0251 64.9269 59.0553 65.001 59.0598L64.9922 59.0422Z" fill="#8496B6"/>
<path d="M68.2111 60.0517C70.1389 67.6619 71.7637 75.3512 73.2831 83.0537C73.4939 84.1076 73.6959 85.1571 73.9023 86.211C74.1087 87.265 74.4863 88.4989 74.4688 89.6056C74.4688 90.2511 75.5183 90.0447 75.2944 89.4958C75.0118 88.5866 74.8148 87.6531 74.7059 86.7073C74.5303 85.7587 74.359 84.8058 74.1789 83.8529C73.8101 81.8826 73.4353 79.9124 73.0548 77.9421C72.2907 74.0162 71.4344 70.1079 70.5253 66.2172C70.0306 64.083 69.5036 61.9605 68.9444 59.8497C68.9106 59.7609 68.8449 59.6878 68.7601 59.6448C68.6753 59.6018 68.5776 59.592 68.4859 59.6172C68.3943 59.6425 68.3153 59.701 68.2645 59.7813C68.2137 59.8617 68.1946 59.9581 68.2111 60.0517Z" fill="#8496B6"/>
<path d="M62.2655 55.8624C62.1243 56.0336 61.9234 56.145 61.7034 56.1741C61.4139 56.2374 61.1205 56.2814 60.8251 56.3059L59.6922 56.4464L59.1476 56.5123C58.9201 56.5112 58.6951 56.5607 58.4889 56.6572C58.4258 56.6964 58.3753 56.753 58.3435 56.8202C58.3117 56.8874 58.3 56.9624 58.3097 57.0361C58.3195 57.1098 58.3502 57.1791 58.3984 57.2357C58.4465 57.2924 58.51 57.3339 58.5812 57.3554C58.8061 57.3956 59.0371 57.3851 59.2574 57.3247L59.9205 57.2369L61.2028 57.0612C61.8615 56.9734 62.5685 56.8636 62.9593 56.2532C63.2272 55.8141 62.5597 55.4408 62.2875 55.8624H62.2655Z" fill="#8496B6"/>
<path d="M58.7428 57.1312C58.9931 59.3005 59.4937 61.4259 59.9504 63.5558C60.429 65.7954 60.8989 68.0393 61.3776 70.2789C62.3437 74.824 63.3142 79.369 64.232 83.9273C64.4779 85.1569 64.7282 86.3908 64.9653 87.6248C65.0795 88.2308 65.198 88.8412 65.3122 89.4472C65.3816 90.0864 65.5005 90.7192 65.6679 91.3399C65.8304 91.801 66.5901 91.779 66.5682 91.2169C66.5128 90.6977 66.4159 90.1837 66.2783 89.68C66.1729 89.1398 66.0631 88.5997 65.9578 88.0595C65.7382 86.9661 65.5186 85.8639 65.3034 84.766C64.8585 82.5206 64.4105 80.2751 63.9597 78.0297C63.0507 73.4714 62.0802 68.9264 61.0833 64.3857C60.6118 61.9143 60.0109 59.4693 59.2829 57.0609C59.1907 56.7843 58.7032 56.8062 58.7428 57.1312Z" fill="#8496B6"/>
<path d="M90.9535 65.5376C90.8123 65.3999 90.6253 65.3193 90.4283 65.3112C90.2313 65.3031 90.0383 65.3681 89.8864 65.4937C89.4472 65.8362 89.5043 66.4334 89.5614 66.9296L89.68 68.0099C89.7755 68.39 89.8155 68.782 89.7985 69.1736C89.6931 69.6128 88.1737 69.5645 87.7565 69.6128C87.6353 69.6161 87.52 69.6657 87.4342 69.7515C87.3484 69.8373 87.2988 69.9526 87.2955 70.0739L87.3438 71.3913L87.8136 70.9214C87.1374 71.0092 86.4699 71.1366 85.7936 71.2288C85.7201 71.2299 85.6478 71.2476 85.5822 71.2806C85.5165 71.3136 85.4591 71.361 85.4144 71.4192C85.3696 71.4775 85.3386 71.5452 85.3236 71.6171C85.3087 71.6891 85.3102 71.7635 85.3281 71.8348C85.6619 73.543 85.9737 75.2557 86.2767 76.9683C86.423 77.7909 86.5694 78.6136 86.7158 79.4362C86.7641 79.7041 86.7992 79.9852 86.8651 80.2486C86.8807 80.3346 86.9057 80.4185 86.9398 80.4989C87.0012 80.6395 86.9046 80.6922 86.9749 80.4155C86.9679 80.5166 86.9962 80.617 87.0548 80.6997C87.1134 80.7823 87.1988 80.8422 87.2965 80.8691C87.3942 80.896 87.4982 80.8882 87.5909 80.8472C87.6835 80.8061 87.7591 80.7343 87.8049 80.6439C87.8619 80.4331 87.8049 80.5473 87.8049 80.6439C87.8092 80.5927 87.8092 80.5413 87.8049 80.4902C87.8049 80.4155 87.8049 80.3453 87.8049 80.275C87.7884 80.0127 87.7561 79.7517 87.7082 79.4933C87.5765 78.6502 87.414 77.8158 87.2691 76.9771C86.9441 75.1854 86.6236 73.3849 86.2459 71.6021L85.9122 72.1949C86.5885 72.0983 87.2559 71.9621 87.9278 71.8655C88.0251 71.8392 88.1113 71.7823 88.1738 71.7032C88.2362 71.6242 88.2716 71.5271 88.2747 71.4264L88.2089 70.109L87.7697 70.5745C88.4021 70.4954 89.0344 70.4164 89.6624 70.3198C89.862 70.308 90.0542 70.2405 90.2173 70.1248C90.3803 70.0091 90.5076 69.85 90.5846 69.6655C90.769 69.1692 90.5846 68.5501 90.5143 68.0494C90.4748 67.7245 90.4265 67.4039 90.387 67.079C90.3564 66.9178 90.3344 66.755 90.3211 66.5915C90.3211 66.5696 90.3211 66.0162 90.4353 66.1085C90.791 66.429 91.3135 65.9108 90.9666 65.5771L90.9535 65.5376Z" fill="#8496B6"/>
<path d="M102.253 65.3521C101.302 65.5405 100.37 65.8154 99.4689 66.1733C98.5205 66.4573 97.5515 66.6672 96.5706 66.8013C94.4716 67.1262 92.3286 67.5478 90.2032 67.6795C90.1455 67.6873 90.0899 67.7064 90.0396 67.7356C89.9893 67.7649 89.9453 67.8038 89.91 67.8501C89.8747 67.8964 89.8489 67.9491 89.8341 68.0054C89.8192 68.0616 89.8155 68.1203 89.8233 68.178C89.8311 68.2356 89.8502 68.2912 89.8794 68.3415C89.9087 68.3918 89.9476 68.4358 89.9939 68.4711C90.0401 68.5064 90.0929 68.5322 90.1492 68.5471C90.2054 68.5619 90.2641 68.5656 90.3217 68.5578C92.3769 68.1187 94.5067 67.9386 96.5838 67.6049C97.5629 67.4587 98.5301 67.2415 99.4777 66.955C100.435 66.6563 101.34 66.1777 102.35 66.0416C102.736 65.9889 102.648 65.3038 102.253 65.3477V65.3521Z" fill="#8496B6"/>
<path d="M106.614 80.3981C101.428 81.092 96.2546 81.9307 91.0904 82.7475L91.6876 83.0901L91.2836 81.5136C91.2487 81.3898 91.1664 81.2849 91.0546 81.2216C90.9427 81.1582 90.8104 81.1417 90.6864 81.1754C90.1394 81.4421 89.5383 81.5788 88.9298 81.575C88.4907 81.5267 87.9769 81.2589 87.933 80.7714C87.9286 80.7008 87.9088 80.6321 87.8749 80.5701C87.8411 80.508 87.794 80.4541 87.737 80.4122C87.6801 80.3704 87.6146 80.3415 87.5453 80.3277C87.476 80.3139 87.4044 80.3154 87.3358 80.3323C83.2738 81.1403 79.1678 81.7682 75.0927 82.528C74.7589 82.585 74.4164 82.6334 74.0871 82.7168C74.0036 82.7168 73.9246 82.7695 73.8411 82.7958H73.8104L73.7401 82.8266C73.8323 82.7914 73.806 82.8002 73.6699 82.8573C73.5992 82.9135 73.5344 82.9767 73.4767 83.0461C73.4315 83.1234 73.4077 83.2113 73.4077 83.3008C73.4077 83.3903 73.4315 83.4782 73.4767 83.5555C73.7577 84.144 74.6272 83.6302 74.3549 83.0505V83.5599C74.4032 83.4984 73.9773 83.9156 73.9553 83.7971C73.9553 83.8542 74.0563 83.7971 74.1046 83.7751H74.1837L74.4603 83.7312L75.3781 83.538C76.3574 83.3404 77.3367 83.1427 78.3159 82.9627C80.6477 82.5236 82.9839 82.1283 85.3158 81.7024C86.0755 81.5619 86.8396 81.4257 87.5949 81.2632L86.9976 80.8241C87.0292 81.1815 87.1615 81.5227 87.3791 81.8079C87.5968 82.0932 87.8908 82.3109 88.2272 82.4357C89.1318 82.8046 90.0979 82.4884 90.963 82.1635L90.3658 81.8253L90.7654 83.3975C90.8032 83.5204 90.8865 83.6244 90.9983 83.688C91.1101 83.7517 91.242 83.7703 91.367 83.74C96.4874 82.9188 101.625 82.1196 106.737 81.1754C107.141 81.1008 107.053 80.3981 106.64 80.4508L106.614 80.3981Z" fill="#8496B6"/>
<path d="M87.5066 59.2134C87.0653 59.145 86.614 59.1811 86.1892 59.3188C85.75 59.4022 85.3109 59.4856 84.8454 59.5603L82.8649 59.8897L80.6692 60.2541L78.5394 60.6142L76.6687 60.9348L75.3864 61.1588C74.8573 61.1951 74.3334 61.2864 73.8231 61.431C73.732 61.4616 73.6544 61.523 73.6036 61.6046C73.5529 61.6863 73.5323 61.783 73.5453 61.8783C73.5583 61.9735 73.6042 62.0612 73.6749 62.1263C73.7457 62.1913 73.8369 62.2297 73.9329 62.2346C74.437 62.1918 74.9357 62.0992 75.4216 61.958L76.739 61.7077L78.6536 61.3432L80.8493 60.9436C81.5958 60.8074 82.3336 60.6625 83.0757 60.5044C83.73 60.3771 84.3931 60.2541 85.0386 60.1224C85.4778 60.0302 85.9169 59.9555 86.3824 59.8721C86.8228 59.8502 87.251 59.7205 87.6295 59.4944C87.7437 59.4066 87.6647 59.2309 87.5505 59.1958L87.5066 59.2134Z" fill="#8496B6"/>
<path d="M128.755 82.589C125.83 82.9535 122.923 83.6078 120.029 84.1435C117.135 84.6793 114.294 85.237 111.427 85.7903C105.621 86.9057 99.8071 87.9552 94.0017 89.0838L89.0614 90.0455L86.6989 90.4846C85.8342 90.6182 84.979 90.8074 84.1387 91.0511C83.6513 91.2136 83.6996 92.026 84.2661 91.9909C85.727 91.8343 87.1762 91.5835 88.6047 91.2399L92.9961 90.3924C95.8593 89.8435 98.7268 89.2902 101.586 88.7149C107.378 87.5468 113.183 86.4578 118.98 85.3028L123.911 84.3148C125.554 83.981 127.214 83.6956 128.83 83.2696C129.207 83.1686 129.146 82.5187 128.737 82.567L128.755 82.589Z" fill="#8496B6"/>
<path d="M128.118 78.9138C119.164 80.3146 110.302 82.3127 101.396 83.9946C97.4746 84.7367 93.54 85.413 89.6229 86.1903C85.4979 86.9895 81.3862 87.7931 77.2876 88.6011C72.0179 89.6462 66.7483 90.6694 61.4787 91.719C60.4906 91.9166 60.9122 93.4184 61.9178 93.2296C70.8235 91.5345 79.7204 89.8014 88.6085 88.0302C96.6227 86.4274 104.611 84.7191 112.634 83.1426C117.903 82.1107 123.195 81.1358 128.442 79.915C129.106 79.7613 128.811 78.8128 128.166 78.9138H128.118Z" fill="#8496B6"/>
<path d="M128.847 82.7562C128.266 80.5105 127.895 78.2156 127.74 75.9012C127.739 75.8565 127.729 75.8124 127.709 75.7724C127.688 75.7323 127.66 75.6973 127.624 75.6699C127.589 75.6425 127.548 75.6234 127.504 75.614C127.46 75.6047 127.415 75.6053 127.371 75.6158C126.967 75.7036 126.559 75.7871 126.155 75.8661C125.861 75.9276 125.5 75.9715 125.382 76.3053C125.206 76.7751 125.94 77.2187 126.15 76.7444C126.179 76.6783 126.183 76.6039 126.16 76.5353C126.138 76.4668 126.091 76.4089 126.029 76.3726C125.967 76.3363 125.893 76.3241 125.822 76.3384C125.752 76.3527 125.689 76.3925 125.645 76.4502L125.615 76.4897L125.795 76.3536L125.97 76.3931L126.005 76.6434C125.984 76.7224 126.137 76.6434 126.207 76.6083L126.669 76.4677L127.525 76.2174L127.156 75.9364C127.382 78.2938 127.778 80.6317 128.342 82.9318C128.366 82.9925 128.411 83.0422 128.469 83.0713C128.528 83.1004 128.595 83.1069 128.658 83.0894C128.72 83.0719 128.775 83.0318 128.809 82.9767C128.844 82.9216 128.858 82.8556 128.847 82.7913V82.7562Z" fill="#8496B6"/>
<path d="M126.37 25.6993C128.221 33.8496 129.935 42.0293 131.513 50.2382C133.091 58.4471 134.554 66.7087 135.904 75.023C136.273 77.3387 136.631 79.6515 136.98 81.9614C137.151 83.1031 137.327 84.2405 137.485 85.3822C137.706 86.6077 137.852 87.8454 137.924 89.0885C137.924 89.2574 137.991 89.4194 138.111 89.5388C138.23 89.6582 138.392 89.7253 138.561 89.7253C138.73 89.7253 138.892 89.6582 139.011 89.5388C139.13 89.4194 139.198 89.2574 139.198 89.0885C139.198 88.4211 139.145 87.7711 139.101 87.0861C139.089 86.9473 139.025 86.8181 138.922 86.7241C138.819 86.63 138.685 86.5778 138.545 86.5778C138.406 86.5778 138.272 86.63 138.169 86.7241C138.066 86.8181 138.002 86.9473 137.99 87.0861C137.959 87.7536 137.928 88.4035 137.924 89.0885L139.176 88.9217C138.946 87.9071 138.772 86.881 138.653 85.8477C138.499 84.8114 138.354 83.7794 138.214 82.743C137.921 80.641 137.608 78.539 137.274 76.437C136.639 72.3092 135.965 68.1857 135.254 64.0666C133.831 55.7962 132.255 47.5551 130.525 39.3432C129.538 34.6913 128.506 30.0511 127.429 25.4226C127.275 24.7507 126.252 25.0362 126.401 25.7037L126.37 25.6993Z" fill="#8496B6"/>
<path d="M127.288 25.7109C115.8 26.9098 104.378 28.8332 93.0351 31.0947C87.4024 32.2189 81.7917 33.45 76.203 34.7879C70.9597 36.0394 65.7647 37.4622 60.5215 38.7006C57.6012 39.39 54.659 40.018 51.6904 40.4571C50.2149 40.6767 48.7307 40.8523 47.242 40.9709C45.7533 41.0895 44.3217 41.0236 42.8814 41.1993C42.7153 41.2036 42.5561 41.2663 42.4316 41.3763C42.3072 41.4863 42.2254 41.6366 42.2007 41.8009C42.1767 41.9657 42.2139 42.1336 42.3054 42.2728C42.3968 42.412 42.5361 42.5128 42.6969 42.5562C43.9824 42.7128 45.2811 42.729 46.5701 42.6045C47.8875 42.5254 49.2049 42.4025 50.5223 42.2268C53.1572 41.8843 55.792 41.3969 58.3917 40.8304C63.6613 39.6755 68.8738 38.2219 74.1171 36.9396C85.3853 34.1819 96.7502 31.8852 108.185 29.953C114.583 28.8727 121.008 27.9637 127.433 27.0503C128.184 26.9449 128.017 25.6363 127.253 25.7329L127.288 25.7109Z" fill="#8496B6"/>
<path d="M43.6942 41.376C42.4075 41.2575 41.1252 41.1126 39.8386 40.9852C39.3994 40.9413 39.1316 41.4243 39.2018 41.8196C40.7256 49.9875 42.3856 58.1291 43.8874 66.3014C45.3892 74.4737 46.8603 82.7163 48.2788 90.9413C48.6681 93.2248 49.0516 95.5127 49.4293 97.805C49.6181 98.9555 49.8684 100.106 50.0002 101.261C50.1319 102.416 50.3032 103.615 50.5447 104.774C50.7072 105.556 52.0465 105.398 51.9587 104.581C51.7391 102.499 51.3176 100.44 50.997 98.3671C50.6764 96.2944 50.3515 94.2831 50.0265 92.2411C49.3473 88.1279 48.652 84.022 47.9406 79.9234C46.5061 71.7057 44.9794 63.5085 43.3604 55.3318C42.447 50.7077 41.5205 46.1099 40.4753 41.4902L39.8386 42.3246C41.1252 42.4036 42.4119 42.4651 43.6942 42.5485C44.4407 42.6012 44.4275 41.4639 43.6942 41.398V41.376Z" fill="#8496B6"/>
<path d="M138.406 89.4121C132.698 90.3738 127.015 91.5068 121.32 92.5431C115.624 93.5795 109.863 94.6554 104.128 95.683C92.7363 97.7323 81.3422 99.7655 69.9452 101.783L60.2842 103.5C58.7121 103.775 57.14 104.057 55.5679 104.347L53.2141 104.786C52.8775 104.884 52.5284 104.933 52.1777 104.931C52.1143 104.911 52.0498 104.895 51.9845 104.883C51.9252 104.877 51.8688 104.854 51.822 104.817C51.6844 104.723 51.7064 104.87 51.8879 105.256C51.9846 105.075 52.0074 104.864 51.9517 104.666C51.8959 104.468 51.7659 104.3 51.5889 104.196C51.4118 104.092 51.2014 104.061 51.0018 104.109C50.8021 104.157 50.6287 104.28 50.5178 104.452C49.8284 105.581 51.0272 106.429 52.0372 106.547C52.6515 106.562 53.265 106.491 53.8596 106.336L56.2222 105.928C59.1907 105.413 62.1593 104.89 65.1279 104.36L83.0666 101.19C94.9613 99.0819 106.847 96.9038 118.724 94.6554C125.404 93.3775 132.07 92.0425 138.714 90.5846C139.465 90.4177 139.153 89.3199 138.398 89.4428L138.406 89.4121Z" fill="#8496B6"/>
<path d="M49.1828 49.087C58.3432 47.1167 67.4948 45.1187 76.6376 43.0928L80.48 42.2365C81.7974 41.9466 83.1456 41.7446 84.4322 41.3582C85.5037 41.0552 85.3456 39.2328 84.16 39.3469C83.8789 39.3733 83.5979 39.4128 83.3168 39.4567C82.4122 39.6104 82.4386 41.0771 83.3168 41.2572C83.5101 41.2967 83.6945 41.3318 83.8877 41.3582V39.3821C82.746 39.5709 81.613 39.9134 80.48 40.1681L77.0679 40.9322L70.1472 42.5087C65.5977 43.5275 61.057 44.5814 56.512 45.6222C53.9211 46.215 51.3346 46.8386 48.7437 47.4402C47.6722 47.6905 48.1289 49.3153 49.1828 49.087Z" fill="#8496B6"/>
<path d="M49.8333 53.1358C52.411 52.6528 54.9887 52.1653 57.5621 51.6559L61.3123 50.9182C61.9534 50.7908 62.6034 50.6723 63.2533 50.5756C63.9032 50.479 64.6673 50.5756 65.3348 50.3473L63.9603 49.7852C64.6146 51.331 67.0342 50.3341 66.5951 48.7488C66.156 47.1636 63.7319 47.5324 63.7802 49.188L64.9923 47.954C64.311 48.0678 63.6431 48.2502 62.9986 48.4985C62.375 48.6786 61.7207 48.7928 61.0839 48.9377C59.7665 49.2099 58.4491 49.4602 57.1317 49.7193C54.5233 50.2317 51.9192 50.7601 49.3195 51.3046C48.1075 51.5549 48.6257 53.3773 49.8289 53.149L49.8333 53.1358Z" fill="#8496B6"/>
<path d="M83.5367 100.641C72.0144 105.114 61.7119 112.246 53.4691 121.456H54.5582C48.662 114.626 42.7396 107.82 36.7907 101.036C33.9276 97.7517 31.0542 94.4655 28.1705 91.1779L23.5728 85.9083C21.9523 84.0551 19.9235 82.1668 18.6676 80.0458C17.9694 78.8645 16.2875 80.3488 17.2624 81.1261C19.0189 82.5357 20.4944 84.5733 21.9699 86.2771L26.5413 91.5468C29.4923 94.9603 32.4477 98.3695 35.4075 101.774C41.4148 108.698 47.4354 115.611 53.4691 122.515C53.6139 122.658 53.8096 122.739 54.0136 122.739C54.2177 122.739 54.4134 122.658 54.5582 122.515C62.5952 113.426 72.6157 106.308 83.8441 101.713C84.5116 101.44 84.2306 100.338 83.5367 100.611V100.641Z" fill="#8496B6"/>
<path d="M42.9782 59.4898C38.4947 62.9326 34.0067 66.3666 29.4748 69.7436C25.123 72.9844 20.4506 75.9705 16.3183 79.4836L17.8157 80.9811L18.2549 80.6341C19.3308 79.8042 17.7938 78.197 16.7355 79.1147L16.2963 79.4836C15.3917 80.2697 16.573 81.8066 17.5786 81.1479C22.1061 78.1838 26.2867 74.4775 30.5287 71.1181C34.9611 67.605 39.3758 64.0758 43.7731 60.5305C44.3571 60.0519 43.5623 59.0067 42.9563 59.4722L42.9782 59.4898Z" fill="#8496B6"/>
<path d="M29.3075 80.2258C32.8206 80.52 35.9692 81.8593 39.1705 83.2119C41.6033 84.2351 44.3831 85.6754 47.0486 85.8467C47.1735 85.8449 47.2943 85.8025 47.393 85.7259C47.4916 85.6493 47.5626 85.5428 47.5953 85.4223C47.6281 85.3018 47.6207 85.1739 47.5744 85.058C47.528 84.942 47.4452 84.8443 47.3385 84.7796C45.9771 84.156 44.506 83.8179 43.114 83.2558C41.3574 82.5576 39.6887 81.7364 37.9629 81.0118C35.1612 79.8349 32.3508 78.8952 29.3075 78.6229C28.2712 78.5307 28.2712 80.1599 29.3075 80.2433V80.2258Z" fill="#8496B6"/>
<path d="M40.5983 95.6446C40.1744 91.59 40.0526 87.5094 40.2338 83.4367C40.4226 79.3439 41.235 75.3697 41.6083 71.3033C41.6654 70.6886 40.73 70.6139 40.5675 71.1628C39.4214 74.9086 39.1535 79.1156 38.9603 83.0195C38.7596 87.2356 38.8843 91.4609 39.3336 95.6578C39.417 96.4614 40.6817 96.4702 40.5983 95.6578V95.6446Z" fill="#8496B6"/>
<path d="M120.723 94.6484C119.777 99.1363 118.81 103.62 117.82 108.099C116.885 112.306 115.523 116.596 115.062 120.882C114.979 121.646 116.086 121.682 116.318 121.054C117.825 116.948 118.466 112.359 119.414 108.095C120.377 103.756 121.313 99.4115 122.22 95.0612C122.427 94.0863 120.929 93.6691 120.723 94.6484Z" fill="#8496B6"/>
<path d="M115.857 120.292C108.901 118.097 101.945 115.866 95.0247 113.53C91.6668 112.394 88.3176 111.223 84.9773 110.017C83.291 109.406 81.6091 108.791 79.936 108.15C78.017 107.421 75.6808 106.833 73.9813 105.682C72.6902 104.804 71.711 107.338 73.1865 107.566C75.0528 107.856 76.9367 108.853 78.7064 109.503C80.4761 110.153 82.3293 110.82 84.1473 111.479C87.4789 112.691 90.8324 113.852 94.2079 114.961C101.26 117.311 108.357 119.533 115.458 121.75C116.384 122.04 116.775 120.587 115.857 120.292Z" fill="#8496B6"/>
<path d="M101.001 98.0683C103.587 103.272 106.596 108.608 110.592 112.872C110.687 112.97 110.815 113.03 110.952 113.04C111.089 113.05 111.225 113.01 111.333 112.926C111.442 112.842 111.516 112.722 111.541 112.587C111.566 112.452 111.541 112.313 111.47 112.195C108.291 107.264 104.953 102.565 102.318 97.291C101.879 96.4127 100.562 97.1856 101.001 98.0683Z" fill="#8496B6"/>
<path d="M112.915 98.3048C105.01 101.818 96.9126 104.365 88.6348 106.864C88.4019 106.927 88.2037 107.08 88.0839 107.29C87.9641 107.5 87.9324 107.748 87.9959 107.981C88.0594 108.214 88.2128 108.412 88.4224 108.532C88.632 108.652 88.8806 108.684 89.1135 108.62C97.5317 106.512 105.761 103.166 113.661 99.6046C114.539 99.2138 113.775 97.9447 112.915 98.3267V98.3048Z" fill="#8496B6"/>
<path d="M131.772 23.2747C133.037 31.5216 134.591 39.7423 136.19 47.9321C136.651 50.2815 137.178 52.6177 137.7 54.9583C137.806 55.4326 138.517 55.2306 138.425 54.7563C136.84 46.562 135.254 38.3678 133.731 30.1647C133.292 27.8109 132.852 25.4616 132.378 23.1385C132.295 22.7345 131.711 22.9146 131.772 23.3054V23.2747Z" fill="#8496B6"/>
<path d="M36.8877 109.208H36.8438L37.2127 109.358V109.494L36.8877 109.784H37.0019L36.7428 109.674C38.473 111.395 40.089 113.187 41.7007 115.009C43.3123 116.832 44.9766 118.566 47.0888 119.787C47.1937 119.845 47.3173 119.86 47.4326 119.827C47.5479 119.794 47.6454 119.716 47.7036 119.612C47.7619 119.507 47.7761 119.383 47.7431 119.268C47.7102 119.153 47.6328 119.055 47.528 118.997C45.4113 117.614 43.7163 115.703 42.0651 113.811C41.244 112.858 40.4008 111.9 39.5225 111C39.1067 110.57 38.6668 110.164 38.2051 109.784C37.8187 109.468 37.3269 108.941 36.8043 109.077C36.7311 109.099 36.6667 109.143 36.6202 109.204C36.5737 109.265 36.5475 109.338 36.5452 109.415C36.5371 109.482 36.5471 109.55 36.5741 109.611C36.6012 109.673 36.6442 109.727 36.6989 109.766C36.7503 109.816 36.8166 109.849 36.8878 109.858C36.959 109.867 37.0313 109.854 37.0941 109.819L37.1336 109.788C37.4147 109.595 37.2566 109.09 36.8877 109.204V109.208Z" fill="#8496B6"/>
<path d="M92.1791 54.3218C91.8987 54.012 91.5253 53.8017 91.115 53.7225C90.7048 53.6432 90.2799 53.6995 89.9043 53.8827C88.969 54.3218 88.745 55.3889 88.7977 56.3331C88.8328 56.9259 88.947 57.5187 89.0348 58.0896C89.1358 58.7659 89.2237 59.4509 89.3466 60.1228C89.5267 61.1328 90.0141 62.3185 91.1032 62.6478C91.7794 62.8455 92.5523 62.6259 93.2198 62.5029C93.6019 62.4283 93.9839 62.3492 94.3659 62.2614C94.7547 62.2201 95.1312 62.1006 95.4726 61.9101C95.5199 61.8792 95.5562 61.8342 95.5764 61.7815C95.5966 61.7287 95.5996 61.671 95.585 61.6164C95.5704 61.5619 95.5389 61.5133 95.495 61.4778C95.4512 61.4422 95.3972 61.4213 95.3408 61.4183C95.0013 61.4188 94.6642 61.4767 94.344 61.5895C93.9883 61.673 93.6326 61.7476 93.2725 61.8179C92.6621 61.9364 91.8936 62.1824 91.2744 62.0199C89.9834 61.6817 89.8868 59.9472 89.7199 58.8757C89.6145 58.1862 89.4959 57.4924 89.4037 56.7986C89.3028 56.272 89.3028 55.7311 89.4037 55.2045C89.4516 54.9455 89.5745 54.7063 89.7572 54.5165C89.9399 54.3268 90.1743 54.195 90.4313 54.1374C90.6905 54.0859 90.9587 54.1048 91.2082 54.1921C91.4576 54.2793 91.6791 54.4318 91.8497 54.6336C92.0297 54.8488 92.3328 54.5414 92.1571 54.3262L92.1791 54.3218Z" fill="#8496B6"/>
<path d="M90.3352 68.066C90.628 70.6657 90.9661 73.2595 91.3496 75.8475C91.5428 77.1269 91.7478 78.4033 91.9644 79.6768C92.0786 80.3487 92.1971 81.0249 92.3113 81.6968C92.364 82.0174 92.4123 82.3379 92.4738 82.6541C92.5293 82.87 92.615 83.077 92.7285 83.2689L92.6846 82.9264L92.6582 82.9967L93.1984 82.6893H93.1413L93.4531 83.001L93.4311 82.9396L93.2203 83.4577L93.2598 83.4314C93.3167 83.3935 93.3645 83.3434 93.3996 83.2848C93.4348 83.2261 93.4565 83.1604 93.4631 83.0924C93.4697 83.0243 93.4611 82.9557 93.438 82.8914C93.4148 82.8271 93.3776 82.7687 93.3291 82.7205C93.2806 82.6724 93.222 82.6356 93.1575 82.6128C93.093 82.5901 93.0243 82.582 92.9563 82.5891C92.8883 82.5962 92.8228 82.6183 92.7644 82.6539C92.706 82.6894 92.6562 82.7375 92.6187 82.7946L92.5924 82.8298C92.5538 82.8965 92.5335 82.9723 92.5335 83.0493C92.5335 83.1264 92.5538 83.2022 92.5924 83.2689C92.6413 83.3546 92.7123 83.4255 92.7981 83.4741C92.8839 83.5228 92.9812 83.5475 93.0798 83.5456C93.1789 83.549 93.2763 83.5187 93.356 83.4597C93.4358 83.4007 93.4932 83.3164 93.5189 83.2206C93.5524 83.131 93.5634 83.0345 93.5512 82.9396C93.539 82.8448 93.5038 82.7543 93.4487 82.6761C93.3252 82.4189 93.2395 82.1453 93.194 81.8637C93.0666 81.2313 92.9481 80.5946 92.8339 79.9578C92.5909 78.6199 92.3611 77.2762 92.1444 75.9266C91.7053 73.2917 91.3233 70.6086 90.95 67.9475C90.9061 67.6093 90.3176 67.684 90.3528 68.0265L90.3352 68.066Z" fill="#8496B6"/>
<path d="M87.788 70.5923C88.0339 72.6065 88.2857 74.6236 88.5433 76.6436C88.7848 78.5319 88.8902 80.5212 89.5138 82.3523C89.6543 82.7651 90.3174 82.5763 90.1593 82.1767V82.1196C90.1301 82.0416 90.0729 81.9773 89.9987 81.9393C89.9245 81.9014 89.8389 81.8926 89.7585 81.9146C89.6782 81.9366 89.609 81.9879 89.5645 82.0583C89.52 82.1287 89.5035 82.2133 89.5182 82.2953V82.3523L90.1637 82.1767C89.5226 80.3631 89.3996 78.3694 89.1317 76.4679C88.839 74.4918 88.5462 72.5157 88.2535 70.5396C88.2139 70.2717 87.7397 70.3332 87.7748 70.6055L87.788 70.5923Z" fill="#8496B6"/>
<path d="M86.303 73.6437C85.8639 73.2045 85.2886 73.3319 84.7572 73.49C83.7576 73.8046 82.727 74.0107 81.6833 74.1048C80.805 74.1706 79.4042 74.3551 78.7586 73.6349C78.0165 72.8049 79.1231 72.3175 79.6764 71.8784C79.8974 71.7257 80.0781 71.5216 80.2029 71.2838C80.3277 71.0459 80.3929 70.7813 80.3929 70.5127C80.3929 70.244 80.3277 69.9794 80.2029 69.7415C80.0781 69.5037 79.8974 69.2996 79.6764 69.1469C78.2624 68.0447 76.4532 69.1469 75.0567 69.6651C74.2268 69.9725 73.2036 70.1043 72.3956 69.6651C72.0188 69.4194 71.7154 69.0765 71.5173 68.6727C71.4323 68.5301 71.3353 68.3949 71.2275 68.2687C71.1133 68.1457 70.9069 68.0535 70.8366 67.9042L70.7971 68.2204L70.8454 68.1721L70.5951 68.2379H70.6654L70.4809 67.9964V68.0667C70.4809 68.3302 70.9201 68.418 70.964 68.1325V68.0842C70.9792 68.0203 70.9695 67.9529 70.9368 67.8959C70.9042 67.8388 70.8511 67.7962 70.7883 67.7768C70.7366 67.7525 70.6791 67.7433 70.6223 67.7503C70.5656 67.7573 70.512 67.7802 70.4677 67.8164C70.4104 67.8542 70.3692 67.9121 70.3522 67.9786C70.3351 68.0452 70.3434 68.1157 70.3755 68.1765C70.4985 68.4663 70.8366 68.6156 71.0123 68.8878C71.1672 69.2002 71.3557 69.4946 71.5744 69.7661C72.0154 70.2027 72.5978 70.4675 73.2167 70.5127C74.9996 70.7015 76.3566 69.3226 78.078 69.2523C78.9299 69.2172 80.1112 69.8232 79.8345 70.864C79.6545 71.5183 78.8201 71.7422 78.381 72.1814C78.1933 72.3521 78.063 72.5766 78.008 72.8243C77.9529 73.0719 77.9759 73.3305 78.0736 73.5646C78.2287 73.8676 78.461 74.1241 78.7471 74.3084C79.0332 74.4927 79.3628 74.5982 79.7028 74.6142C80.7179 74.7212 81.7433 74.6783 82.746 74.4868C83.2944 74.4015 83.8359 74.2768 84.3664 74.1136C84.8319 73.9686 85.5828 73.5515 86.0439 73.9116C86.2152 74.0433 86.4391 73.8369 86.2854 73.67L86.303 73.6437Z" fill="#8496B6"/>
<path d="M62.568 75.9935C59.4941 76.3316 56.4684 76.7269 53.4252 77.1265C51.8883 77.3241 50.3513 77.5041 48.8143 77.7061C48.2434 77.7808 47.6769 77.9081 47.1061 77.9916C46.8214 78.0309 46.5493 78.1339 46.3098 78.2927C46.0703 78.4516 45.8697 78.6624 45.7228 78.9094C45.6592 79.0212 45.626 79.1478 45.6265 79.2765C45.6269 79.4051 45.661 79.5315 45.7254 79.6429C45.7898 79.7543 45.8822 79.847 45.9934 79.9116C46.1046 79.9763 46.2309 80.0108 46.3595 80.0116C46.7309 80.0006 47.1009 79.9609 47.4662 79.893C47.6193 79.8517 47.7518 79.7554 47.8385 79.6226C47.9251 79.4897 47.9599 79.3296 47.936 79.1728C47.9141 79.0175 47.8375 78.8752 47.72 78.7713C47.6024 78.6675 47.4517 78.609 47.2949 78.6064C46.9852 78.5618 46.6724 78.5413 46.3595 78.5449L46.9919 79.6471C47.5672 78.5976 48.8494 78.6283 49.899 78.4702C51.3262 78.2594 52.749 78.0311 54.1805 77.8774C56.9734 77.5378 59.7693 77.226 62.568 76.942C63.1697 76.8806 63.1697 75.9276 62.568 75.9935Z" fill="#8496B6"/>
<path d="M125.124 67.1874C126.41 66.2257 128 66.1027 129.55 65.971C131.166 65.8304 132.734 65.6504 134.196 64.8907C134.886 64.5306 134.249 63.4284 133.581 63.8412C132.216 64.6931 130.507 64.7194 128.944 64.8643C127.381 65.0093 125.778 65.3254 124.469 66.3398C123.995 66.7131 124.632 67.5519 125.124 67.1874Z" fill="#8496B6"/>
</svg>
