<svg width="30" height="20" viewBox="0 0 30 20" fill="none" xmlns="http://www.w3.org/2000/svg">
<g clip-path="url(#clip0)">
<path d="M0 0H30V20H0V0Z" fill="#FF4B55"/>
<path d="M29.4827 19.9836H0.517266C0.231621 19.9836 0 19.7483 0 19.4582C0 19.168 0 0.0163437 0 0.0163437C0.146484 0.0162441 0.231621 0.0164289 0.517266 0.0164289H29.4828C29.7684 0.0164289 30.0001 0.251726 30.0001 0.541905V19.4582C30 19.7484 29.7684 19.9836 29.4827 19.9836Z" fill="#FF4B55"/>
<path d="M4.97925 3.13796L5.47237 4.63999L7.03097 4.65225C7.23276 4.6538 7.31643 4.91546 7.15407 5.03719L5.90028 5.97773L6.37038 7.48737C6.4312 7.68285 6.21218 7.84446 6.048 7.72529L4.78003 6.80451L3.51206 7.72523C3.34788 7.84446 3.12886 7.68273 3.18968 7.48731L3.65978 5.97767L2.40599 5.03719C2.24362 4.9154 2.32729 4.6538 2.52909 4.65225L4.08769 4.63999L4.58081 3.13796C4.64468 2.94343 4.91544 2.94343 4.97925 3.13796Z" fill="#FFE15A"/>
<path d="M10.6386 3.51017L10.9922 4.00005L11.5629 3.81874C11.6368 3.79528 11.6975 3.88088 11.6523 3.94463L11.3029 4.43754L11.649 4.93284C11.6938 4.99695 11.6325 5.08212 11.5588 5.05814L10.9893 4.87296L10.6325 5.3604C10.5863 5.42349 10.4876 5.39051 10.4873 5.31194L10.4847 4.70451L9.91808 4.5104C9.84478 4.48522 9.84507 4.37975 9.91861 4.3551L10.4864 4.16487L10.4931 3.55749C10.4939 3.47898 10.5928 3.44677 10.6386 3.51017Z" fill="#FFE15A"/>
<path d="M8.48793 2.04919L9.08236 2.11478L9.33596 1.56472C9.36883 1.49353 9.47196 1.50573 9.48778 1.5827L9.61 2.17722L10.2033 2.25222C10.2801 2.26192 10.3006 2.36538 10.2334 2.40448L9.71453 2.70627L9.82768 3.3027C9.84233 3.37996 9.7518 3.43162 9.69444 3.37883L9.25153 2.97079L8.72816 3.26436C8.66043 3.3024 8.58396 3.23085 8.61572 3.15912L8.86082 2.60508L8.42418 2.19008C8.3677 2.13663 8.411 2.04073 8.48793 2.04919Z" fill="#FFE15A"/>
<path d="M9.42764 7.93596L9.07403 8.42584L8.50339 8.24453C8.4295 8.22108 8.36874 8.30668 8.41397 8.37043L8.76331 8.86334L8.41726 9.35864C8.37243 9.42275 8.43378 9.50793 8.50749 9.48394L9.07696 9.29876L9.43374 9.7862C9.47991 9.8493 9.57864 9.81632 9.57893 9.73775L9.58157 9.13031L10.1482 8.9362C10.2215 8.91102 10.2212 8.80555 10.1476 8.7809L9.57987 8.59066L9.57319 7.98328C9.57225 7.90483 9.47341 7.87251 9.42764 7.93596Z" fill="#FFE15A"/>
<path d="M11.5793 6.56372L10.9849 6.62931L10.7313 6.07925C10.6984 6.00806 10.5953 6.02026 10.5795 6.09722L10.4572 6.69175L9.86389 6.76675C9.78707 6.77645 9.76663 6.87991 9.83383 6.91901L10.3527 7.2208L10.2395 7.81723C10.2249 7.8945 10.3154 7.94616 10.3728 7.89337L10.8157 7.48533L11.339 7.7789C11.4068 7.81694 11.4832 7.74539 11.4515 7.67366L11.2064 7.11961L11.643 6.70461C11.6997 6.65116 11.6564 6.55526 11.5793 6.56372Z" fill="#FFE15A"/>
</g>
<defs>
<clipPath id="clip0">
<rect width="30" height="20" fill="white"/>
</clipPath>
</defs>
</svg>
