<svg width="30" height="20" viewBox="0 0 30 20" fill="none" xmlns="http://www.w3.org/2000/svg">
<g clip-path="url(#clip0)">
<path d="M0 0H30V20.0002H0V0Z" fill="white"/>
<path d="M13.125 0H16.875V8.12496H30V11.875H16.875V19.9999H13.125V11.875H0V8.12496H13.125V0Z" fill="#D80027"/>
<path d="M6.92188 13.4785L-0.00481033 17.3267V13.4785H6.92188Z" fill="#0052B4"/>
<path d="M11.7383 13.4785L-0.000831604 20.0002V18.1561L8.41866 13.4785H11.7383Z" fill="#0052B4"/>
<path d="M3.12606 19.9998L11.7383 15.2148V19.9998H3.12606Z" fill="#0052B4"/>
<path d="M11.7383 13.4785L-0.000831604 20.0002V18.1561L8.41866 13.4785H11.7383Z" fill="#F0F0F0"/>
<path d="M11.7383 13.4785L-0.000831604 20.0002V18.1561L8.41866 13.4785H11.7383Z" fill="#D80027"/>
<path d="M24.7066 13.4785L30 16.4193V13.4785H24.7066Z" fill="#0052B4"/>
<path d="M18.2623 14.3086V20.001H28.5078L18.2623 14.3086Z" fill="#0052B4"/>
<path d="M21.5805 13.4785L30 18.1561V20.0002L18.2609 13.4785H21.5805Z" fill="#D80027"/>
<path d="M23.0733 6.52106L30 2.67285V6.52106H23.0733Z" fill="#0052B4"/>
<path d="M18.2609 6.52172L30 0V1.84418L21.5805 6.52172H18.2609Z" fill="#0052B4"/>
<path d="M26.874 0L18.2618 4.785V0H26.874Z" fill="#0052B4"/>
<path d="M18.2609 6.52172L30 0V1.84418L21.5805 6.52172H18.2609Z" fill="#F0F0F0"/>
<path d="M18.2609 6.52172L30 0V1.84418L21.5805 6.52172H18.2609Z" fill="#D80027"/>
<path d="M5.29297 6.52188L-0.000450134 3.58105V6.52188H5.29297Z" fill="#0052B4"/>
<path d="M11.7383 5.69243V0H1.49276L11.7383 5.69243Z" fill="#0052B4"/>
<path d="M8.41866 6.52172L-0.000831604 1.84418V0L11.7383 6.52172H8.41866Z" fill="#D80027"/>
</g>
<defs>
<clipPath id="clip0">
<rect width="30" height="20" fill="white" transform="matrix(-1 0 0 1 30 0)"/>
</clipPath>
</defs>
</svg>
