<svg width="31" height="20" viewBox="0 0 31 20" fill="none" xmlns="http://www.w3.org/2000/svg">
<g clip-path="url(#clip0)">
<rect width="30.4762" height="20" fill="#F5F5F5"/>
<path d="M29.9507 19.9836H0.525476C0.235298 19.9836 0 19.7483 0 19.4581V0.541894C0 0.251716 0.235298 0.0164185 0.525476 0.0164185H29.9508C30.241 0.0164185 30.4762 0.251716 30.4762 0.541894V19.4581C30.4762 19.7484 30.2409 19.9836 29.9507 19.9836Z" fill="#F5F5F5"/>
<path d="M18.1554 5.62692C15.7409 4.01734 12.4798 4.67537 10.8712 7.08561C10.0643 8.28865 10.3923 9.92335 11.5995 10.7282C12.8057 11.533 14.4352 11.2061 15.24 9.99888C16.0448 8.79168 17.6754 8.46888 18.8816 9.26948C20.0898 10.0743 20.4147 11.709 19.6088 12.912C21.2184 10.4978 20.5678 7.23656 18.1554 5.62692Z" fill="#FF4B55"/>
<path d="M10.871 7.08563C10.0641 8.28867 10.3921 9.92337 11.5993 10.7282C12.8055 11.533 14.435 11.2062 15.2398 9.99891C16.0446 8.7917 17.6752 8.46891 18.8813 9.2695C20.0896 10.0743 20.4145 11.709 19.6085 12.9121C18.001 15.3306 14.741 15.9805 12.3265 14.3708C9.91425 12.7613 9.26139 9.5001 10.871 7.08563Z" fill="#41479B"/>
<path d="M20.8263 3.64262L21.7807 5.07726C21.8609 5.1978 21.8285 5.36053 21.7082 5.44107L21.4661 5.60315C21.3454 5.68399 21.1819 5.65149 21.1013 5.53053L20.1457 4.09625C20.0653 3.97559 20.0979 3.81256 20.2185 3.73202L20.4617 3.56964C20.5825 3.48899 20.7458 3.52166 20.8263 3.64262Z" fill="#464655"/>
<path d="M22.3019 5.85317L23.2595 7.28691C23.3403 7.40799 23.3073 7.5718 23.1858 7.65203L22.9427 7.81269C22.8221 7.89245 22.6598 7.85965 22.5795 7.73947L21.6224 6.30721C21.5418 6.18662 21.5742 6.02346 21.6949 5.94281L21.9374 5.78066C22.058 5.70001 22.2212 5.73245 22.3019 5.85317Z" fill="#464655"/>
<path d="M21.8475 2.9608L24.2778 6.608C24.3583 6.72872 24.3256 6.89181 24.2049 6.97229L23.9607 7.13503C23.84 7.21556 23.6768 7.18288 23.5964 7.06217L21.1652 3.4152C21.0847 3.29443 21.1174 3.13122 21.2383 3.0508L21.4832 2.88776C21.604 2.80747 21.767 2.84008 21.8475 2.9608Z" fill="#464655"/>
<path d="M22.8694 2.27937L23.826 3.71681C23.9066 3.83788 23.8735 4.00133 23.7521 4.08151L23.5089 4.24222C23.3882 4.32198 23.2257 4.28919 23.1455 4.16877L22.1882 2.73323C22.1077 2.61252 22.1404 2.44937 22.2611 2.36889L22.5051 2.20627C22.6257 2.12573 22.7889 2.15841 22.8694 2.27937Z" fill="#464655"/>
<path d="M24.3416 4.49614L25.2967 5.93061C25.377 6.0512 25.3445 6.21406 25.2241 6.29459L24.9815 6.45674C24.8607 6.53751 24.6973 6.50489 24.6168 6.38394L23.6617 4.94947C23.5814 4.82888 23.6139 4.66602 23.7344 4.58548L23.9769 4.42334C24.0976 4.34257 24.2611 4.37513 24.3416 4.49614Z" fill="#464655"/>
<path d="M7.9005 12.2615L10.3305 15.9048C10.411 16.0254 10.3785 16.1885 10.2578 16.2691L10.0144 16.4316C9.89372 16.5122 9.73056 16.4796 9.64997 16.3588L7.21997 12.7156C7.13949 12.5949 7.17199 12.4318 7.2927 12.3513L7.53604 12.1888C7.65675 12.1082 7.81997 12.1408 7.9005 12.2615Z" fill="#464655"/>
<path d="M6.87685 12.9432L7.8309 14.3742C7.91131 14.4948 7.87887 14.6576 7.75846 14.7382L7.51643 14.9003C7.39578 14.981 7.23245 14.9486 7.15179 14.8278L6.19662 13.3972C6.11602 13.2765 6.14852 13.1134 6.26924 13.0328L6.51245 12.8704C6.6331 12.7898 6.79632 12.8224 6.87685 12.9432Z" fill="#464655"/>
<path d="M8.353 15.1551L9.30812 16.5898C9.38847 16.7103 9.35591 16.8733 9.23538 16.9537L8.99264 17.116C8.87187 17.1967 8.70859 17.1642 8.628 17.0433L7.67229 15.609C7.59187 15.4883 7.62449 15.3253 7.74502 15.2448L7.98836 15.0823C8.10919 15.0015 8.27246 15.0342 8.353 15.1551Z" fill="#464655"/>
<path d="M5.85897 13.624L8.28742 17.2675C8.36784 17.3881 8.33528 17.5511 8.21486 17.6317L7.97219 17.7939C7.85147 17.8746 7.6882 17.8421 7.6076 17.7213L5.17772 14.0783C5.09718 13.9576 5.12986 13.7944 5.25058 13.7139L5.49474 13.5512C5.61534 13.4707 5.77849 13.5033 5.85897 13.624Z" fill="#464655"/>
<path d="M7.21988 7.28873L9.64951 3.64248C9.73005 3.52164 9.89326 3.48903 10.014 3.56962L10.2573 3.73206C10.378 3.8126 10.4105 3.97569 10.33 4.09635L7.89946 7.74057C7.8191 7.86099 7.65654 7.89373 7.53589 7.81385L7.29357 7.65343C7.17226 7.57319 7.13928 7.40968 7.21988 7.28873Z" fill="#464655"/>
<path d="M6.19647 6.60778L8.62654 2.96081C8.70707 2.83997 8.87041 2.80736 8.99118 2.88807L9.23386 3.05033C9.35434 3.13087 9.38684 3.29372 9.30648 3.41438L6.87707 7.06153C6.79653 7.18236 6.63332 7.21504 6.51254 7.13438L6.26921 6.97194C6.14861 6.89147 6.11605 6.72843 6.19647 6.60778Z" fill="#464655"/>
<path d="M5.17683 5.9309L7.60713 2.2803C7.68767 2.15941 7.85106 2.12673 7.97183 2.20745L8.21451 2.36971C8.33499 2.45024 8.36749 2.61298 8.28725 2.73364L5.85844 6.38477C5.77802 6.50566 5.61475 6.5384 5.49397 6.45786L5.24981 6.29512C5.12915 6.21465 5.09653 6.05161 5.17683 5.9309Z" fill="#464655"/>
<path d="M20.1458 15.9049L21.101 14.4743C21.1817 14.3535 21.345 14.3211 21.4657 14.4018L21.7077 14.5639C21.8281 14.6445 21.8605 14.8074 21.7801 14.928L20.8261 16.3589C20.7455 16.4797 20.5823 16.5123 20.4616 16.4317L20.2184 16.2694C20.0977 16.1888 20.0652 16.0257 20.1458 15.9049Z" fill="#464655"/>
<path d="M21.6182 13.6995L22.575 12.2617C22.6554 12.1409 22.8187 12.1081 22.9394 12.1887L23.1832 12.3512C23.304 12.4317 23.3366 12.595 23.256 12.7157L22.2973 14.1512C22.2169 14.2716 22.0543 14.3042 21.9336 14.2242L21.6919 14.064C21.5707 13.9837 21.5378 13.8203 21.6182 13.6995Z" fill="#464655"/>
<path d="M21.1652 16.5886L22.121 15.1542C22.2015 15.0334 22.3646 15.0007 22.4854 15.0813L22.7297 15.2442C22.8503 15.3247 22.8829 15.4876 22.8026 15.6084L21.8474 17.0429C21.767 17.1637 21.604 17.1965 21.4831 17.116L21.2382 16.953C21.1175 16.8726 21.0847 16.7094 21.1652 16.5886Z" fill="#464655"/>
<path d="M22.6417 14.3729L23.598 12.9418C23.6786 12.8212 23.8416 12.7887 23.9623 12.8692L24.2064 13.0319C24.3272 13.1124 24.3598 13.2757 24.2791 13.3964L23.3229 14.8275C23.2423 14.948 23.0793 14.9805 22.9587 14.9001L22.7145 14.7374C22.5936 14.657 22.561 14.4936 22.6417 14.3729Z" fill="#464655"/>
<path d="M22.1889 17.2674L23.1457 15.8355C23.2261 15.7153 23.3884 15.6826 23.509 15.7623L23.7522 15.923C23.8736 16.0033 23.9067 16.1669 23.826 16.288L22.8698 17.7218C22.7893 17.8425 22.6262 17.8751 22.5055 17.7946L22.2615 17.632C22.1407 17.5514 22.1082 17.3882 22.1889 17.2674Z" fill="#464655"/>
<path d="M23.6613 15.0586L24.6157 13.625C24.6963 13.5041 24.8597 13.4714 24.9804 13.5522L25.2228 13.7142C25.3434 13.7948 25.3758 13.9578 25.2953 14.0784L24.34 15.5101C24.2597 15.6306 24.097 15.6633 23.9763 15.5833L23.7347 15.4232C23.6137 15.3429 23.5807 15.1795 23.6613 15.0586Z" fill="#464655"/>
</g>
<defs>
<clipPath id="clip0">
<rect width="30.4762" height="20" fill="white"/>
</clipPath>
</defs>
</svg>
